<svg enable-background="new 0 0 512 512" height="512" id="Layer_1" viewBox="0 0 512 512" width="512"
    xmlns="http://www.w3.org/2000/svg">
    <g>
        <path
            d="m512 255.882v206.118c0 2.209-1.791 4-4 4h-504c-2.209 0-4-1.791-4-4v-206.118c0-2.209 1.791-4 4-4h504c2.209 0 4 1.791 4 4z"
            fill="#fc997d" />
        <path d="m481.095 251.882v214.118h26.905c2.209 0 4-1.791 4-4v-206.118c0-2.209-1.791-4-4-4z"
            fill="#eb866c" />
        <path
            d="m512 255.882v65.084c-17.328 6.084-28.464 14.782-60.266 14.782-48.944 0-48.944-20.588-97.878-20.588s-48.934 20.588-97.867 20.588-48.934-20.588-97.857-20.588c-48.934 0-48.934 20.588-97.867 20.588-31.802 0-42.938-8.699-60.266-14.782v-65.084c0-2.209 1.791-4 4-4h504c2.21 0 4.001 1.791 4.001 4z"
            fill="#fdba91" />
        <g>
            <path
                d="m481.095 251.882v80.566c12.06-3.089 20.335-7.771 30.905-11.482v-65.084c0-2.209-1.791-4-4-4z"
                fill="#fc997d" />
        </g>
        <g fill="#783711">
            <path
                d="m226.011 48.562c.611-1.959-1.396-3.507-2.438-1.879-48.801 76.298-94.286 226.407-94.286 322.215 0 38.996 15.3 45.632 31.149 45.632 21.106 0 31.112-15.12 27.561-45.116-15.9-134.315 25.478-280.644 38.014-320.852z" />
            <path
                d="m414.566 48.562c.611-1.959-1.396-3.507-2.438-1.879-48.801 76.298-94.286 226.407-94.286 322.215 0 38.996 15.3 45.632 31.149 45.632 21.106 0 31.112-15.12 27.561-45.116-15.9-134.315 25.478-280.644 38.014-320.852z" />
        </g>
    </g>
</svg>