<svg enable-background="new 0 0 512 512" height="512" id="Layer_1" viewBox="0 0 512 512" width="512"
    xmlns="http://www.w3.org/2000/svg">
    <g>
        <path
            d="m343.329 34.169c-8.935-14.495-28.158-18.692-42.772-9.952-14.994 8.967-27.958 19.116-39.179 29.936-1.271 1.225-3.177 1.497-4.719.638-31.728-17.677-88.763-37.22-169.101-17.517-16.584 4.068-26.729 20.803-22.66 37.38 4.069 16.576 20.807 26.72 37.397 22.65 54.136-13.278 92.622-3.657 115.438 6.802 2.097.961 2.966 3.487 1.873 5.518-27.653 51.399-29.948 100.137-30.069 103.35-.64 17.057 12.675 31.402 29.738 32.042.395.015.787.022 1.18.022 16.54 0 30.252-13.086 30.876-29.748.009-.223 1.132-23.095 11.713-51.747 14.179-38.399 37.646-67.527 69.75-86.574 14.834-8.801 19.62-28.062 10.535-42.8z"
            fill="#fc997d" />
        <g>
            <path
                d="m343.6 34.618c-3.444-5.8-8.493-10.056-14.243-12.553.386 10.927-5.051 21.721-15.121 27.695-32.104 19.047-55.571 48.175-69.75 86.574-10.581 28.653-11.704 51.525-11.713 51.747-.624 16.662-14.335 29.748-30.876 29.748-.393 0-.785-.008-1.18-.022-3.972-.149-7.736-1.048-11.173-2.544.571 16.032 13.437 29.142 29.731 29.753.395.015.787.022 1.18.022 16.54 0 30.252-13.086 30.876-29.748.009-.223 1.132-23.095 11.713-51.747 14.179-38.399 37.646-67.527 69.75-86.574 14.684-8.712 19.522-27.673 10.806-42.351z"
                fill="#eb866c" />
        </g>
        <path
            d="m132.503 0c-2.209 0-4 1.791-4 4v252c0 107.174 25.078 256 197.408 256h58.998s63.091-19.443 63.091-81.013 0-30.785 0-95.595c0-93.975-97.467-182.278-174.712-182.278h-60.273c-11.384 0-20.613-9.229-20.613-20.613v-128.501c0-2.209-1.791-4-4-4z"
            fill="#fa6f5f" />
        <g fill="#eb5e4e">
            <path
                d="m182.087 153.114h30.928c-11.384 0-20.613-9.225-20.613-20.604v-128.51c0-2.209-1.791-4-4-4h-26.919v132.51c.001 11.379 9.225 20.604 20.604 20.604z" />
            <path
                d="m273.288 153.114h-30.919c77.245 0 174.712 88.304 174.712 182.278v95.595c0 61.57-21.839 81.013-63.09 81.013h30.919c41.251 0 63.09-19.443 63.09-81.013s0-30.785 0-95.595c0-93.974-97.467-182.278-174.712-182.278z" />
        </g>
    </g>
</svg>