<svg enable-background="new 0 0 512 512" height="512" id="Layer_1" viewBox="0 0 512 512" width="512"
    xmlns="http://www.w3.org/2000/svg">
    <g>
        <path
            d="m204.094 404.267h-36.606c-5.792 0-10.488-4.696-10.488-10.488v-19.557c0-5.792 4.696-10.488 10.488-10.488h36.606z"
            fill="#f2ca9c" />
        <path
            d="m307.053 404.267h37.459c5.792 0 10.488-4.696 10.488-10.488v-19.557c0-5.792-4.696-10.488-10.488-10.488h-37.459z"
            fill="#f2ca9c" />
        <path
            d="m299.868 431.496h-87.737c-12.223 0-22.132-9.909-22.132-22.132v-50.73c0-12.223 9.909-22.132 22.132-22.132h87.737c12.223 0 22.132 9.909 22.132 22.132v50.73c0 12.224-9.909 22.132-22.132 22.132z"
            fill="#ffe4c4" />
        <path
            d="m301.013 336.504h-30.938c11.591 0 20.987 10.449 20.987 23.339v48.316c0 12.89-9.396 23.338-20.987 23.338h30.938c11.591 0 20.987-10.449 20.987-23.338v-48.316c0-12.89-9.396-23.339-20.987-23.339z"
            fill="#fdd9b1" />
        <g fill="#f2ca9c">
            <path
                d="m204.094 62.933h-36.606c-5.792 0-10.488-4.696-10.488-10.488v-19.557c0-5.792 4.696-10.488 10.488-10.488h36.606z" />
            <path
                d="m307.053 62.933h37.459c5.792 0 10.488-4.696 10.488-10.488v-19.557c0-5.792-4.696-10.488-10.488-10.488h-37.459z" />
            <path
                d="m204.094 233.6h-36.606c-5.792 0-10.488-4.696-10.488-10.488v-19.557c0-5.792 4.696-10.488 10.488-10.488h36.606z" />
            <path
                d="m307.053 233.6h37.459c5.792 0 10.488-4.696 10.488-10.488v-19.557c0-5.792-4.696-10.488-10.488-10.488h-37.459z" />
            <path
                d="m204.094 318.933h-36.606c-5.792 0-10.488-4.696-10.488-10.488v-19.557c0-5.792 4.696-10.488 10.488-10.488h36.606z" />
            <path
                d="m307.053 318.933h37.459c5.792 0 10.488-4.696 10.488-10.488v-19.557c0-5.792-4.696-10.488-10.488-10.488h-37.459z" />
            <path
                d="m204.094 489.6h-36.606c-5.792 0-10.488-4.696-10.488-10.488v-19.557c0-5.792 4.696-10.488 10.488-10.488h36.606z" />
            <path
                d="m307.053 489.6h37.459c5.792 0 10.488-4.696 10.488-10.488v-19.557c0-5.792-4.696-10.488-10.488-10.488h-37.459z" />
        </g>
        <path
            d="m300.602 88.799h-89.204c-11.818 0-21.398-9.58-21.398-21.398v-46.003c0-11.818 9.58-21.398 21.398-21.398h89.204c11.818 0 21.398 9.58 21.398 21.398v46.004c0 11.817-9.58 21.397-21.398 21.397z"
            fill="#ffe4c4" />
        <path
            d="m301.013 0h-30.938c11.591 0 20.987 9.768 20.987 21.817v45.166c0 12.049-9.396 21.817-20.987 21.817h30.938c11.591 0 20.987-9.768 20.987-21.817v-45.166c0-12.049-9.396-21.817-20.987-21.817z"
            fill="#fdd9b1" />
        <path
            d="m300.127 259.728h-88.253c-12.08 0-21.873-9.793-21.873-21.873v-49.042c0-12.08 9.793-21.873 21.873-21.873h88.253c12.08 0 21.873 9.793 21.873 21.873v49.042c0 12.08-9.793 21.873-21.873 21.873z"
            fill="#ffe4c4" />
        <path
            d="m301.013 166.939h-30.938c11.591 0 20.987 10.207 20.987 22.797v47.195c0 12.59-9.396 22.797-20.987 22.797h30.938c11.591 0 20.987-10.207 20.987-22.797v-47.195c0-12.591-9.396-22.797-20.987-22.797z"
            fill="#fdd9b1" />
        <path
            d="m301.024 341.333h-90.048c-11.585 0-20.976-9.391-20.976-20.976v-43.381c0-11.585 9.391-20.976 20.976-20.976h90.048c11.585 0 20.976 9.391 20.976 20.976v43.381c0 11.585-9.391 20.976-20.976 20.976z"
            fill="#fdd9b1" />
        <path
            d="m301.013 256h-30.938c11.591 0 20.987 9.386 20.987 20.965v43.403c0 11.579-9.396 20.965-20.987 20.965h30.938c11.591 0 20.987-9.386 20.987-20.965v-43.403c0-11.579-9.396-20.965-20.987-20.965z"
            fill="#f2ca9c" />
        <path
            d="m301.024 512h-90.048c-11.585 0-20.976-9.391-20.976-20.976v-43.381c0-11.585 9.391-20.976 20.976-20.976h90.048c11.585 0 20.976 9.391 20.976 20.976v43.381c0 11.585-9.391 20.976-20.976 20.976z"
            fill="#fdd9b1" />
        <path
            d="m301.013 426.667h-30.938c11.591 0 20.987 9.387 20.987 20.966v43.403c0 11.579-9.396 20.965-20.987 20.965h30.938c11.591 0 20.987-9.387 20.987-20.965v-43.403c0-11.58-9.396-20.966-20.987-20.966z"
            fill="#f2ca9c" />
        <path
            d="m204.094 148.267h-36.606c-5.792 0-10.488-4.696-10.488-10.488v-19.557c0-5.792 4.696-10.488 10.488-10.488h36.606z"
            fill="#f2ca9c" />
        <path
            d="m307.053 148.267h37.459c5.792 0 10.488-4.696 10.488-10.488v-19.557c0-5.792-4.696-10.488-10.488-10.488h-37.459z"
            fill="#f2ca9c" />
        <path
            d="m301.024 170.667h-90.048c-11.585 0-20.976-9.391-20.976-20.976v-43.381c0-11.585 9.391-20.976 20.976-20.976h90.048c11.585 0 20.976 9.391 20.976 20.976v43.381c0 11.584-9.391 20.976-20.976 20.976z"
            fill="#fdd9b1" />
        <path
            d="m301.013 85.333h-30.938c11.591 0 20.987 9.387 20.987 20.965v43.403c0 11.579-9.396 20.965-20.987 20.965h30.938c11.591 0 20.987-9.386 20.987-20.965v-43.403c0-11.578-9.396-20.965-20.987-20.965z"
            fill="#f2ca9c" />
    </g>
</svg>