<svg enable-background="new 0 0 512 512" height="512" id="Layer_1" viewBox="0 0 512 512" width="512"
    xmlns="http://www.w3.org/2000/svg">
    <g>
        <path
            d="m307.786 295.147h-103.572c-21.62 0-39.147-17.527-39.147-39.147 0-21.62 17.527-39.147 39.147-39.147h103.573c21.62 0 39.147 17.527 39.147 39.147-.001 21.62-17.527 39.147-39.148 39.147z"
            fill="#fc997d" />
        <path
            d="m307.667 216.853h-31c21.686 0 39.267 17.527 39.267 39.147 0 21.62-17.58 39.147-39.267 39.147h31c21.686 0 39.267-17.527 39.267-39.147-.001-21.62-17.581-39.147-39.267-39.147z"
            fill="#eb866c" />
        <path
            d="m302.5 143.71c-.036 0-.071 0-.107 0-5.617.013-10.227-4.4-10.227-10v-129.71c0-2.209-1.791-4-4-4h-64.333c-2.209 0-4 1.791-4 4v129.71c0 5.6-4.609 10.013-10.227 10-.036 0-.071 0-.107 0-25.681 0-46.5 20.755-46.5 46.358 0 33.469 34.197 52.408 54.731 44.816 24.596-9.094 51.942-9.094 76.537 0 20.566 7.604 54.733-11.337 54.733-44.816 0-25.602-20.819-46.358-46.5-46.358z"
            fill="#ffe4c4" />
        <g>
            <path
                d="m302.5 143.71c-.036 0-.071 0-.107 0-5.617.013-10.227-4.4-10.227-10v-129.71c0-2.209-1.791-4-4-4h-27v133.711c0 5.6 4.61 10.013 10.227 10h.107c25.681 0 46.5 20.755 46.5 46.358 0 21.194-13.694 36.549-28.961 43.044 1.754.549 3.5 1.132 5.229 1.771 20.565 7.604 54.732-11.337 54.732-44.816 0-25.602-20.819-46.358-46.5-46.358z"
                fill="#fdd9b1" />
        </g>
        <path
            d="m209.5 368.29h.107c5.617-.013 10.227 4.4 10.227 10v129.71c0 2.209 1.791 4 4 4h64.333c2.209 0 4-1.791 4-4v-129.71c0-5.6 4.609-10.013 10.227-10h.107c25.681 0 46.5-20.755 46.5-46.358 0-33.469-34.197-52.408-54.731-44.816-24.596 9.094-51.942 9.094-76.537 0-20.566-7.604-54.733 11.337-54.733 44.816 0 25.602 20.819 46.358 46.5 46.358z"
            fill="#ffe4c4" />
        <g>
            <path
                d="m294.269 277.116c-1.735.641-3.487 1.226-5.247 1.777 15.268 6.496 28.978 21.849 28.978 43.039 0 25.603-20.819 46.358-46.5 46.358-.036 0-.071 0-.107 0-5.617-.013-10.227 4.4-10.227 10v133.71h27c2.209 0 4-1.791 4-4v-129.711c0-5.6 4.61-10.013 10.227-10h.107c25.681 0 46.5-20.755 46.5-46.358 0-33.468-34.197-52.408-54.731-44.815z"
                fill="#fdd9b1" />
        </g>
    </g>
</svg>