<svg enable-background="new 0 0 512 512" height="512" id="Layer_1" viewBox="0 0 512 512" width="512"
    xmlns="http://www.w3.org/2000/svg">
    <g>
        <path
            d="m502.643 145.995c-12.245 70.237-63.909 127.907-77.037 197.833-7.762 41.247-2.44 87.227-26.194 121.803-32.845 47.795-88.69 46.422-143.412 46.353-57.188-.072-110.86 1.015-143.411-46.353-23.754-34.576-18.432-80.556-26.181-121.803-13.158-69.945-64.814-127.644-77.051-197.833-6.1-34.992-.895-73.651 21.924-100.828 35.307-42.055 115.007-59.297 169.781-31.95 34.125 17.035 75.752 17.035 109.877 0 54.75-27.335 134.453-10.129 169.781 31.949 22.819 27.178 28.023 65.837 21.923 100.829z"
            fill="#fa6f5f" />
        <g>
            <path
                d="m480.719 45.167c-26.479-31.539-77.887-49.104-125.032-44.415 37.332 3.561 73.408 19.692 94.165 44.415 22.819 27.177 28.024 65.836 21.923 100.828-12.245 70.237-63.909 127.907-77.037 197.833-7.762 41.247-2.44 87.227-26.194 121.803-28.738 41.818-75.084 45.996-122.879 46.341 3.43.007 6.876.007 10.335.012 54.722.069 110.566 1.442 143.412-46.353 23.754-34.576 18.432-80.556 26.194-121.803 13.128-69.926 64.792-127.596 77.037-197.833 6.1-34.992.895-73.651-21.924-100.828z"
                fill="#eb5e4e" />
        </g>
        <path
            d="m256 72.854c-4.143 0-7.5 3.358-7.5 7.5v334.809c0 4.142 3.357 7.5 7.5 7.5s7.5-3.358 7.5-7.5v-334.809c0-4.142-3.357-7.5-7.5-7.5z"
            fill="#eb5e4e" />
    </g>
</svg>