<svg enable-background="new 0 0 512 512" height="512" id="Layer_1" viewBox="0 0 512 512" width="512"
    xmlns="http://www.w3.org/2000/svg">
    <g>
        <path
            d="m148.853 320.072c-41.067-5.502-77.311-7.611-100.802-43.694s-29.57-82.372-19.13-124.17c24.409-97.727 130.767-166.537 244.148-149.657 60.673 9.033 117.077 42.309 155.942 89.885 44.351 54.291 73.794 145.9 51.199 204.104-29.375 75.666-130.118 109.855-209.016 65.814-41.899-23.388-81.274-36.781-122.341-42.282z"
            fill="#fc997d" />
        <path
            d="m429.01 92.436c-38.865-47.576-95.268-80.851-155.941-89.885-16.838-2.507-33.517-3.11-49.8-2.023 6.282.418 12.597 1.079 18.935 2.023 60.674 9.033 117.077 42.309 155.942 89.885 44.351 54.291 73.795 145.9 51.199 204.104-18.651 48.042-66.074 79.352-118.407 84.546 63.699 6.337 126.999-27.176 149.271-84.546 22.596-58.204-6.848-149.813-51.199-204.104z"
            fill="#eb866c" />
        <path d="m215.325 269.801-64.252 168.266 31.627 11.295 61.555-171.175z" fill="#db423b" />
        <path
            d="m81.813 506.314c13.059-28.024 69.168-153.588 68.461-240.826h26.839s10.057 77.017-2.313 146.458c-.789 4.426 5.046 6.759 7.503 2.994 18.383-28.172 55.181-79.854 99.572-117.126l21.204 14.884s-70.348 67.059-109.875 196.461c-.514 1.683-2.063 2.841-3.823 2.841h-103.941c-2.924 0-4.862-3.036-3.627-5.686z"
            fill="#e84941" />
        <g fill="#de7459">
            <path
                d="m329.297 324.955c-1.772-1.705-43.967-41.921-92.967-57.57-47.763-15.253-108.808-7.949-111.382-7.63-4.11.508-7.029 4.251-6.522 8.361s4.259 7.032 8.36 6.525c.6-.072 60.398-7.204 104.981 7.032 45.618 14.568 86.724 53.701 87.131 54.092 2.972 2.857 7.719 2.794 10.605-.207 2.872-2.984 2.779-7.732-.206-10.603z" />
            <path
                d="m440.015 173.496c-23.929-12.939-53.937.226-70.818-13.756-19.88-16.465-8.94-93.326-78.485-75.324-27.131 7.025-52.476 29.736-77.614 22.398-10.947-3.196-19.515-11.861-28.586-21.034-9.761-9.87-19.854-20.076-33.977-24.575-15.246-4.856-35.928.044-42.759 16.426-1.594 3.823.214 8.215 4.037 9.809 3.824 1.596 8.215-.213 9.809-4.036 3.398-8.15 15.565-10.707 24.36-7.906 10.606 3.378 18.988 11.855 27.863 20.83 10.016 10.127 20.371 20.6 35.047 24.885 31.798 9.284 60.282-15.725 85.579-22.275 32.537-8.424 39.14 8.303 47.227 36.287 3.962 13.713 8.061 27.892 17.931 36.067 12.76 10.569 28.862 10.652 43.068 10.726 11.185.058 21.748.112 30.184 4.674 7.096 3.836 12.816 14.107 8.528 20.462-2.317 3.434-1.412 8.095 2.021 10.412 3.463 2.336 8.115 1.384 10.412-2.021 9.543-14.145 1.03-34.016-13.827-42.049z" />
        </g>
    </g>
</svg>