<svg enable-background="new 0 0 512 512" height="512" id="Layer_1" viewBox="0 0 512 512" width="512"
    xmlns="http://www.w3.org/2000/svg">
    <g>
        <path
            d="m156.154 354.49c-45.009 12.189-88.929-2.234-97.918-35.443-12.904-47.674-32.299-114.155 76.991-143.753l353.147-95.639c11.32-3.066 22.649 4.995 23.383 16.703 1.936 30.905-6.18 86.539-81.308 115.645-85.132 32.982-128.813 22.159-177.387 79.064-47.556 55.713-80.733 59.042-96.908 63.423z"
            fill="#fa6f5f" />
        <path
            d="m511.757 96.357c-.733-11.707-12.063-19.768-23.383-16.703l-13.998 3.791c3.661 3.11 6.145 7.639 6.475 12.912 1.936 30.905-6.18 86.539-81.307 115.645-85.132 32.982-128.813 22.159-177.387 79.064-47.557 55.714-80.734 59.044-96.909 63.424-5.244 1.42-10.471 2.464-15.632 3.174 14.327 2.133 30.357 1.208 46.537-3.174 16.175-4.38 49.352-7.71 96.909-63.424 48.573-56.905 92.255-46.082 177.387-79.064 75.128-29.106 83.245-84.74 81.308-115.645z"
            fill="#eb5e4e" />
        <path
            d="m443.178 137.624c-1.496-3.861-5.84-5.779-9.704-4.281-1.464.568-147.488 57.108-244.43 86.838-101.999 31.282-107.403 81.94-107.584 84.081-.347 4.128 2.717 7.755 6.845 8.103.214.018.427.027.637.027 3.857 0 7.136-2.958 7.465-6.872.008-.095 1.299-10.04 12.522-23.23 20.791-24.434 57.434-39.462 84.512-47.767 97.455-29.888 243.987-86.625 245.456-87.194 3.862-1.498 5.779-5.843 4.281-9.705z"
            fill="#d94c3d" />
        <path
            d="m370.206 373.909c-23.821-19.422-55.085-51.751-114.537-54.229-47.92-1.992-74.557 18.191-130.138-6.584-45.431-20.252-60.317-61.428-59.099-93.21.704-18.362-13.57-33.82-31.881-34.525-18.306-.723-33.727 13.607-34.43 31.97-2.449 63.892 32.346 127.104 98.455 156.572 74.021 32.996 118.397 10.757 154.337 12.264 31.134 1.298 44.233 13.95 75.434 39.377 14.219 11.592 35.118 9.428 46.675-4.829 11.559-14.259 9.403-35.215-4.816-46.806z"
            fill="#fc997d" />
        <g fill="#eb866c">
            <path
                d="m35.526 219.886c-1.218 31.782 13.668 72.958 59.099 93.21 29.117 12.979 50.291 13.618 70.742 11.572-11.819-1.445-24.762-4.852-39.837-11.572-45.431-20.251-60.318-61.428-59.099-93.21.704-18.362-13.57-33.82-31.881-34.526-6.03-.238-11.742 1.165-16.723 3.8 10.944 5.786 18.206 17.502 17.699 30.726z" />
            <path
                d="m370.206 373.909c-23.821-19.422-55.085-51.751-114.537-54.229-8.092-.336-15.576-.039-22.696.566 54.157 4.955 83.631 35.158 106.328 53.663 14.219 11.591 16.375 32.547 4.816 46.806-2.92 3.602-6.436 6.429-10.29 8.46 13.705 7.249 31.05 4.056 41.195-8.46 11.559-14.259 9.403-35.215-4.816-46.806z" />
        </g>
    </g>
</svg>