<svg enable-background="new 0 0 512 512" height="512" id="Layer_1" viewBox="0 0 512 512" width="512"
    xmlns="http://www.w3.org/2000/svg">
    <g>
        <path
            d="m498.396 512h-484.787c-2.066 0-3.801-1.569-3.992-3.625-9.6-102.905 1.448-211.027 54.708-299.032 13.268-21.922 29.085-42.536 38.533-66.395 17.162-43.383 11.362-91.998 4.576-138.369-.354-2.415 1.518-4.579 3.96-4.579h289.218c2.442 0 4.313 2.164 3.96 4.578-6.786 46.371-12.596 94.987 4.566 138.369 9.447 23.859 25.265 44.473 38.533 66.395 53.26 88.005 64.308 196.127 54.718 299.031-.192 2.057-1.927 3.627-3.993 3.627z"
            fill="#fdba91" />
        <g fill="#fc997d">
            <path
                d="m447.67 209.343c-13.267-21.922-29.085-42.536-38.533-66.395-17.162-43.383-11.352-91.998-4.566-138.369.354-2.415-1.517-4.579-3.959-4.579h-26.296c-7.052 47.738-13.835 98.135 3.893 142.948 9.447 23.859 25.265 44.473 38.533 66.395 53.886 89.039 64.562 198.671 54.371 302.657h27.284c2.066 0 3.801-1.57 3.992-3.625 9.59-102.905-1.458-211.027-54.719-299.032z" />
            <path
                d="m296.569 251.956c-15.236 16.309-39.889 54.03-39.889 127.486 0-73.372-24.59-111.103-39.827-127.433 1.319.986 22.571 16.813 39.147 16.813 17.111 0 40.569-16.866 40.569-16.866z" />
            <path
                d="m280.78 512h-48.2c7.39-12.46 24.1-49.78 24.1-132.56 0 82.78 16.71 120.1 24.1 132.56z" />
        </g>
        <path
            d="m312.27 248.03c-.31.2-12.2 7.88-23.94 27.51-11.02 18.42-24.15 51.39-24.15 103.9 0 97.08 23.53 129.88 25.59 132.56h-17.55c-4.57-8.73-10.74-23.73-15.54-47.28-4.8 23.55-10.97 38.55-15.54 47.28h-17.55c1.74-2.23 25.59-34.81 25.59-132.56 0-52.51-13.13-85.48-24.14-103.9-11.84-19.79-23.83-27.44-23.95-27.51-3.49-2.19-4.59-6.8-2.42-10.31s6.74-4.62 10.26-2.48c1.73 1.05 33.05 20.88 47.75 78.89 14.7-58.01 46.03-77.84 47.75-78.89 3.53-2.15 8.15-1.03 10.31 2.51 2.14 3.52 1.04 8.12-2.47 10.28z"
            fill="#eb866c" />
        <path d="m263.5 0v179.25c0 4.14-3.36 7.5-7.5 7.5s-7.5-3.36-7.5-7.5v-179.25z"
            fill="#eb866c" />
    </g>
</svg>