<svg enable-background="new 0 0 512 512" height="512" id="Layer_1" viewBox="0 0 512 512" width="512"
    xmlns="http://www.w3.org/2000/svg">
    <g>
        <path
            d="m482 422.52c0 30.307-6.853 58.923-13.547 86.428-.436 1.793-2.041 3.052-3.886 3.052h-417.134c-1.845 0-3.45-1.259-3.886-3.052-6.694-27.505-13.547-56.121-13.547-86.428 0-114.38 50.71-143.26 72.44-198.01 17.229-43.43-24.283-168.669-33.316-219.83-.431-2.444 1.461-4.68 3.942-4.68h365.867c2.481 0 4.373 2.236 3.942 4.68-9.033 51.161-50.544 176.4-33.316 219.83 21.731 54.75 72.441 83.63 72.441 198.01z"
            fill="#fdba91" />
        <path
            d="m409.561 224.507c-17.23-43.423 24.285-168.669 33.311-219.828.431-2.443-1.461-4.679-3.942-4.679h-26.253c-7.071 47.738-51.856 179.694-34.074 224.507 21.731 54.754 72.439 83.63 72.439 198.011 0 31.431-7.371 61.038-14.287 89.481h27.815c1.845 0 3.45-1.259 3.886-3.052 6.69-27.507 13.544-56.12 13.544-86.428 0-114.382-50.708-143.257-72.439-198.012z"
            fill="#fc997d" />
        <g fill="#eb866c">
            <g>
                <path
                    d="m183.83 512h-16.96l-16.8-31.84c-1.93-3.67-.53-8.2 3.14-10.14 3.66-1.93 8.2-.53 10.13 3.14z" />
                <path
                    d="m361.93 480.16-16.8 31.84h-16.96l20.49-38.84c1.94-3.66 6.47-5.07 10.13-3.14 3.67 1.94 5.07 6.47 3.14 10.14z" />
            </g>
            <path
                d="m269.531 267.217c-6.987 11.811-6.042 24.69-6.031 24.59 0 3.813-2.739 7.212-6.522 7.691-4.576.579-8.478-2.976-8.478-7.438-.118-1.098.978-12.994-6.031-24.843-3.972-6.715-3.978-15.71 0-22.434 6.987-11.811 6.042-24.69 6.031-24.59 0-3.813 2.739-7.212 6.522-7.691 4.576-.579 8.478 2.976 8.478 7.438.118 1.098-.978 12.994 6.031 24.843 3.972 6.714 3.977 15.71 0 22.434z" />
        </g>
    </g>
</svg>