<svg enable-background="new 0 0 512 512" height="512" id="Layer_1" viewBox="0 0 512 512" width="512"
    xmlns="http://www.w3.org/2000/svg">
    <g>
        <path
            d="m413.093 458.962c-8.155-2.827-17.026 1.568-19.734 9.737-2.251 6.792-10.535 13.031-16.395 12.358-24.749-2.825-64.05-33.968-87.231-54.823-2.786-2.506-4.259-6.159-4.014-9.898l.007-.102 19.456-307.617c.957-15.127-12.57-27.86-29.596-27.86h-38.913c-17.026 0-30.552 12.733-29.596 27.86l19.456 307.617.004.056c.241 3.732-1.223 7.379-4.001 9.884-26.049 23.484-64.486 52.274-87.347 54.884-5.867.673-14.143-5.566-16.394-12.358-2.685-8.102-11.43-12.494-19.529-9.807-8.101 2.685-12.492 11.429-9.807 19.529 6.39 19.281 25.988 33.578 45.039 33.578 35.168 0 88.867-44.227 114.596-68.274 3.833-3.582 10.029-3.679 13.966 0 25.711 24.031 79.42 68.274 114.595 68.274 18.774 0 38.08-13.886 44.753-32.742 2.874-8.122-1.175-17.474-9.315-20.296z"
            fill="#fdd9b1" />
        <g fill="#f2ca9c">
            <path
                d="m274.276 108.617-17.933 283.525c-.965 15.257 3.909 29.203 12.838 39.438 20.498 23.497 53.398 41.158 76.877 49.478 13.039 4.62 24.028 6.311 32.658.007.008-.006.014-.013.021-.019-.607.059-1.204.077-1.774.012-24.749-2.825-64.05-33.968-87.231-54.823-2.786-2.506-4.259-6.158-4.014-9.898l.007-.102 19.456-307.617c.957-15.127-12.57-27.86-29.596-27.86h-30.905c17.026-.001 30.553 12.732 29.596 27.859z" />
            <path
                d="m413.093 458.962c-8.155-2.827-17.026 1.568-19.734 9.737-.29.875-.683 1.739-1.155 2.582.419 2.642.212 5.42-.741 8.089-4.971 13.928-16.836 25.122-30.271 29.991 5.786 1.688 11.323 2.639 16.463 2.639 18.774 0 38.08-13.886 44.753-32.742 2.874-8.122-1.175-17.474-9.315-20.296z" />
        </g>
        <g fill="#ffe4c4">
            <path
                d="m77.243 102.075c33.503 26.482 103.906 38.27 143.55 41.299.399.03.795.045 1.19.045 8 0 14.772-6.169 15.39-14.279.649-8.508-5.723-15.933-14.231-16.582-30.151-2.305-99.291-13.037-126.734-34.728-4.999-3.952-5.673-12.752-1.413-18.463 5.103-6.841 3.693-16.522-3.148-21.625s-16.523-3.693-21.626 3.148c-14.151 18.971-10.935 46.991 7.022 61.185z" />
            <path
                d="m44.838 186.251c18.949 8.181 49.965 12.304 92.401 12.304 33.157 0 57.859-2.725 82.795-5.612 8.477-.984 14.551-8.653 13.568-17.13s-8.647-14.544-17.129-13.57c-36.049 4.177-122.554 11.535-159.385-4.366-6.821-2.945-8.5-10.26-4.966-16.086 4.427-7.297 2.101-16.8-5.196-21.226-7.296-4.427-16.8-2.102-21.226 5.196-13.012 21.446-5.365 49.911 19.138 60.49z" />
            <path
                d="m69.587 270.456c65.627 0 144.969-22.631 149.816-23.804 8.295-2.006 13.392-10.358 11.386-18.653-2.007-8.295-10.355-13.394-18.653-11.385-38.258 9.256-131.503 30.91-172.95 20.095-7.715-2.012-10.039-8.436-6.936-14.591 3.842-7.621.778-16.913-6.843-20.755-7.62-3.843-16.913-.778-20.755 6.843-12.069 23.944.227 51.493 26.732 58.407 10.44 2.724 23.607 3.843 38.203 3.843z" />
            <path
                d="m227.46 305.355c7.762-3.546 11.179-12.712 7.634-20.475-3.545-7.762-12.713-11.181-20.475-7.637-32.61 14.89-110.784 52.685-150.33 48.738-7.39-.734-11.218-7.326-9.711-13.891 1.908-8.318-3.288-16.609-11.606-18.517-8.323-1.908-16.609 3.288-18.517 11.606-5.579 24.315 10.442 48.936 36.775 51.557 47.203 4.685 123.125-31.687 166.23-51.381z" />
            <path
                d="m245.782 373.434c0-14.065-10.178-20.218-22.622-13.661-38.063 20.056-84.486 48.786-115.435 48.081-7.15-.158-11.834-6.662-11.134-13.347.887-8.488-5.275-16.089-13.763-16.976-8.5-.878-16.089 5.276-16.976 13.763-2.511 24.031 15.286 47.476 42.828 47.476 40.698 0 92.984-32.774 128.865-51.686 5.066-2.67 8.237-7.922 8.237-13.65z" />
            <path
                d="m434.757 102.075c-33.503 26.482-103.906 38.27-143.55 41.299-.399.03-.795.045-1.19.045-8 0-14.772-6.169-15.39-14.279-.649-8.508 5.723-15.933 14.231-16.582 30.151-2.305 99.291-13.037 126.734-34.728 4.999-3.952 5.673-12.752 1.413-18.463-5.103-6.841-3.693-16.522 3.148-21.625s16.523-3.693 21.626 3.148c14.151 18.971 10.935 46.991-7.022 61.185z" />
            <path
                d="m434.757 102.075c-33.503 26.482-103.906 38.27-143.55 41.299-.399.03-.795.045-1.19.045-8 0-14.772-6.169-15.39-14.279-.649-8.508 5.723-15.933 14.231-16.582 30.151-2.305 99.291-13.037 126.734-34.728 4.999-3.952 5.673-12.752 1.413-18.463-5.103-6.841-3.693-16.522 3.148-21.625s16.523-3.693 21.626 3.148c14.151 18.971 10.935 46.991-7.022 61.185z" />
            <path
                d="m467.162 186.251c-18.949 8.181-49.965 12.304-92.401 12.304-33.157 0-57.859-2.725-82.795-5.612-8.477-.984-14.551-8.653-13.568-17.13s8.647-14.544 17.129-13.57c36.049 4.177 122.554 11.535 159.385-4.366 6.821-2.945 8.5-10.26 4.966-16.086-4.427-7.297-2.101-16.8 5.196-21.226 7.296-4.427 16.8-2.102 21.226 5.196 13.012 21.446 5.365 49.911-19.138 60.49z" />
            <path
                d="m442.413 270.456c-65.627 0-144.969-22.631-149.816-23.804-8.295-2.006-13.392-10.358-11.386-18.653s10.355-13.394 18.653-11.385c38.258 9.256 131.503 30.91 172.95 20.095 7.715-2.012 10.039-8.436 6.936-14.591-3.842-7.621-.778-16.913 6.843-20.755 7.62-3.843 16.913-.778 20.755 6.843 12.069 23.944-.227 51.493-26.732 58.407-10.44 2.724-23.607 3.843-38.203 3.843z" />
            <path
                d="m284.54 305.355c-7.762-3.546-11.179-12.712-7.634-20.475 3.545-7.762 12.713-11.181 20.475-7.637 32.61 14.89 110.784 52.685 150.33 48.738 7.39-.734 11.218-7.326 9.711-13.891-1.908-8.318 3.288-16.609 11.606-18.517 8.323-1.908 16.609 3.288 18.517 11.606 5.579 24.315-10.442 48.936-36.775 51.557-47.203 4.685-123.125-31.687-166.23-51.381z" />
            <path
                d="m266.218 373.434c0-14.065 10.178-20.218 22.622-13.661 38.063 20.056 84.486 48.786 115.435 48.081 7.15-.158 11.834-6.662 11.134-13.347-.887-8.488 5.275-16.089 13.763-16.976 8.5-.878 16.089 5.276 16.976 13.763 2.511 24.031-15.286 47.476-42.828 47.476-40.698 0-92.984-32.774-128.865-51.686-5.066-2.67-8.237-7.922-8.237-13.65z" />
            <path
                d="m256 100.76c-18.586 0-33.938-10.18-34.982-14.086l-22.997-57.412c-1.131-4.23 14.857-29.262 34.982-29.262h45.995c20.124 0 36.113 25.032 34.982 29.261l-22.997 57.412c-1.045 3.906-16.397 14.087-34.983 14.087z" />
        </g>
        <path
            d="m278.997 0h-30.905c11.266 0 21.235 7.845 27.631 15.493 5.393 6.449 6.704 15.383 3.578 23.187l-19.225 47.994c-.733 2.742-8.523 8.573-19.529 11.807 4.67 1.372 9.916 2.279 15.453 2.279 18.586 0 33.938-10.18 34.982-14.086l22.997-57.412c1.131-4.23-14.857-29.262-34.982-29.262z"
            fill="#fdd9b1" />
    </g>
</svg>