<svg enable-background="new 0 0 512 512" height="512" id="Layer_1" viewBox="0 0 512 512" width="512"
    xmlns="http://www.w3.org/2000/svg">
    <g>
        <path
            d="m83.751 438.642c-26.111-17.483-44.538-48.058-50.556-83.885-5.221-31.084-1.506-66.132 11.044-104.17 10.274-31.139 25.44-61.867 33.436-95.639 11.144-47.062 7.409-94.667 3.797-140.703-.668-8.508-8.092-14.859-16.615-14.197-8.508.668-14.864 8.106-14.197 16.614 3.426 43.664 6.968 88.815-3.06 131.166-7.36 31.085-22.105 60.932-32.711 93.077-14.139 42.855-18.234 82.883-12.173 118.97 7.422 44.181 30.69 82.25 63.839 104.447 2.64 1.768 5.628 2.615 8.583 2.615 4.982 0 9.874-2.406 12.854-6.857 4.75-7.092 2.85-16.69-4.241-21.438z"
            fill="#ffe4c4" />
        <path
            d="m428.249 438.642c26.111-17.483 44.538-48.058 50.556-83.885 5.221-31.084 1.506-66.132-11.044-104.17-10.274-31.139-25.44-61.867-33.436-95.639-11.144-47.062-7.409-94.667-3.797-140.703.668-8.508 8.091-14.859 16.614-14.197 8.508.668 14.864 8.106 14.197 16.614-3.426 43.664-6.968 88.815 3.06 131.166 7.36 31.085 22.105 60.932 32.711 93.077 14.139 42.855 18.235 82.883 12.174 118.971-7.422 44.181-30.69 82.25-63.839 104.447-2.64 1.768-5.628 2.615-8.583 2.615-4.982 0-9.874-2.406-12.854-6.857-4.75-7.093-2.85-16.691 4.241-21.439z"
            fill="#ffe4c4" />
        <ellipse cx="130.608" cy="365.394" fill="#fc997d" rx="102.13" ry="126.338" />
        <path
            d="m130.608 239.056c-5.253 0-10.413.492-15.453 1.438 49.072 9.214 86.677 61.623 86.677 124.899s-37.605 115.686-86.677 124.899c5.039.946 10.2 1.438 15.453 1.438 56.405 0 102.13-56.563 102.13-126.338 0-69.772-45.725-126.336-102.13-126.336z"
            fill="#eb866c" />
        <path
            d="m125.658 483.234c-32.678-19.264-56.992-51.342-66.708-88.01-9.715-36.668-4.475-76.577 14.376-109.495 4.241-7.405 1.676-16.847-5.73-21.089-7.407-4.241-16.848-1.675-21.089 5.73-22.859 39.913-29.212 88.306-17.432 132.768 11.781 44.463 41.263 83.36 80.887 106.718 7.326 4.319 16.812 1.911 21.159-5.465 4.335-7.349 1.888-16.823-5.463-21.157z"
            fill="#fa6f5f" />
        <ellipse cx="381.392" cy="365.374" fill="#fc997d" rx="102.13" ry="126.338" />
        <path
            d="m381.392 239.036c-10.163 0-19.977 1.845-29.241 5.264 42.154 15.557 72.889 63.871 72.889 121.073s-30.735 105.516-72.889 121.073c9.265 3.419 19.078 5.265 29.241 5.265 56.405 0 102.13-56.563 102.13-126.338s-45.725-126.337-102.13-126.337z"
            fill="#eb866c" />
        <path
            d="m386.342 483.214c32.678-19.264 56.992-51.342 66.708-88.01 9.715-36.668 4.475-76.577-14.376-109.495-4.241-7.405-1.676-16.847 5.73-21.089 7.407-4.241 16.848-1.675 21.089 5.73 22.859 39.913 29.212 88.306 17.432 132.768-11.781 44.463-41.263 83.36-80.887 106.718-7.327 4.319-16.812 1.911-21.159-5.465-4.335-7.349-1.888-16.823 5.463-21.157z"
            fill="#fa6f5f" />
    </g>
</svg>