<svg enable-background="new 0 0 512 512" height="512" id="Layer_1" viewBox="0 0 512 512" width="512"
    xmlns="http://www.w3.org/2000/svg">
    <g>
        <path
            d="m54.317 353.942c-11.918-1.964-29.904-14.163-32.892-31.495-3.463-20.087 9.099-45.534 9.099-45.534s-16.524-11.435-16.524-35.258c0-20.213 20.308-37.793 20.308-37.793s-19.998-17.105-19.998-40.333c0-28.563 21.822-39.42 21.822-39.42s-34.861-40.933-4.122-66.273c-4.291-15.514 1.575-32.693 15.447-41.338 12.671-7.897 30.09-7.539 42.616.457 1.982 1.265 4.593.989 6.205-.705 8.379-8.806 20.038-14.613 32.282-15.948 12.526-1.367 25.514 1.963 35.79 9.073 1.637 1.133 3.814 1.124 5.472.021 9.074-6.037 22.307-9.347 32.86-8.893 10.326.444 20.452 4.324 28.386 10.784 1.759 1.432 4.277 1.436 6.056.029 7.723-6.109 17.808-10.595 28.271-11.003 10.637-.415 24.394 4.636 32.805 11.963 1.702 1.483 4.215 1.463 6.015.101 21.377-16.184 51.403-16.291 66.361.968 1.6 1.846 4.332 2.232 6.399.9 11.9-7.671 24.041-12.126 37.505-12.421 12.963-.284 26.896 5.658 32.998 16.424 1.639 2.891 4.89 4.469 8.271 4.344 12.275-.456 24.645 5.505 30.347 16.209 6.303 11.834 3.899 27.444-5.442 37.11-.905.936-1.008 2.379-.213 3.41 7.236 9.384 22.741 26.834 15.824 48.285-2.771 8.594-9.891 16.11-18.909 18.017.067-.242.15.142.217-.1 11.175 10.918 17.555 26.37 17.258 41.804-.277 14.454-6.406 28.709-16.7 39.086-1.102 1.11-1.007 2.905.186 3.917 9.193 7.802 14.124 18.163 13.499 30.294-.616 11.954-7.007 23.472-16.799 30.639-1.368 1.001-1.43 3.041-.132 4.13 10.563 8.869 14.78 22.393 15.924 36.295.875 10.641-.681 22.003-7.342 30.469-5.571 7.081-15.403 11.34-24.115 9.604-2.8-.558-5.552.907-6.689 3.467-5.238 11.786-18.221 20.986-31.078 23.181-12.788 2.183-25.992-.936-37.593-6.788-2.684-1.354-5.987-.598-7.705 1.828-8.21 11.596-29.184 23.693-60.186 4.012-12.688-8.055-32.86 2.382-42.306 13.928-9.447 11.546-13.207 26.538-15.194 41.189-2.207 16.273.962 37.78 3.077 54.943.294 2.383-1.57 4.482-3.971 4.482h-30.549c-2.392 0-4.249-2.078-3.969-4.453 4.031-34.243-9.042-97.911 13.395-135.852 11.61-19.633 47.335-58.634 94.786-49.974 4.03.735 7.96-1.375 9.676-5.01 3.781-8.008 11.33-26.373 35.443-24.254 3.828.336 5.689-4.753 3.31-7.623-7.026-8.473-11.502-19.645-11.722-30.082-.256-12.162 4.718-24.315 13.328-33.082 2.044-2.081 2.151-5.398.305-7.657-7.074-8.658-10.401-19.092-11.249-30.505-.882-11.864 2.293-23.969 8.827-34.001 1.152-1.769.408-4.085-1.5-5.045-6.44-3.239-11.189-8.727-13.48-15.659-2.008-6.075-1.728-12.81.608-18.763.494-1.258-.967-2.351-2.115-1.604-11.013 7.165-27.965 9.363-42.498 6.143-7.267-1.61-19.896-7.94-26.738-15.31-2.043-2.2-5.478-2.502-7.889-.692-9.95 7.469-23.089 11.752-35.416 12.975-12.026 1.194-24.377-1.081-35.173-6.379-3.651-1.792-8.071-1.41-11.309 1.024-17.597 13.226-37.546 16.444-57.199 7.436-2.371-1.087-4.917 1.168-4.076 3.589 6.3 18.147 2.243 38.988-10.059 53.991-3.335 4.067-3.409 9.925-.286 14.157 8.153 11.046 12.479 24.842 12.151 38.461-.33 13.714-5.554 27.237-14.405 37.874-3.366 4.045-3.561 9.898-.473 14.16 8.785 12.127 13.623 26.496 12.924 41.521-.552 11.867-5.238 24.74-16.069 30.148-6.658 3.324-14.473 3.273-21.809 4.69-8.342 1.611-17.375 6.401-17.447 15.464-.077 9.676 1.478 18.782 16.817 29.437 1.417.984 2.147 2.705 1.816 4.398-.63 3.23-1.453 6.649-2.121 9.917-.451 2.206-2.509 3.696-4.748 3.454-7.326-.792-14.237-1.433-21.148-4.402-26.52-11.398-27.274-48.742-23.329-56.553z"
            fill="#fdba91" />
        <g fill="#fc997d">
            <path
                d="m496.264 127.604c6.915-21.442-8.575-38.887-15.815-48.273-.8-1.037-.71-2.476.203-3.421 9.341-9.666 11.746-25.276 5.443-37.111-5.701-10.704-18.072-16.664-30.347-16.209-3.381.126-6.633-1.453-8.271-4.344-6.103-10.766-20.036-16.708-32.998-16.424-5.506.121-10.788.948-15.926 2.396 7.6 2.651 14.289 7.428 18.031 14.029 1.639 2.891 4.89 4.469 8.271 4.344 12.275-.456 24.646 5.505 30.347 16.209 6.304 11.835 3.898 27.445-5.443 37.111-.913.944-1.003 2.383-.203 3.421 7.24 9.386 22.729 26.831 15.815 48.273-2.745 8.513-9.76 15.959-18.657 17.953 11.153 10.916 17.519 26.35 17.223 41.768-.278 14.457-6.409 28.715-16.706 39.093-1.107 1.115-1.01 2.89.19 3.908 9.194 7.803 14.127 18.164 13.501 30.296-.616 11.954-7.007 23.472-16.8 30.639-1.38 1.01-1.443 3.029-.135 4.127 10.566 8.869 14.784 22.395 15.927 36.299.875 10.641-.681 22.003-7.342 30.469-5.571 7.081-15.402 11.34-24.115 9.604-2.799-.558-5.552.907-6.689 3.467-4.371 9.837-14.141 17.855-24.727 21.52 7.999 2.275 16.355 3.059 24.543 1.661 12.857-2.195 25.84-11.396 31.078-23.181 1.137-2.56 3.89-4.025 6.689-3.467 8.712 1.736 18.544-2.523 24.115-9.604 6.66-8.466 8.217-19.827 7.342-30.469-1.143-13.904-5.361-27.43-15.927-36.299-1.308-1.098-1.244-3.117.135-4.127 9.793-7.167 16.183-18.685 16.8-30.639.625-12.132-4.307-22.494-13.501-30.296-1.2-1.018-1.297-2.793-.19-3.908 10.298-10.378 16.429-24.636 16.706-39.093.296-15.418-6.07-30.852-17.223-41.768 8.896-1.995 15.91-9.441 18.656-17.954zm-18.781 17.984c.023-.005.045-.012.068-.017-.021.041-.044.036-.068.017z" />
            <path d="m446.658 145.571c-.023.005-.045.012-.068.017.023.019.046.024.068-.017z" />
            <path
                d="m142.919 118.495c-3.595.227-16.235.929-18.103 9.338-2.393 10.772-10.965 28.376-23.268 43.379-3.378 4.119-3.372 9.958-.22 14.245 8.111 11.031 12.413 24.79 12.086 38.373-.33 13.715-5.554 27.238-14.405 37.874-3.37 4.05-3.629 9.817-.536 14.073 8.825 12.145 13.687 26.547 12.987 41.607-.552 11.867-8.227 14.664-16.962 23.048-10.633 10.206-12.425 17.332-7.47 27.254.072-9.063 9.105-13.853 17.447-15.464 7.336-1.417 15.151-1.365 21.809-4.69 10.831-5.408 15.517-18.281 16.069-30.148.701-15.061-4.162-29.462-12.987-41.607-3.092-4.256-2.834-10.023.536-14.073 8.851-10.636 14.075-24.159 14.405-37.874.327-13.583-3.975-27.341-12.086-38.373-3.152-4.287-3.158-10.126.22-14.245 12.017-14.654 16.161-34.875 10.478-52.717z" />
        </g>
    </g>
</svg>