<svg enable-background="new 0 0 512 512" height="512" id="Layer_1" viewBox="0 0 512 512" width="512"
    xmlns="http://www.w3.org/2000/svg">
    <g>
        <path
            d="m426.716 161.955c15.982 15.535 15.303 42.165-1.843 58.329-16.92 15.947-48.678 22.345-94.401 19.038-62.632-4.543-105.399-7.047-138.61-6.346-40.409.835-55.197 6.748-60.49 11.548-4.099 3.719-4.016 10.879.237 15.072 33.89 33.357 218.099-15.906 269.413 35.222 18.145 18.08 14.469 46.286-1.678 60.43-33.871 29.654-119.103 5.141-206.576 5.141-14.798 0-24.818 6.758-24.952 11.219-.419 13.689 15.533 14.937 29.833 15.422 51.057 1.71 144.098-4.152 163.253 32.152 10.102 19.151 5.139 39.333-12.069 49.088-15.467 8.777-35.981 8.839-54.085 8.89-10.174.031-20.709.062-27.186 1.793-2.657.711-2.853 1.226-3.234 2.277-1.424 3.863-1.737 14.554-1.838 26.8-.018 2.198-1.802 3.971-4 3.971h-22.894c-2.219 0-4.014-1.808-4.001-4.027.089-14.906.617-28.998 3.754-37.469 4.016-10.848 12.399-18.255 24.262-21.418 10.339-2.761 22.336-2.792 35.044-2.833 14.304-.041 30.513-.093 38.947-4.873.783-.443 3.141-1.782-.021-7.778-9.798-17.199-116.81-15.016-136.972-15.69-50.46-1.689-60.305-26.62-59.676-47.244.71-23.478 24.715-41.187 55.835-41.187 75.178 0 166.728 19.593 186.227 2.503 3.542-3.111 4.892-10.621.227-15.278-38.789-38.533-221.462 11.993-269.28-35.088-16.672-16.411-16.817-44.102.659-59.977 26.888-24.415 91.404-22.623 222.105-13.155 51.376 3.729 67.317-7.242 70.973-10.703 4.634-4.358 4.562-10.693 1.503-13.681-20.112-19.553-177.144-1.113-246.748.021-34.364.546-59.162-6.449-73.774-20.83-16.786-16.524-16.641-40.764-.989-55.671 16.95-16.122 50.717-22.345 106.285-19.573 22.614 1.133 100.446 4.172 152.213-3.945 66.174-10.384 66.936-23.272 66.936-23.808 0-1.473-.319-2.565-2.008-4.1-24.171-21.936-155.778-7.009-189.121-3.802-31.851 3.06-59.357 5.687-77.069 5.408-24.006-.384-45.463-7.725-50.604-31.184-.9-4.105-2.383-13.091-3.508-22.12-.297-2.388 1.564-4.499 3.971-4.499h23.069c2.009 0 3.701 1.49 3.965 3.481.863 6.507 1.901 12.969 2.687 16.525.35 1.628 1.442 6.583 20.925 6.902 15.993.258 42.695-2.308 73.62-5.275 102.464-9.849 183.21-15.236 212.837 11.693 7.94 7.212 12.131 16.535 12.131 26.971 0 35.016-47.03 47.12-93.042 54.342-54.692 8.581-135.18 5.439-158.536 4.275-61.571-3.07-78.872 6.748-83.454 11.105-3.542 3.379-2.132 7.809 1.359 11.239 3.841 3.791 16.559 12.548 51.603 11.96 86.884-1.411 234.957-24.167 268.786 8.737z"
            fill="#fdba91" />
        <g fill="#fc997d">
            <path
                d="m378.928 146.08c2.968 1.287 5.522 2.909 7.919 4.445 46.156 29.585 32.848 62.128 12.64 83.703 10.535-3.289 19.014-7.939 25.386-13.945 17.146-16.163 17.826-42.794 1.843-58.329-8.977-8.731-26-13.542-47.788-15.874z" />
            <path
                d="m415.68 58.813c-.895 17.514-6.944 32.84-17.888 44.289 24.408-8.398 42.208-21.265 42.208-42.805 0-10.436-4.191-19.759-12.131-26.97-8.753-7.956-21.971-13.09-38.889-16.122 17.849 14.886 27.233 31.186 26.7 41.608z" />
            <path
                d="m278.772 389.071c19.52 2.803 35.727 7.875 49.139 17.535 24.794 17.858 15.302 52.347-7.44 69.624 10.143-1.025 19.993-3.212 28.362-7.961 17.208-9.756 22.171-29.937 12.069-49.088-10.803-20.476-45.109-27.537-82.13-30.11z" />
            <path
                d="m346.323 273.007c11.194 3.358 20.87 7.834 28.371 13.819 30.748 24.536 8.943 65.215-2.464 80.549 10.937-2.197 20.122-6.006 27.114-12.127 16.147-14.144 19.823-42.351 1.678-60.43-12.09-12.047-31.56-18.517-54.699-21.811z" />
        </g>
    </g>
</svg>