<svg enable-background="new 0 0 512 512" height="512" id="Layer_1" viewBox="0 0 512 512" width="512"
    xmlns="http://www.w3.org/2000/svg">
    <g>
        <path
            d="m226.005 4.545c1.925 13.881 7.424 56.663 6.711 87.686 0 0-164.707 74.061-184.996 215.91-.903 6.314-4.44 11.91-9.755 15.437-2.436 1.617-4.464 4.721-4.464 10.576 0 14.662 7.223 82.849 60.099 84.117s76.822-63.418 71.317-81.53c-4.176-13.738 34.492-58.884 53.411-79.887.662-.735 1.8.158 1.247.979-10.831 16.079-27.808 46.546-27.808 79.55 0 48.419 24.722 61.811 49.445 61.811 39.144 0 49.286-35.716 49.286-35.716l7.007 144.714c.103 2.131 1.861 3.807 3.995 3.807h173c2.209 0 4-1.791 4-4v-503.999c0-2.209-1.791-4-4-4h-244.533c-2.427 0-4.296 2.141-3.962 4.545z"
            fill="#fdba91" />
        <g fill="#fc997d">
            <path
                d="m224.267 380.018c-17.579-6.514-29.241-25.823-29.248-68.544-2.015 8.298-3.253 17.011-3.253 25.911 0 48.419 24.722 61.811 49.445 61.811 39.144 0 49.286-35.716 49.286-35.716l-.381-7.864c-.106-2.187-3.022-2.873-4.069-.95-7.354 13.488-26.363 38.476-61.78 25.352z" />
            <path
                d="m134.013 336.742c4.869 16.02-13.308 68.467-54.159 79.493 0 0 .001 0 .002.001 4.199 1.204 8.769 1.916 13.743 2.035 52.876 1.268 76.822-63.418 71.317-81.53-3.424-11.266 21.961-43.651 41.642-66.525 3.866-5.078 7.852-9.649 11.765-13.358 0 .001-89.815 61.772-84.31 79.884z" />
            <path d="m447.597 0v512h26.903c2.209 0 4-1.791 4-4v-504c0-2.209-1.791-4-4-4z" />
        </g>
        <path
            d="m184.207 178.86c-4.406-7.795-14.828-9.725-21.618-3.888-.044.038-.088.076-.133.114-23.596 20.302-42.69 42.028-56.75 64.574-16.905 27.108-26.55 55.593-28.667 84.665-.624 8.567-11.458 7.3-11.458 21.84 1.073 6.661 3.023 14.926 6.404 22.574 8.086 18.293 17.723 18.523 22.355 18.635.263.006.529.009.789.009 8.575 0 16.169-3.517 23.214-10.753 11.294-11.6 16.103-27.462 16.427-32.972-2.011-19.008-1.688-33.43 29.602-74.938 3.789-5.027 19.308-25.186 34.653-39.077 4.738-4.289 6.045-11.213 3.171-16.922-5.749-11.42-11.704-22.74-17.989-33.861z"
            fill="#fa6f5f" />
        <path
            d="m208.896 209.352c-6.352-12.618-12.291-23.8-18.159-34.182-3.23-5.715-8.786-9.64-15.243-10.77-6.396-1.115-12.881.662-17.786 4.878l-.144.123c-24.171 20.797-43.76 43.101-58.222 66.291-17.557 28.151-27.577 57.789-29.784 88.089-.033.449-.142.678-2.205 2.493-3.468 3.051-9.272 8.156-9.272 19.892 0 .399.032.799.096 1.193 1.005 6.239 3.027 15.54 6.949 24.413 10.009 22.644 23.831 22.976 29.047 23.101.318.007.641.012.956.012 10.556 0 20.175-4.381 28.588-13.021 13.122-13.477 18.158-31.262 18.541-37.763.024-.41.015-.822-.028-1.23-1.675-15.832-2.998-28.338 28.132-69.635 2.982-3.956 18.621-24.384 33.697-38.03 7.219-6.536 9.209-17.167 4.837-25.854zm-14.904 14.733c-15.677 14.191-31.219 34.299-35.608 40.123-31.991 42.438-33.298 58.583-31.146 79.521-.509 4.329-4.537 17.676-14.268 27.67-5.637 5.789-11.306 8.485-17.841 8.485-.205 0-.415-.003-.609-.008-3.558-.085-9.512-.229-15.674-14.169-3.152-7.13-4.862-14.764-5.758-20.113.106-4.48 1.501-5.707 4.173-8.058 2.696-2.372 6.769-5.955 7.258-12.666 2.028-27.845 11.297-55.179 27.551-81.241 13.659-21.902 32.257-43.051 55.267-62.849l.141-.121c2.047-1.761 4.282-1.686 5.432-1.484 2.018.354 3.756 1.583 4.769 3.375 5.748 10.17 11.577 21.143 17.819 33.544 1.348 2.682.729 5.968-1.506 7.991z"
            fill="#ffe4c4" />
        <ellipse cx="251.717" cy="321.481" fill="#fa6f5f" rx="39.251" ry="28.781"
            transform="matrix(.408 -.913 .913 .408 -144.479 420.172)" />
        <path
            d="m270.79 278.797c-20.218-9.037-42.677 6.577-52.197 27.881-10.517 23.536-4.213 49.324 14.051 57.486 19.588 8.754 42.322-5.785 52.196-27.881 10.517-23.534 4.214-49.322-14.05-57.486zm.355 51.367c-3.631 8.127-9.272 14.677-15.884 18.443-5.857 3.338-11.717 4-16.497 1.861-10.532-4.706-13.497-21.958-6.476-37.672 3.631-8.126 9.272-14.676 15.884-18.443 5.1-2.905 11.141-4.255 16.497-1.862 10.532 4.708 13.498 21.96 6.476 37.673z"
            fill="#ffe4c4" />
    </g>
</svg>