<svg enable-background="new 0 0 512 512" height="512" id="Layer_1" viewBox="0 0 512 512" width="512"
    xmlns="http://www.w3.org/2000/svg">
    <g>
        <path
            d="m382.105 169.265s-25.312-4.298-36.149 20.165c-10.838 24.473-45.802 20.679-57.639 42.612-4.178 7.748-7.065 14.601-9.052 20.225-3.484 9.862-12.787 16.474-23.263 16.474-10.477 0-19.779-6.613-23.263-16.475-1.987-5.624-4.875-12.477-9.056-20.225-11.837-21.933-46.791-18.139-57.629-42.612-10.838-24.463-36.159-20.165-36.159-20.165s-63.017-.082-35.964-42.694c27.052-42.602 57.35-45.234 57.35-45.234s29.989-22.684 44.298-22.684c24.405 0 5.81 27.743 35.82 27.743h49.212c30.009 0 11.404-27.743 35.82-27.743 14.299 0 44.298 22.684 44.298 22.684s30.298 2.632 57.34 45.234c27.053 42.613-35.964 42.695-35.964 42.695z"
            fill="#fdd9b1" />
        <path
            d="m243.277 377.476c-2.102-24.421-5.038-50.851-19.481-70.658-17.534-24.04-105.893-44.197-89.08-105.018 7.757-28.057 9.818-75.715 1.071-80.937-40.28-24.051-14.927-37.677-35.778-55.187-29.669-24.906-58.669-19.035-82.075 9.826-17.729 21.846-18.502 53.416-17.75 81.473.484 18.324 14.206 38.759 23.004 54.868 25.394 46.494 59.339 63.015 78.83 148.423 6.789 29.736 9.127 92.411 67.261 101.012 41.238 6.096 78.902-26.76 73.998-83.802zm-41.413 38.8c-14.278 15.519-42.853 14.243-55.465-9.012-5.975-11.011-24.065-83.996-11.981-80.628 27.228 7.601 77.037 6.705 78.284 49.079.504 17.016-2.391 31.374-10.838 40.561z"
            fill="#ffe4c4" />
        <g>
            <path
                d="m243.277 377.476c-2.102-24.421-5.038-50.851-19.481-70.658-17.534-24.04-105.893-44.197-89.08-105.018 7.757-28.057 9.818-75.715 1.071-80.937-40.28-24.051-14.927-37.677-35.778-55.187-18.167-15.25-36.08-18.942-52.614-12.902 7.147 2.517 14.407 6.773 21.709 12.902 20.851 17.51-4.502 31.137 35.778 55.187 8.746 5.222 6.686 52.88-1.071 80.937-16.813 60.821 59.188 83.955 80.473 104.749 20.445 19.974 25.293 39.476 28.477 63.779 5.813 44.373-19.497 80.483-51.221 89.409 2.464.623 5.041 1.14 7.739 1.539 41.238 6.098 78.902-26.758 73.998-83.8z"
                fill="#fdd9b1" />
        </g>
        <path
            d="m134.43 326.64h-.01c-16.9-3.55-35.65-13.71-51.82-24.42-6.1-12.85-12.65-23.42-19.33-33 13.13 10.71 22.353 20.651 44.32 31.128 17.811 8.494 27.41 26.292 26.84 26.292z"
            fill="#f2ca9c" />
        <path
            d="m494.066 75.502c-23.406-28.861-52.406-34.731-82.075-9.826-20.851 17.51 4.502 31.137-35.778 55.187-8.746 5.222-6.686 52.88 1.071 80.937 16.813 60.821-71.546 80.978-89.08 105.018-14.443 19.807-17.379 46.237-19.481 70.658-4.904 57.041 32.76 89.898 73.998 83.801 58.134-8.601 60.472-71.276 67.261-101.012 19.491-85.407 53.436-101.928 78.83-148.423 8.798-16.109 22.52-36.544 23.004-54.868.752-28.056-.021-59.626-17.75-81.472zm-128.464 331.762c-12.654 23.333-41.24 24.475-55.465 9.012-8.448-9.188-11.342-23.546-10.838-40.561 1.246-42.374 51.056-41.478 78.284-49.079 12.084-3.368-6.006 69.617-11.981 80.628z"
            fill="#ffe4c4" />
        <g>
            <path
                d="m494.066 75.502c-17.646-21.758-38.472-30.44-60.366-22.729 10.469 3.825 20.386 11.54 29.461 22.729 17.729 21.846 18.502 53.416 17.75 81.473-.484 18.324-14.206 38.759-23.004 54.868-25.394 46.494-59.339 63.015-78.83 148.423-6.548 28.679-8.963 87.99-61.278 99.886 7.919 1.971 16.343 2.394 24.923 1.126 58.134-8.601 60.472-71.276 67.261-101.012 19.491-85.407 53.436-101.928 78.83-148.423 8.798-16.109 22.52-36.544 23.004-54.868.751-28.057-.022-59.627-17.751-81.473z"
                fill="#fdd9b1" />
        </g>
        <path
            d="m377.578 326.64h.01c16.9-3.55 35.65-13.71 51.82-24.42 6.1-12.85 12.65-23.42 19.33-33-13.13 10.71-22.353 20.651-44.32 31.128-17.811 8.494-27.41 26.292-26.84 26.292z"
            fill="#f2ca9c" />
    </g>
</svg>