<svg enable-background="new 0 0 512 512" height="512" id="Layer_1" viewBox="0 0 512 512" width="512"
    xmlns="http://www.w3.org/2000/svg">
    <g>
        <path d="m239.517 385.88v122.12c0 2.209 1.791 4 4 4h24.966c2.209 0 4-1.791 4-4v-122.12z"
            fill="#fa6f5f" />
        <g fill="#fa6f5f">
            <path
                d="m116.376 157.959c8.046-8.043 16.092-16.085 24.138-24.127-7.778-3.446-24.603-14.428-24.603-44.953v-84.879c0-2.209-1.791-4-4-4h-24.981c-2.209 0-4 1.791-4 4v84.879c0 36.156 16.839 57.761 33.446 69.08z" />
            <path
                d="m395.624 157.959c-8.046-8.043-16.092-16.085-24.138-24.127 7.778-3.446 24.603-14.428 24.603-44.953v-84.879c0-2.209 1.791-4 4-4h24.981c2.209 0 4 1.791 4 4v84.879c0 36.156-16.839 57.761-33.446 69.08z" />
        </g>
        <path
            d="m420.829 209.208c0 88.188-73.796 207.5-164.829 207.5s-164.829-119.312-164.829-207.5 73.796-111.856 164.829-111.856 164.829 23.668 164.829 111.856z"
            fill="#fc997d" />
        <path
            d="m256 97.352c-5.212 0-10.364.082-15.453.245 83.785 2.681 149.376 28.473 149.376 111.611 0 83.139-65.591 193.922-149.376 206.337 5.089.754 10.241 1.163 15.453 1.163 91.032 0 164.829-119.313 164.829-207.501 0-88.187-73.797-111.855-164.829-111.855z"
            fill="#eb866c" />
        <path
            d="m256 385.803c-31.295 0-64.678-21.14-91.592-57.999-26.112-35.762-42.332-81.204-42.332-118.596 0-30.147 10.064-49.307 32.635-62.125 21.995-12.492 56.073-18.826 101.289-18.826s79.294 6.334 101.289 18.826c22.57 12.818 32.635 31.978 32.635 62.125 0 37.391-16.22 82.834-42.332 118.596-26.914 36.859-60.297 57.999-91.592 57.999z"
            fill="#fa6f5f" />
        <path
            d="m357.289 147.083c-21.995-12.492-56.073-18.826-101.289-18.826-5.307 0-10.454.091-15.453.265 37.59 1.31 66.423 7.535 85.836 18.561 22.57 12.818 32.635 31.978 32.635 62.125 0 37.391-16.22 82.834-42.332 118.596-22.521 30.844-49.572 50.669-76.139 56.323 5.182 1.103 10.345 1.676 15.453 1.676 31.295 0 64.678-21.14 91.592-57.999 26.112-35.762 42.332-81.204 42.332-118.596 0-30.147-10.065-49.307-32.635-62.125z"
            fill="#eb5e4e" />
        <path
            d="m330.762 205.748c-41.33 4.417-75.986 37.999-117.539 39.055-32.323.821-60.706-17.709-90.937-28.169 1.955 35.862 17.716 77.744 42.122 111.17 26.913 36.859 60.297 57.999 91.592 57.999s64.678-21.14 91.592-57.999c24.881-34.076 40.769-76.937 42.213-113.252-19.49-6.111-39.079-10.937-59.043-8.804z"
            fill="#fedd7a" />
        <path
            d="m347.592 327.804c24.881-34.076 40.769-76.937 42.213-113.252-10.229-3.208-20.487-6.049-30.811-7.728.014.788.025 1.58.025 2.384 0 37.391-16.22 82.834-42.332 118.596-22.521 30.844-49.572 50.669-76.139 56.323 5.182 1.103 10.345 1.676 15.452 1.676 31.295 0 64.678-21.14 91.592-57.999z"
            fill="#f5d269" />
        <path
            d="m360.993 140.563c-23.139-13.142-58.463-19.805-104.993-19.805s-81.854 6.663-104.993 19.805c-24.854 14.114-36.431 35.927-36.431 68.646 0 38.899 16.773 86.038 43.774 123.019 28.343 38.814 63.934 61.076 97.649 61.076s69.307-22.262 97.649-61.076c27.001-36.98 43.774-84.119 43.774-123.019.002-32.72-11.574-54.532-36.429-68.646zm-19.458 182.818c-25.486 34.903-56.663 54.922-85.535 54.922s-60.049-20.019-85.534-54.922c-25.222-34.543-40.89-78.291-40.89-114.173 0-27.494 8.625-44.123 28.839-55.603 20.852-11.843 53.685-17.848 97.585-17.848s76.733 6.005 97.585 17.848c20.214 11.479 28.839 28.108 28.839 55.603 0 35.882-15.668 79.63-40.889 114.173z"
            fill="#ffe4c4" />
    </g>
</svg>