<svg enable-background="new 0 0 512 512" height="512" id="Layer_1" viewBox="0 0 512 512" width="512"
    xmlns="http://www.w3.org/2000/svg">
    <g>
        <path
            d="m427.007 0c2.752 0 4.665 2.715 3.77 5.321-23.364 67.982-32.951 138.757-39.995 209.091-9.752 97.431-15.121 196.078-46.555 290.19-.473 1.42-.959 2.839-1.458 4.259-.563 1.6-2.088 2.659-3.782 2.652-13.955-.059-27.908.076-41.843.485-2.898.085-4.911-2.831-3.812-5.519 21.969-53.755 37.644-109.337 46.676-165.677 9.096-56.702 11.477-114.013 17.585-170.983-33.672 51.282-77.106 86.28-77.106 86.28l-10.03-57.218c52.858-42.769 97.829-139.536 98.917-141.515.01 0 .01-.01.01-.01 4.218-15.241 12.53-45.052 15.364-54.514.508-1.692 2.062-2.842 3.826-2.842z"
            fill="#3d4053" />
        <path
            d="m106.11 312.93c-11.195 17.512-20.391 36.698-23.775 57.253s-.524 42.659 10.777 60.101c10.79 16.653 28.371 27.866 46.912 34.652 22.709 8.311 48.429 10.496 70.854 1.435 27.584-11.145 46.612-37.85 56.049-66.27 9.436-28.419 10.665-58.835 12.191-88.767 1.336-26.198 2.979-52.818 10.826-78.002 2.653-8.513 12.785-25.056 5.68-33.585-8.984-10.785-87.188 11.472-139.969 56.509-19.132 16.325-35.959 35.422-49.545 56.674z"
            fill="#484a5d" />
        <path
            d="m295.624 199.748c-3.127-3.754-14.647-3.5-30.557.32 6.608 8.616-3.299 24.855-5.92 33.265-7.848 25.184-9.49 51.804-10.826 78.001-1.526 29.932-2.755 60.348-12.191 88.767-9.437 28.42-28.464 55.125-56.049 66.27-5.369 2.169-10.928 3.687-16.588 4.638 16.014 2.441 32.432 1.404 47.385-4.638 27.584-11.145 46.612-37.85 56.049-66.27 9.436-28.419 10.665-58.836 12.191-88.767 1.336-26.197 2.979-52.818 10.826-78.001 2.653-8.514 12.785-25.056 5.68-33.585z"
            fill="#3d4053" />
    </g>
</svg>