<svg enable-background="new 0 0 512 512" height="512" id="Layer_1" viewBox="0 0 512 512" width="512"
    xmlns="http://www.w3.org/2000/svg">
    <g>
        <g>
            <path
                d="m301.592 0c3.145 0 5.084 3.476 3.388 6.125-4.902 7.66-11.88 22.724-11.88 46.403 0 36.5 69.9 83.958 69.9 211.088s-73.92 141.339-73.92 196.417c0 19.595 8.596 37.131 13.799 45.952 1.569 2.66-.367 6.015-3.455 6.015h-86.849c-3.088 0-5.024-3.355-3.455-6.015 5.203-8.82 13.799-26.357 13.799-45.952 0-55.078-73.92-69.287-73.92-196.417s69.9-174.588 69.9-211.088c0-23.68-6.978-38.743-11.88-46.403-1.694-2.649.244-6.125 3.389-6.125z"
                fill="#fa6f5f" />
        </g>
        <path
            d="m363 263.617c0-127.13-69.9-174.588-69.9-211.088 0-23.68 6.978-38.743 11.88-46.403 1.695-2.65-.243-6.126-3.389-6.126h-22.777s-16.58 16.028-16.58 52.528 69.9 83.958 69.9 211.088c0 127.131-73.92 141.339-73.92 196.418 0 28.099 17.677 51.966 17.677 51.966h23.533c3.088 0 5.024-3.355 3.455-6.015-5.203-8.82-13.799-26.357-13.799-45.951 0-55.078 73.92-69.287 73.92-196.417z"
            fill="#eb5e4e" />
        <g>
            <path
                d="m230.711 0s10.75 16.028 10.75 52.528-36.012 83.958-36.012 211.088 37.916 141.339 37.916 196.417c0 28.099-11.27 51.966-11.27 51.966h47.809s-11.27-23.867-11.27-51.966c0-55.078 37.916-69.287 37.916-196.417s-36.011-174.587-36.011-211.088 10.75-52.528 10.75-52.528z"
                fill="#e35444" />
        </g>
    </g>
</svg>