<svg enable-background="new 0 0 512 512" height="512" id="Layer_1" viewBox="0 0 512 512" width="512"
    xmlns="http://www.w3.org/2000/svg">
    <g>
        <path
            d="m512 309.516c0 141.385-114.615 202.484-256 202.484s-256-61.099-256-202.484 114.615-309.516 256-309.516 256 168.131 256 309.516z"
            fill="#fdba91" />
        <path
            d="m256 0c-5.189 0-10.34.233-15.453.676 134.189 11.635 240.547 172.644 240.547 308.84 0 136.195-106.36 197.88-240.547 202.226 5.114.165 10.263.258 15.453.258 141.385 0 256-61.099 256-202.484s-114.615-309.516-256-309.516z"
            fill="#fc997d" />
        <path
            d="m404.913 240.269c0 60.843-66.673 87.133-148.913 87.133s-148.913-26.29-148.913-87.133c0-45.039 36.551-96.394 88.905-120.016 11.044-2.885 27.331-2.627 31.832 16.163 1.957 8.17-5.11 36.767-5.11 41.681 0 18.389 14.907 33.285 33.285 33.285s33.285-14.896 33.285-33.285c0-4.914-7.067-33.512-5.11-41.681 4.502-18.79 20.789-19.048 31.832-16.163 52.356 23.622 88.907 74.977 88.907 120.016z"
            fill="#eb866c" />
        <g fill="#de7459">
            <path
                d="m196.919 136.417c1.957 8.17-5.11 36.767-5.11 41.681 0 18.389 14.907 33.285 33.285 33.285 5.579 0 10.833-1.38 15.453-3.806-10.598-5.566-17.833-16.673-17.833-29.479 0-4.914 7.067-33.512 5.11-41.681-4.502-18.79-20.789-19.048-31.832-16.163-2.238 1.01-4.437 2.089-6.616 3.197 3.368 2.72 6.08 6.859 7.543 12.966z" />
            <path
                d="m316.008 120.253c-7.455-1.947-17.294-2.453-24.29 3.197 48.785 24.822 82.289 73.705 82.289 116.819 0 56.982-58.482 83.656-133.46 86.812 5.08.214 10.234.321 15.453.321 82.239 0 148.913-26.29 148.913-87.133 0-45.039-36.551-96.394-88.905-120.016z" />
        </g>
        <path
            d="m319.093 113.417c-.384-.174-.782-.314-1.189-.421-6.165-1.609-17.993-3.423-27.93 2.534-6.591 3.952-10.995 10.391-13.091 19.138-1.544 6.439.452 18.401 3.222 33.37.73 3.951 1.641 8.868 1.681 10.06 0 14.218-11.567 25.785-25.785 25.785s-25.785-11.567-25.785-25.743c.04-1.233.95-6.15 1.681-10.102 2.77-14.969 4.766-26.931 3.223-33.369-2.097-8.748-6.501-15.187-13.092-19.139-9.937-5.956-21.765-4.145-27.93-2.534-.407.106-.806.247-1.189.421-54.073 24.397-93.32 77.747-93.32 126.853 0 59.256 58.473 94.633 156.413 94.633s156.413-35.377 156.413-94.633c-.002-49.106-39.249-102.456-93.322-126.853zm38.712 186.597c-24.73 13.012-59.934 19.889-101.805 19.889s-77.074-6.877-101.805-19.889c-26.282-13.827-39.608-33.928-39.608-59.744 0-20.433 8.3-43.022 23.371-63.609 15.375-21.002 36.849-38.489 60.52-49.299 3.443-.835 10.721-2.031 15.836 1.034 3.046 1.826 5.08 5.021 6.218 9.769.924 3.856-2.096 20.176-3.385 27.145-1.305 7.049-1.932 10.537-1.932 12.789 0 22.489 18.296 40.785 40.785 40.785s40.785-18.296 40.785-40.785c0-2.252-.627-5.74-1.932-12.789-1.289-6.969-4.309-23.288-3.384-27.146 1.137-4.746 3.171-7.941 6.217-9.768 5.114-3.066 12.391-1.869 15.836-1.034 23.671 10.81 45.145 28.297 60.52 49.299 15.071 20.587 23.371 43.177 23.371 63.609 0 25.816-13.326 45.917-39.608 59.744z"
            fill="#fc997d" />
        <path
            d="m354.89 432.799c-46.12 15.68-151.08 15.88-197.78 0-77.33-26.3-113.43-69.17-49.61-114.82 50.01-35.77 112.87-12.5 137.74-.75 6.982 3.293 14.865 3.139 21.52 0 24.87-11.75 87.73-35.02 137.74.75 63.82 45.65 27.72 88.52-49.61 114.82z"
            fill="#fa6f5f" />
        <g>
            <path
                d="m404.501 317.978c-25.014-17.891-53.244-21.011-78.327-18.189 16.046 1.976 32.32 7.387 47.422 18.189 63.82 45.647 27.722 88.524-49.614 114.824-19.982 6.793-51.008 10.678-83.554 11.61 42.815 1.227 88.184-2.678 114.46-11.61 77.335-26.3 113.432-69.176 49.613-114.824z"
                fill="#eb5e4e" />
        </g>
        <path
            d="m263.5 318.489v64.57c0 4.15-3.36 7.5-7.5 7.5s-7.5-3.35-7.5-7.5v-64.57c4.88 1.54 10.12 1.54 15 0z"
            fill="#eb5e4e" />
    </g>
</svg>