<svg enable-background="new 0 0 512 512" height="512" id="Layer_1" viewBox="0 0 512 512" width="512"
    xmlns="http://www.w3.org/2000/svg">
    <g>
        <path
            d="m510.111 208.732c-11.287 7.217-24.787 11.152-37.835 14.838 9.443 8.012 22.816 10.956 34.84 8.175 2.5-.578 4.884 1.328 4.884 3.894v26.217c0 2.394-2.09 4.253-4.468 3.98-13.862-1.594-27.531-4.844-40.612-9.682-.443 11.332 9.715 20.429 20.253 24.591 7.054 2.787 14.604 4.174 21.896 6.241 1.73.49 2.931 2.061 2.931 3.859v36.414c0 2.602-2.45 4.531-4.971 3.889-.636-.162-1.263-.346-1.879-.552-12.002-4.059-20.82-14.072-29.597-23.2-15.442-16.081-33.141-30.998-54.435-37.612-21.284-6.604-46.842-3.286-62.089 12.97-18.543 19.77-16.174 52.818-.907 75.203 15.267 22.386 40.362 35.984 65.52 46.039 25.167 10.054 51.602 17.544 74.729 31.678 4.232 2.581 8.389 5.6 12.273 8.96.87.752 1.356 1.856 1.356 3.006v60.36c0 2.209-1.791 4-4 4h-121.491c-1.059 0-2.083-.41-2.831-1.161-10.891-10.941-19.444-24.876-27.411-38.274-20.665-34.789-33.646-76.305-61.739-105.429-14.629-15.175-38.23-19.223-58.669-14.093s-38.055 18.183-52.941 33.089c-14.886 14.917-27.557 31.874-41.959 47.255-11.281 12.033-23.632 23.107-33.924 35.994-7.826 9.794-8.291 24.857-8.715 38.744-.066 2.16-1.837 3.875-3.998 3.875h-27.922c-2.063 0-3.766-1.572-3.983-3.623-1.086-10.248.337-19.222-.366-29.274-.226-3.232-3.964-4.899-6.495-2.876-12.038 9.619-24.425 20.377-31.32 33.649-.682 1.313-2.047 2.125-3.527 2.125h-16.709c-2.209 0-4-1.791-4-4v-8.329c0-.485.083-.969.255-1.423.855-2.259 1.867-4.45 3.083-6.564 6.85-11.894 19.21-19.472 28.391-29.627 2.282-2.524.582-6.55-2.817-6.697-8.038-.348-16.129.55-23.898 2.646-2.531.683-5.014-1.24-5.014-3.862v-19.889c0-2.227 1.819-4.006 4.045-3.992 15.111.096 29.746-9.188 43.539-16.595 31.925-17.152 69.568-26.898 93.139-54.445 12.476-14.577 19.862-33.43 20.624-52.612.752-19.172-5.12-38.549-16.411-54.074-49.14-12.424-105.14 1.689-135.953 41.928-.593.774-1.205 1.565-1.834 2.361-2.355 2.982-7.149 1.332-7.149-2.468v-34.912c0-1.108.454-2.171 1.262-2.929 9.641-9.038 20.05-17.258 31.065-24.542-9.21.069-18.383 1.492-27.195 4.143-2.559.771-5.132-1.157-5.132-3.83v-23.881c0-1.841 1.255-3.446 3.041-3.891 9.104-2.263 18.737-3.088 28.112-3.828-9.251-1.404-18.501-2.8-27.752-4.202-1.955-.296-3.401-1.978-3.401-3.955v-34.79c0-2.004 1.483-3.697 3.468-3.972 23.372-3.24 47.915 1.612 68.006 14.058 12.836 7.953 23.911 18.76 37.632 25.054 13.722 6.294 31.925 6.758 42.052-4.44 11.291-12.486 7.098-32.317.021-47.595-26.274-56.648-85.477-81.886-147.419-86.017-2.111-.141-3.76-1.876-3.76-3.991v-20.95c0-2.241 1.835-4.043 4.075-4 11.752.224 40.473 2.95 55.416 10.469-14.526-11.297-40.515-29.044-45.316-34.689-.443-.526-1.556-1.669-.231-1.669h52.82c.651 0 1.291.159 1.867.462 15.429 8.139 30.857 16.288 46.286 24.427-5.373-5.441-8.909-12.586-10.282-20.114-.453-2.479 1.406-4.775 3.927-4.775h27.877c1.964 0 3.627 1.428 3.942 3.367 3.696 22.738 9.233 45.171 16.547 67.015 8.55 25.518 21.325 52.2 45.462 64.119 29.525 14.577 67.322.659 87.833-25.106 20.511-25.775 26.61-60.276 26.455-93.211-.016-4.076-.109-8.205-.003-12.302.055-2.163 1.839-3.882 4.002-3.882h22.436c2.19 0 3.962 1.762 4.003 3.952.237 12.896-.696 25.811-2.809 38.533 12.042-10.978 21.409-24.807 27.327-39.979.593-1.521 2.077-2.506 3.709-2.506h19.582c2.841 0 4.791 2.885 3.707 5.511-6.754 16.358-14.254 32.416-22.461 48.1 21.325.793 36.015-20.367 46.544-38.921 2.761-4.873 5.841-9.921 9.272-14.69h24.779c2.832 0 4.771 2.86 3.717 5.489-9.45 23.559-21.166 48.115-41.579 62.689-29.37 20.984-75.131 29.246-85.536 63.799-8.417 27.928 9.529 59.267 35.758 72.02 26.218 12.754 57.968 9.601 84.835-1.741 18.704-7.896 35.513-19.372 51.569-31.91 2.631-2.055 6.472-.196 6.472 3.143v31.843c-.002 1.383-.725 2.655-1.891 3.4z"
            fill="#fa6f5f" />
        <g fill="#eb5e4e">
            <path
                d="m392.697 73.143c-29.37 20.984-79.831 24.281-90.236 58.834-8.417 27.928 9.529 59.267 35.758 72.02 16.545 8.048 35.293 9.757 53.627 7.076-7.848-1.26-15.496-3.561-22.722-7.076-26.228-12.754-44.174-44.092-35.758-72.02 10.405-34.552 56.165-42.814 85.536-63.799 20.413-14.574 32.129-39.13 41.579-62.689 1.055-2.629-.884-5.489-3.716-5.489h-24.779c-.116.079-.202.137-.318.216-9.807 25.126-17.028 57.261-38.971 72.927z" />
            <path
                d="m1.422 231.976c-.474.004-.948.031-1.422.042v.921c.475-.319.944-.647 1.422-.963z" />
            <path
                d="m423.641 403.996c-25.157-10.055-50.252-23.653-65.52-46.039-15.267-22.385-17.637-55.434.907-75.203 13.439-14.329 34.89-18.6 54.363-14.89-29.545-11.5-63.748-2.766-82.179 23.246-9.392 13.256-14.219 38.857-1.882 64.607 11.708 24.437 38.248 38.225 63.405 48.28 25.167 10.054 51.602 17.544 74.729 31.678.047.029.095.058.142.087 8.453 5.178 13.487 14.493 13.487 24.406v51.832h26.907c2.209 0 4-1.791 4-4v-60.359c0-1.15-.487-2.254-1.356-3.006-3.884-3.36-8.041-6.379-12.273-8.96-23.128-14.135-49.562-21.625-74.73-31.679z" />
        </g>
        <circle cx="248.442" cy="242.152" fill="#fedd7a" r="59.751" />
        <path
            d="m248.442 182.401c-5.345 0-10.522.712-15.453 2.029 25.507 6.812 44.298 30.068 44.298 57.722s-18.791 50.91-44.298 57.722c4.93 1.317 10.107 2.029 15.453 2.029 32.999 0 59.751-26.751 59.751-59.751-.001-33-26.752-59.751-59.751-59.751z"
            fill="#f5d269" />
    </g>
</svg>