<svg enable-background="new 0 0 512 512" height="512" id="Layer_1" viewBox="0 0 512 512" width="512"
    xmlns="http://www.w3.org/2000/svg">
    <g>
        <path
            d="m344.265 14.672s-163.355 88.63-343.422 320.832c-.545.702-.843 1.571-.843 2.46v170.036c0 2.209 1.791 4 4 4h188.46c1.232 0 2.39-.562 3.148-1.533 13.073-16.747 131.577-166.925 250.357-261.845z"
            fill="#e84941" />
        <path
            d="m163.511 512h28.949c1.232 0 2.39-.562 3.148-1.533 13.073-16.747 131.577-166.925 250.357-261.845l-13.247-30.474c-135.948 106.193-269.207 293.852-269.207 293.852z"
            fill="#db423b" />
        <ellipse cx="397.194" cy="130.479" fill="#db423b" rx="114.806" ry="130.479" />
        <path
            d="m397.194 0c-5.241 0-10.398.407-15.453 1.181 56.097 8.578 99.353 63.194 99.353 129.298 0 66.105-43.256 120.72-99.353 129.299 5.055.773 10.212 1.181 15.453 1.181 63.406-.001 114.806-58.418 114.806-130.48 0-72.061-51.4-130.479-114.806-130.479z"
            fill="#cf3b34" />
        <ellipse cx="397.194" cy="130.479" fill="#eb5e4e" rx="83.9" ry="99.573" />
        <g fill="#c43831">
            <ellipse cx="382.425" cy="172.08" rx="26.785" ry="17.513" />
            <ellipse cx="468.757" cy="119.075" rx="26.785" ry="17.513" />
            <ellipse cx="388.993" cy="89.901" rx="26.785" ry="17.513" />
        </g>
    </g>
</svg>