<svg enable-background="new 0 0 512 512" height="512" id="Layer_1" viewBox="0 0 512 512" width="512"
    xmlns="http://www.w3.org/2000/svg">
    <g>
        <path
            d="m350.45 176.676c-9.747 30.885 7.709 47.595 7.761 79.324.051 28.588-18.177 72.143-10.848 100.958 9.263 38.117 21.614 72.113 27.79 111.26 2.239 13.467 3.896 26.542 5.046 39.443.208 2.334-1.643 4.339-3.984 4.339h-240.429c-2.341 0-4.192-2.005-3.984-4.339 1.149-12.901 2.806-25.976 5.046-39.443 6.176-39.147 18.527-73.143 27.79-111.26 8.059-31.74-8.697-69.517-9.5-100.958-.72-28.773 15.264-51.262 6.412-79.324-10.293-31.936-25.731-59.751-34.995-92.716-6.581-26.358-10.532-52.716-13.038-79.593-.218-2.344 1.634-4.367 3.985-4.367h276.995c2.351 0 4.203 2.023 3.985 4.366-2.506 26.877-6.456 53.235-13.038 79.593-9.262 32.967-24.701 60.781-34.994 92.717z"
            fill="#fdba91" />
        <path
            d="m385.445 83.96c6.581-26.358 10.532-52.716 13.038-79.593.218-2.344-1.634-4.367-3.985-4.367h-26.458c-2.481 28.392-6.495 56.176-13.432 83.96-9.263 32.966-24.702 60.781-34.995 92.716-9.747 30.885 7.709 47.595 7.761 79.324.051 28.588-18.177 72.143-10.848 100.958 9.263 38.117 21.614 72.113 27.79 111.26 2.491 14.979 4.261 29.473 5.414 43.783h26.485c2.341 0 4.192-2.005 3.984-4.339-1.15-12.901-2.806-25.976-5.046-39.443-6.176-39.147-18.527-73.143-27.79-111.26-7.328-28.814 10.9-72.37 10.848-100.958-.051-31.729-17.508-48.439-7.761-79.324 10.293-31.937 25.732-59.751 34.995-92.717z"
            fill="#fc997d" />
        <path
            d="m304.915 353.456c-3.218-2.605-7.935-2.109-10.539 1.11-.48.593-11.813 14.756-17.442 35.043-1.387 5.001-10.242 8.771-20.596 8.771s-19.209-3.771-20.596-8.771c-5.631-20.287-16.962-34.45-17.442-35.043-2.599-3.214-7.306-3.711-10.523-1.114s-3.722 7.315-1.135 10.541c.098.122 9.894 12.462 14.659 29.632 3.331 12.001 17.084 19.756 35.037 19.756s31.706-7.755 35.037-19.757c4.734-17.059 14.436-29.351 14.656-29.627 2.596-3.22 2.098-7.936-1.116-10.541z"
            fill="#eb866c" />
    </g>
</svg>