<svg enable-background="new 0 0 512 512" height="512" id="Layer_1" viewBox="0 0 512 512" width="512"
    xmlns="http://www.w3.org/2000/svg">
    <g>
        <ellipse cx="395.59" cy="122.592" fill="#ffe4c4" rx="136.912" ry="99.148"
            transform="matrix(.646 -.763 .763 .646 46.454 345.356)" />
        <path
            d="m484.347 18.347c-18.303-15.669-42.775-20.992-68.618-17.141 14.053 2.299 26.95 7.928 37.713 17.141 41.598 35.611 35.581 111.151-13.438 168.724-27.451 32.241-62.566 52.006-95.458 56.907 40.263 6.587 90.027-14.229 126.364-56.907 49.018-57.573 55.034-133.113 13.437-168.724z"
            fill="#fdd9b1" />
        <path
            d="m326.931 203.358c-33.433-28.621-12.218-91.045 16.871-125.21 37.519-44.065 92.731-60.049 120.447-36.323 33.433 28.621 12.218 91.045-16.871 125.21-37.52 44.066-92.732 60.049-120.447 36.323z"
            fill="#f2ca9c" />
        <path
            d="m193.305 294.23c-1.523 17.842 2.823 36.417-2.588 53.424-7.054 22.171-28.925 35.648-50.548 41.974s-44.53 7.547-65.658 15.479c-40.178 15.084-70.48 61.663-74.506 105.763-.106 1.161 1.502 1.583 1.969.515 9.18-20.992 30.048-41.317 51.333-48.864 23.394-8.294 48.416-9.858 72.736-14.447s49.247-12.978 66.214-31.664c13.485-14.851 20.55-34.671 26.346-54.185 5.796-19.513 10.803-39.639 21.24-56.94 10.437-17.302 27.631-31.694 47.266-32.355 5.438-.183 11.387.543 15.845-2.7 5.835-4.244 6.051-13.691 2.32-19.996s-10.238-10.167-16.553-13.588c-10.057-5.448-15.834-13.764-27.392-13.039-11.281.708-22.781 5.711-32.206 11.954-19.373 12.835-33.763 34.602-35.818 58.669z"
            fill="#f2ca9c" />
        <ellipse cx="292.759" cy="229.154" fill="#ffe4c4" rx="35.843" ry="56.412"
            transform="matrix(.707 -.707 .707 .707 -76.289 274.129)" />
        <path
            d="m318.103 203.809c-19.366-19.367-44.274-26.734-59.525-18.725 9.729 3.514 19.755 9.861 28.619 18.725 22.03 22.03 28.542 51.236 14.545 65.234-1.692 1.692-3.611 3.078-5.709 4.18 14.451 5.219 28.249 4.185 36.614-4.18 13.999-13.997 7.487-43.203-14.544-65.234z"
            fill="#fdd9b1" />
    </g>
</svg>