<svg enable-background="new 0 0 512 512" height="512" id="Layer_1" viewBox="0 0 512 512" width="512"
    xmlns="http://www.w3.org/2000/svg">
    <g>
        <ellipse cx="268.855" cy="399.362" fill="#e84941" rx="130.576" ry="96.638" />
        <path
            d="m311.682 308.048c34.323 17.413 56.844 46.639 56.844 79.761 0 53.372-58.461 96.638-130.576 96.638-15.002 0-29.41-1.878-42.827-5.325 20.982 10.646 46.372 16.878 73.732 16.878 72.115 0 130.576-43.266 130.576-96.638 0-42.268-36.671-78.193-87.749-91.314z"
            fill="#db423b" />
        <ellipse cx="268.855" cy="370.82" fill="#eb5e4e" rx="55.965" ry="36.615" />
        <ellipse cx="130.576" cy="181.988" fill="#e84941" rx="130.576" ry="96.638" />
        <path
            d="m185.983 94.464c27.138 17.708 44.263 43.626 44.263 72.507 0 53.372-58.461 96.638-130.576 96.638-19.811 0-38.587-3.271-55.408-9.114 23.012 15.016 53.222 24.131 86.313 24.131 72.115 0 130.576-43.266 130.576-96.638.001-38.709-30.757-72.097-75.168-87.524z"
            fill="#db423b" />
        <ellipse cx="130.576" cy="153.446" fill="#eb5e4e" rx="55.965" ry="36.615" />
        <ellipse cx="399.431" cy="133.167" fill="#e84941" rx="96.593" ry="130.637"
            transform="matrix(.754 -.657 .657 .754 10.855 295.3)" />
        <path
            d="m472.12 69.556c-34.7-39.718-81.985-58.713-120.596-52.34 31.023 4.674 63.848 22.76 89.691 52.34 47.47 54.333 53.407 126.859 13.262 161.99-10.8 9.45-23.836 15.227-38.044 17.572 25.961 3.911 50.66-1.567 68.95-17.572 40.144-35.132 34.206-107.657-13.263-161.99z"
            fill="#db423b" />
        <ellipse cx="420.899" cy="114.379" fill="#eb5e4e" rx="36.598" ry="55.991"
            transform="matrix(.754 -.658 .658 .754 28.561 304.93)" />
    </g>
</svg>