<svg enable-background="new 0 0 512 512" height="512" id="Layer_1" viewBox="0 0 512 512" width="512"
    xmlns="http://www.w3.org/2000/svg">
    <g>
        <path
            d="m470.406 250.859c-51.41 121.974-170.656 104.618-193.062 158.566-8.4 20.224-3.758 77.615-3.513 98.534.026 2.228-1.773 4.041-4.001 4.041h-106.09c-2.294 0-4.122-1.922-3.992-4.212 2.105-36.961-.517-81.94-10.366-89.957-28.477-23.179-113.815-37.9-121.5-128.195-2.284-26.785 5.874-53.631 18.559-77.325 18.396-34.347 88.549-121.088 131.789-157.464 31.666-26.64 69.289-47.667 110.275-53.363 61.655-8.581 126.541 20.696 162.672 71.412s43.416 120.577 19.229 177.963z"
            fill="#fa6f5f" />
        <path
            d="m451.178 72.896c-34.933-49.034-96.746-78.022-156.53-72.135 49.371 4.697 96.727 31.534 125.651 72.135 36.131 50.716 43.415 120.577 19.228 177.964-51.41 121.974-170.657 104.618-193.062 158.566-9.026 21.732-2.994 86.38-3.539 102.575h26.903c2.228 0 4.027-1.813 4.001-4.041-.245-20.919-4.886-78.31 3.513-98.534 22.406-53.948 141.652-36.592 193.062-158.566 24.188-57.387 16.903-127.248-19.227-177.964z"
            fill="#eb5e4e" />
        <path
            d="m441.956 238.848c-25.938 61.543-70.547 80.117-113.684 98.073-32.247 13.424-65.596 27.3-79.44 60.637-5.795 13.949-7.411 34.16-7.359 57.989.021 14.113-11.445 25.548-25.536 25.548-13.391 0-24.569-10.343-25.475-23.715-.134-2.112-.298-4.172-.473-6.181-2.666-30.318-8.986-47.471-21.121-57.34-21.937-17.856-59.456-27.658-84.885-52.004-26.536-25.384-36.116-66.77-10.324-114.948 11.2-20.92 48.955-70.13 84.686-109.168 12.918-14.113 33.395-18.746 50.922-11.094 26.625 11.623 50.906 40.552 65.856 67.304 4.293 7.682 14.214 10.072 21.551 5.219 6.372-4.215 8.618-12.514 5.23-19.365-7.436-15.037-22.531-40.7-45.867-58.515-3.501-2.675-6.508-5.408-9.082-8.164-15.635-16.735-9.231-43.774 12.098-52.096 68.771-26.831 134.841 4.688 166.98 49.814 29.89 41.948 36.138 100.04 15.923 148.006z"
            fill="#fedd7a" />
        <g fill="#f5d269">
            <path
                d="m178.389 106.646c26.625 11.623 50.906 40.552 65.856 67.304 4.293 7.683 14.214 10.072 21.551 5.219 3.583-2.37 5.861-6.031 6.567-10-15.081-25.343-38.05-51.589-63.095-62.523-10.725-4.682-22.552-4.757-33.078-.882.737.275 1.471.564 2.199.882z" />
            <path
                d="m426.033 90.842c-26.451-37.141-75.889-65.055-130.898-58.816 42.228 4.798 78.636 28.791 100.02 58.816 29.89 41.949 36.138 100.041 15.923 148.006-25.938 61.543-70.547 80.117-113.684 98.073-32.247 13.424-65.596 27.3-79.44 60.637-5.795 13.949-7.411 34.16-7.359 57.989.012 8.311-3.962 15.69-10.106 20.356 4.307 3.264 9.67 5.193 15.448 5.193 14.091 0 25.557-11.435 25.536-25.548-.052-23.828 1.565-44.04 7.359-57.989 13.844-33.337 47.192-47.213 79.44-60.637 43.137-17.956 87.746-36.53 113.684-98.073 20.215-47.967 13.967-106.059-15.923-148.007z" />
        </g>
        <path
            d="m229.781 320.681c-19.713 17.839-44.333 34.993-70.576 30.793-37.33-5.974-69.132-58.584-54.081-95.131 5.58-13.55 30.83-21.279 43.296-28.969 15.439-9.523 19.655-18.242 37.728-16.738s35.911 11.315 44.476 27.315c9.128-2.378 10.004-16.778 10.163-26.217.617-36.802-16.168-34.266-18.639-54.94-1.583-13.243 10.32-21.902 22.819-17.209 12.025 4.515 26.923 17.607 35.534 29.612 2.776 3.87 8.861.855 7.515-3.715-4.7-15.956-13.359-40.303 5.01-50.143 17.697-9.48 18.48-51.67 45.288-36.453 32.62 18.516-8.234 43.109-2.534 61.177 9.246 29.306 33.57 6.974 52.878 28.528 15.192 16.959 16.163 45.729 2.544 69.735-45.929 80.969-123.737 48.253-161.421 82.355z"
            fill="#fdba91" />
        <g>
            <path
                d="m388.659 168.593c-19.308-21.554-43.632.778-52.878-28.528-5.7-18.068 35.154-42.66 2.534-61.177-11.617-6.595-18.346-2.406-23.683 5.226 18.332 17.736-14.908 39.536-9.729 55.95 9.246 29.306 33.57 6.974 52.878 28.528 15.192 16.959 16.163 45.729 2.544 69.735-45.931 80.966-123.738 48.25-161.422 82.353-13.579 12.289-29.488 24.251-46.651 29.133 2.289.727 4.61 1.286 6.953 1.661 26.243 4.199 50.863-12.954 70.576-30.794 37.684-34.102 115.492-1.386 161.422-82.353 13.619-24.004 12.648-52.774-2.544-69.734z"
                fill="#fc997d" />
        </g>
    </g>
</svg>