<svg height="512pt" viewBox="-85 0 512 512.02167" width="512pt" xmlns="http://www.w3.org/2000/svg">
    <path
        d="m340.761719 465.835938-160-458.667969c-3.007813-8.53125-17.152344-8.53125-20.140625 0l-160 458.667969c-1.128906 3.261718-.61718775 6.867187 1.367187 9.683593 2.003907 2.839844 5.246094 4.503907 8.703125 4.503907h320c3.457032 0 6.699219-1.664063 8.703125-4.503907 1.984375-2.816406 2.496094-6.421875 1.367188-9.683593zm0 0"
        fill="#2196f3" />
    <path
        d="m341.359375 469.355469c0-23.566407-76.410156-42.667969-170.667969-42.667969-94.257812 0-170.6679685 19.101562-170.6679685 42.667969 0 23.5625 76.4101565 42.667969 170.6679685 42.667969 94.257813 0 170.667969-19.105469 170.667969-42.667969zm0 0"
        fill="#64b5f6" />
    <path
        d="m10.5 480.855469c-5.890625 0-10.4765625-5.613281-10.4765625-11.5 0-4.460938 1.7500005-11.074219 10.1132815-17.132813 4.757812-3.476562 11.457031-2.367187 14.890625 2.371094 3.457031 4.757812 2.390625 11.433594-2.367188 14.890625-1.300781.9375-1.664062 1.492187-1.664062 1.492187-.023438 5.910157-4.609375 9.878907-10.496094 9.878907zm0 0" />
    <path
        d="m58.648438 457.171875c-4.992188 0-9.449219-3.519531-10.453126-8.59375-1.132812-5.78125 2.625-11.394531 8.40625-12.523437 7.015626-1.367188 14.65625-2.644532 22.804688-3.734376 5.84375-.746093 11.199219 3.308594 11.988281 9.152344.789063 5.84375-3.304687 11.199219-9.152343 11.988282-7.699219 1.046874-14.910157 2.21875-21.546876 3.542968-.683593.105469-1.363281.167969-2.046874.167969zm223.660156-.082031c-.664063 0-1.347656-.066406-2.050782-.195313-6.65625-1.277343-13.867187-2.453125-21.566406-3.496093-5.847656-.789063-9.941406-6.167969-9.152344-11.988282.789063-5.824218 6.078126-9.941406 11.988282-9.152344 8.148437 1.109376 15.765625 2.34375 22.785156 3.710938 5.78125 1.109375 9.558594 6.699219 8.449219 12.5-.960938 5.078125-5.441407 8.621094-10.453125 8.621094zm-156.78125-7.789063c-5.609375 0-10.304688-4.371093-10.644532-10.046875-.339843-5.886718 4.136719-10.921875 10.027344-11.265625 7.378906-.445312 14.996094-.765625 22.761719-.980469 6.039063.171876 10.796875 4.460938 10.964844 10.367188.171875 5.890625-4.457031 10.796875-10.367188 10.964844-7.550781.214844-14.953125.535156-22.121093.941406-.195313.019531-.40625.019531-.621094.019531zm89.878906-.019531c-.214844 0-.425781 0-.621094-.023438-7.167968-.402343-14.570312-.722656-22.121094-.917968-5.886718-.167969-10.539062-5.054688-10.367187-10.964844.171875-5.90625 5.417969-10.175781 10.964844-10.367188 7.765625.214844 15.382812.535157 22.761719.960938 5.867187.339844 10.367187 5.375 10.027343 11.261719-.339843 5.65625-5.035156 10.050781-10.644531 10.050781zm0 0" />
    <path
        d="m330.691406 480.023438c-5.546875 0-10.089844-4.226563-10.625-9.625-.234375-.082032-.597656-.359376-1.34375-.894532-4.777344-3.457031-5.824218-10.132812-2.367187-14.890625 3.433593-4.777343 10.132812-5.867187 14.890625-2.367187 8.363281 6.035156 10.113281 12.648437 10.113281 17.109375 0 5.886719-4.78125 10.667969-10.667969 10.667969zm0 0" />
    <path
        d="m170.691406 512.023438c-17.472656 0-170.6679685-1.195313-170.6679685-42.667969 0-5.886719 4.7812505-10.667969 10.6679685-10.667969 5.886719 0 10.667969 4.78125 10.667969 10.667969 4.710937 6.121093 55.335937 21.332031 149.332031 21.332031 93.992188 0 144.617188-15.210938 149.714844-22.976562 0-5.886719 4.589844-9.832032 10.476562-9.832032 5.886719-.023437 10.476563 5.589844 10.476563 11.476563 0 41.472656-153.195313 42.667969-170.667969 42.667969zm0 0" />
    <path
        d="m10.691406 480.023438c-1.175781 0-2.347656-.195313-3.519531-.597657-5.570313-1.941406-8.492187-8.023437-6.570313-13.589843l160-458.667969c1.941407-5.566407 8.082032-8.511719 13.589844-6.570313 5.566406 1.941406 8.488282 8.019532 6.570313 13.589844l-160 458.667969c-1.539063 4.414062-5.65625 7.167969-10.070313 7.167969zm0 0" />
    <path
        d="m330.691406 480.023438c-4.417968 0-8.535156-2.753907-10.070312-7.148438l-160-458.667969c-1.941406-5.566406 1.003906-11.648437 6.570312-13.589843 5.570313-1.941407 11.648438.984374 13.589844 6.574218l160 458.664063c1.941406 5.570312-1.003906 11.648437-6.570312 13.589843-1.171876.382813-2.347657.578126-3.519532.578126zm0 0" />
</svg>