<svg height="512pt" viewBox="-85 0 512 512.01331" width="512pt" xmlns="http://www.w3.org/2000/svg">
    <path
        d="m340.746094 465.828125-160-458.667969c-3.007813-8.535156-17.152344-8.535156-20.140625 0l-160 458.667969c-.402344 1.152344-.5976565 2.324219-.5976565 3.519531 0 41.472656 153.1953125 42.664063 170.6679685 42.664063 17.472657 0 170.667969-1.191407 170.667969-42.664063 0-1.195312-.191406-2.367187-.597656-3.519531zm0 0"
        fill="#2196f3" />
    <path
        d="m170.675781 512.011719c-17.449219 0-170.6679685-1.191407-170.6679685-42.664063 0-5.890625 4.7812495-10.667968 10.6679685-10.667968s10.667969 4.777343 10.667969 10.667968c4.714844 6.121094 55.335938 21.332032 149.332031 21.332032 93.996094 0 144.617188-15.210938 149.71875-22.976563 0-5.886719 4.585938-9.832031 10.472657-9.832031 5.890624 0 10.476562 5.585937 10.476562 11.476562 0 41.472656-153.21875 42.664063-170.667969 42.664063zm0 0" />
    <path
        d="m10.675781 480.011719c-1.171875 0-2.347656-.191407-3.519531-.597657-5.566406-1.9375-8.492188-8.019531-6.550781-13.585937l160-458.667969c1.941406-5.566406 8.023437-8.492187 13.589843-6.570312 5.570313 1.941406 8.492188 8.019531 6.550782 13.589844l-160 458.664062c-1.535156 4.417969-5.652344 7.167969-10.070313 7.167969zm0 0" />
    <path
        d="m330.675781 480.011719c-4.414062 0-8.53125-2.75-10.070312-7.144531l-160-458.667969c-1.960938-5.566407.984375-11.648438 6.550781-13.589844 5.609375-1.941406 11.667969.984375 13.589844 6.570313l160 458.667968c1.960937 5.566406-.980469 11.648438-6.550782 13.589844-1.171874.382812-2.347656.574219-3.519531.574219zm0 0" />
</svg>