<svg height="512pt" viewBox="-85 0 512 512.02167" width="512pt" xmlns="http://www.w3.org/2000/svg">
    <path
        d="m340.761719 465.835938-160-458.667969c-3.007813-8.53125-17.152344-8.53125-20.140625 0l-160 458.667969c-1.128906 3.261718-.61718775 6.867187 1.367187 9.683593 2.003907 2.839844 5.246094 4.503907 8.703125 4.503907h320c3.457032 0 6.699219-1.664063 8.703125-4.503907 1.984375-2.816406 2.496094-6.421875 1.367188-9.683593zm0 0"
        fill="#2196f3" />
    <path
        d="m341.359375 469.355469c0-23.566407-76.410156-42.667969-170.667969-42.667969-94.257812 0-170.6679685 19.101562-170.6679685 42.667969 0 23.5625 76.4101565 42.667969 170.6679685 42.667969 94.257813 0 170.667969-19.105469 170.667969-42.667969zm0 0"
        fill="#64b5f6" />
    <path
        d="m10.5 480.855469c-5.890625 0-10.4765625-5.613281-10.4765625-11.5 0-41.472657 153.1953125-42.667969 170.6679685-42.667969s170.667969 1.195312 170.667969 42.667969c0 5.886719-4.78125 10.667969-10.667969 10.667969-5.886718 0-10.667968-4.78125-10.667968-10.667969-4.714844-6.125-55.339844-21.332031-149.332032-21.332031-93.996094 0-144.621094 15.207031-149.71875 22.972656 0 5.910156-4.585937 9.859375-10.472656 9.859375zm0 0" />
    <path
        d="m170.691406 512.023438c-17.472656 0-170.6679685-1.195313-170.6679685-42.667969 0-5.886719 4.7812505-10.667969 10.6679685-10.667969 5.886719 0 10.667969 4.78125 10.667969 10.667969 4.710937 6.121093 55.335937 21.332031 149.332031 21.332031 93.992188 0 144.617188-15.210938 149.714844-22.976562 0-5.886719 4.589844-9.832032 10.476562-9.832032 5.886719-.023437 10.476563 5.589844 10.476563 11.476563 0 41.472656-153.195313 42.667969-170.667969 42.667969zm0 0" />
    <path
        d="m10.691406 480.023438c-1.175781 0-2.347656-.195313-3.519531-.597657-5.570313-1.941406-8.492187-8.023437-6.570313-13.589843l160-458.667969c1.941407-5.566407 8.042969-8.511719 13.589844-6.570313 5.566406 1.941406 8.488282 8.019532 6.570313 13.589844l-160 458.667969c-1.539063 4.414062-5.65625 7.167969-10.070313 7.167969zm0 0" />
    <path
        d="m330.691406 480.023438c-4.417968 0-8.535156-2.753907-10.070312-7.148438l-160-458.667969c-1.941406-5.566406 1.003906-11.648437 6.570312-13.589843 5.527344-1.941407 11.648438.984374 13.589844 6.574218l160 458.664063c1.941406 5.570312-1.003906 11.648437-6.570312 13.589843-1.171876.382813-2.347657.578126-3.519532.578126zm0 0" />
</svg>