<svg height="512pt" viewBox="-85 0 512 512" width="512pt" xmlns="http://www.w3.org/2000/svg">
    <path
        d="m330.667969 32h-320c-5.890625 0-10.667969 4.777344-10.667969 10.667969v426.664062c0 41.472657 153.195312 42.667969 170.667969 42.667969 17.46875 0 170.664062-1.195312 170.664062-42.667969v-426.664062c0-5.890625-4.777343-10.667969-10.664062-10.667969zm0 0"
        fill="#42a5f5" />
    <path
        d="m341.332031 42.667969c0-23.566407-76.410156-42.667969-170.664062-42.667969-94.257813 0-170.667969 19.101562-170.667969 42.667969 0 23.5625 76.410156 42.664062 170.667969 42.664062 94.253906 0 170.664062-19.101562 170.664062-42.664062zm0 0"
        fill="#2196f3" />
    <path
        d="m170.667969 85.332031c-17.453125 0-170.667969-1.195312-170.667969-42.664062 0-41.472657 153.214844-42.667969 170.667969-42.667969 17.449219 0 170.664062 1.195312 170.664062 42.667969 0 41.46875-153.214843 42.664062-170.664062 42.664062zm-148.074219-42.664062c10.386719 8.085937 60.351562 21.332031 148.074219 21.332031 87.722656 0 137.683593-13.246094 148.074219-21.332031-10.390626-8.085938-60.351563-21.335938-148.074219-21.335938-87.722657 0-137.6875 13.25-148.074219 21.335938zm297.789062 1.640625h.214844zm0 0" />
    <path
        d="m10.476562 480.832031c-5.890624 0-10.476562-5.609375-10.476562-11.5 0-4.457031 1.75-11.050781 10.089844-17.109375 4.757812-3.433594 11.414062-2.429687 14.890625 2.347656 3.457031 4.757813 2.410156 11.433594-2.347657 14.890626-1.300781.9375-1.664062 1.492187-1.664062 1.492187-.019531 5.910156-4.585938 9.878906-10.492188 9.878906zm0 0" />
    <path
        d="m58.625 457.152344c-4.972656 0-9.429688-3.519532-10.433594-8.597656-1.152344-5.78125 2.601563-11.390626 8.40625-12.523438 6.996094-1.363281 14.632813-2.644531 22.785156-3.734375 5.929688-.789063 11.199219 3.289063 11.988282 9.152344.789062 5.824219-3.285156 11.203125-9.132813 11.992187-7.699219 1.042969-14.910156 2.21875-21.546875 3.539063-.679687.109375-1.382812.171875-2.066406.171875zm223.679688-.085938c-.683594 0-1.34375-.0625-2.046876-.191406-6.65625-1.28125-13.867187-2.453125-21.589843-3.5-5.824219-.789062-9.921875-6.164062-9.132813-12.007812.769532-5.824219 6.039063-9.835938 11.988282-9.132813 8.128906 1.109375 15.746093 2.347656 22.742187 3.710937 5.78125 1.109376 9.558594 6.699219 8.449219 12.503907-.9375 5.074219-5.398438 8.617187-10.410156 8.617187zm-156.738282-7.785156c-5.628906 0-10.300781-4.375-10.644531-10.050781-.363281-5.886719 4.140625-10.921875 10.027344-11.261719 7.382812-.449219 14.976562-.769531 22.742187-.980469 5.910156.167969 10.816406 4.457031 10.984375 10.367188.171875 5.886719-4.476562 10.792969-10.34375 10.964843-7.554687.214844-14.957031.53125-22.125.9375-.234375.023438-.425781.023438-.640625.023438zm89.792969-.023438c-.191406 0-.40625 0-.597656-.019531-7.167969-.40625-14.570313-.726562-22.121094-.917969-5.886719-.171874-10.519531-5.054687-10.367187-10.964843.167968-5.78125 4.882812-10.367188 10.664062-10.367188h.300781c7.765625.210938 15.378907.53125 22.742188.957031 5.886719.34375 10.367187 5.378907 10.046875 11.265626-.34375 5.652343-5.058594 10.046874-10.667969 10.046874zm0 0" />
    <path
        d="m330.667969 480c-5.546875 0-10.113281-4.222656-10.625-9.621094.042969.019532-.554688-.339844-1.324219-.894531-4.777344-3.480469-5.800781-10.136719-2.34375-14.890625 3.476562-4.78125 10.152344-5.78125 14.890625-2.347656 8.320313 6.035156 10.066406 12.628906 10.066406 17.085937 0 5.890625-4.777343 10.667969-10.664062 10.667969zm0 0" />
    <path
        d="m170.667969 512c-17.453125 0-170.667969-1.195312-170.667969-42.667969 0-5.886719 4.777344-10.664062 10.667969-10.664062 5.886719 0 10.664062 4.777343 10.664062 10.664062 4.714844 6.125 55.339844 21.335938 149.335938 21.335938 93.992187 0 144.617187-15.210938 149.714843-22.976563 0-5.890625 4.585938-9.835937 10.476563-9.835937 5.886719 0 10.472656 5.589843 10.472656 11.476562 0 41.472657-153.214843 42.667969-170.664062 42.667969zm0 0" />
    <path
        d="m10.667969 480c-5.890625 0-10.667969-4.777344-10.667969-10.667969v-426.664062c0-5.890625 4.777344-10.667969 10.667969-10.667969 5.886719 0 10.664062 4.777344 10.664062 10.667969v426.664062c0 5.890625-4.777343 10.667969-10.664062 10.667969zm0 0" />
    <path
        d="m330.667969 480c-5.890625 0-10.667969-4.777344-10.667969-10.667969v-426.664062c0-5.890625 4.777344-10.667969 10.667969-10.667969 5.886719 0 10.664062 4.777344 10.664062 10.667969v426.664062c0 5.890625-4.777343 10.667969-10.664062 10.667969zm0 0" />
</svg>