<svg height="512pt" viewBox="-85 0 512 512" width="512pt" xmlns="http://www.w3.org/2000/svg">
    <path
        d="m330.667969 32h-320c-5.890625 0-10.667969 4.777344-10.667969 10.667969v426.664062c0 41.472657 153.195312 42.667969 170.667969 42.667969 17.46875 0 170.664062-1.195312 170.664062-42.667969v-426.664062c0-5.890625-4.777343-10.667969-10.664062-10.667969zm0 0"
        fill="#42a5f5" />
    <path
        d="m341.332031 42.667969c0-23.566407-76.410156-42.667969-170.664062-42.667969-94.257813 0-170.667969 19.101562-170.667969 42.667969 0 23.5625 76.410156 42.664062 170.667969 42.664062 94.253906 0 170.664062-19.101562 170.664062-42.664062zm0 0"
        fill="#2196f3" />
    <path
        d="m170.667969 85.332031c-17.472657 0-170.667969-1.195312-170.667969-42.664062 0-41.472657 153.195312-42.667969 170.667969-42.667969 17.46875 0 170.664062 1.195312 170.664062 42.667969 0 41.46875-153.195312 42.664062-170.664062 42.664062zm-148.074219-42.664062c10.386719 8.085937 60.351562 21.332031 148.074219 21.332031 87.722656 0 137.683593-13.246094 148.074219-21.332031-10.390626-8.085938-60.351563-21.335938-148.074219-21.335938-87.722657 0-137.6875 13.25-148.074219 21.335938zm297.789062 1.640625h.214844zm0 0" />
    <path
        d="m170.667969 512c-17.472657 0-170.667969-1.195312-170.667969-42.667969 0-5.886719 4.777344-10.664062 10.667969-10.664062 5.886719 0 10.664062 4.777343 10.664062 10.664062 4.714844 6.125 55.339844 21.335938 149.335938 21.335938 93.992187 0 144.617187-15.210938 149.714843-22.976563 0-5.890625 4.585938-9.835937 10.476563-9.835937 5.886719-.019531 10.472656 5.589843 10.472656 11.476562 0 41.472657-153.195312 42.667969-170.664062 42.667969zm0 0" />
    <path
        d="m10.667969 480c-5.890625 0-10.667969-4.777344-10.667969-10.667969v-426.664062c0-5.890625 4.777344-10.667969 10.667969-10.667969 5.886719 0 10.664062 4.777344 10.664062 10.667969v426.664062c0 5.890625-4.777343 10.667969-10.664062 10.667969zm0 0" />
    <path
        d="m330.667969 480c-5.890625 0-10.667969-4.777344-10.667969-10.667969v-426.664062c0-5.890625 4.777344-10.667969 10.667969-10.667969 5.886719 0 10.664062 4.777344 10.664062 10.667969v426.664062c0 5.890625-4.777343 10.667969-10.664062 10.667969zm0 0" />
</svg>