<svg height="512pt" viewBox="0 0 512.09481 512" width="512pt" xmlns="http://www.w3.org/2000/svg">
    <path
        d="m369.375 509.703125c-1.707031 1.492187-4.265625 2.34375-6.613281 2.34375-.425781 0-1.066407 0-1.492188-.210937l-288-42.667969c-.855469-.210938-1.707031-.425781-2.5625-.640625l89.386719-223.144532zm0 0"
        fill="#43a047" />
    <path
        d="m512.09375 245.382812c0 1.707032-.425781 3.414063-1.277344 5.117188l-138.667968 256c-.640626 1.28125-1.707032 2.347656-2.773438 3.203125l-209.28125-264.320313zm0 0"
        fill="#81c784" />
    <path
        d="m512.09375 245.382812h-352l133.121094-244.054687c1.066406.640625 1.921875 1.28125 2.773437 2.132813l213.332031 234.667968c1.707032 2.132813 2.773438 4.691406 2.773438 7.253906zm0 0"
        fill="#4caf50" />
    <path
        d="m293.214844 1.328125-133.121094 244.054687-159.144531-68.054687c.851562-2.132813 2.132812-3.839844 4.265625-5.121094l277.332031-170.664062c3.203125-1.921875 7.46875-1.921875 10.667969-.214844zm0 0"
        fill="#81c784" />
    <path
        d="m160.09375 245.382812-89.386719 223.144532c-3.199219-1.277344-5.546875-4.050782-6.398437-7.464844l-64-277.335938c-.640625-2.34375-.214844-4.476562.640625-6.398437zm0 0"
        fill="#4caf50" />
    <path
        d="m362.761719 512.046875c-.511719 0-1.046875-.042969-1.558594-.105469l-288-42.667968c-4.351563-.636719-7.851563-3.882813-8.832031-8.148438l-64-277.332031c-1.023438-4.460938.898437-9.089844 4.800781-11.476563l277.332031-170.667968c4.375-2.667969 10.027344-1.878907 13.484375 1.898437l213.332031 234.667969c3.050782 3.347656 3.648438 8.277344 1.472657 12.265625l-138.667969 256c-1.855469 3.457031-5.480469 5.566406-9.363281 5.566406zm-279.230469-62.824219 273.40625 40.511719 131.519531-242.773437-202.304687-222.527344-263.273438 162.027344zm0 0" />
    <path
        d="m74.761719 469.382812c-1.324219 0-2.667969-.234374-3.96875-.769531-5.460938-2.195312-8.128907-8.40625-5.953125-13.867187l81.472656-203.667969-139.753906-59.90625c-5.417969-2.300781-7.914063-8.574219-5.589844-13.992187 2.324219-5.441407 8.640625-7.957032 13.996094-5.609376l149.332031 64c5.332031 2.28125 7.851563 8.382813 5.71875 13.757813l-85.335937 213.332031c-1.683594 4.183594-5.695313 6.722656-9.917969 6.722656zm0 0" />
    <path
        d="m362.761719 512.046875c-3.15625 0-6.273438-1.386719-8.382813-4.03125l-202.667968-256c-2.667969-3.347656-3.050782-7.976563-1.003907-11.734375l128-234.664062c2.839844-5.183594 9.324219-7.082032 14.464844-4.265626 5.183594 2.8125 7.082031 9.300782 4.265625 14.460938l-124.628906 228.480469 198.292968 250.453125c3.648438 4.628906 2.882813 11.328125-1.75 15-1.917968 1.554687-4.265624 2.300781-6.589843 2.300781zm0 0" />
    <path
        d="m501.429688 256.046875h-341.335938c-5.886719 0-10.664062-4.777344-10.664062-10.664063 0-5.890624 4.777343-10.667968 10.664062-10.667968h341.335938c5.886718 0 10.664062 4.777344 10.664062 10.667968 0 5.886719-4.777344 10.664063-10.664062 10.664063zm0 0" />
</svg>