<svg height="512pt" viewBox="0 0 512.09481 512" width="512pt" xmlns="http://www.w3.org/2000/svg">
    <path
        d="m369.375 509.703125c-1.707031 1.492187-4.265625 2.347656-6.613281 2.347656-.425781 0-1.066407 0-1.492188-.214843l-288-42.667969c-.855469-.210938-1.707031-.425781-2.5625-.636719l89.386719-223.148438zm0 0"
        fill="#43a047" />
    <path
        d="m512.09375 245.382812c0 1.707032-.425781 3.414063-1.277344 5.121094l-138.667968 256c-.640626 1.277344-1.707032 2.347656-2.773438 3.199219l-209.28125-264.320313zm0 0"
        fill="#81c784" />
    <path
        d="m512.09375 245.382812h-352l133.121094-244.054687c1.066406.640625 1.921875 1.28125 2.773437 2.136719l213.332031 234.664062c1.707032 2.132813 2.773438 4.695313 2.773438 7.253906zm0 0"
        fill="#4caf50" />
    <path
        d="m293.214844 1.328125-133.121094 244.054687-159.144531-68.054687c.851562-2.132813 2.132812-3.839844 4.265625-5.117187l277.332031-170.667969c3.203125-1.921875 7.46875-1.921875 10.667969-.214844zm0 0"
        fill="#81c784" />
    <path
        d="m160.09375 245.382812-89.386719 223.148438c-3.199219-1.28125-5.546875-4.054688-6.398437-7.46875l-64-277.332031c-.640625-2.347657-.214844-4.480469.640625-6.402344zm0 0"
        fill="#4caf50" />
    <path
        d="m362.761719 512.050781c-.511719 0-1.046875-.042969-1.558594-.109375l-288-42.664062c-4.351563-.640625-7.851563-3.882813-8.832031-8.148438l-64-277.335937c-1.023438-4.457031.898437-9.085938 4.800781-11.476563l277.332031-170.667968c4.394532-2.664063 10.027344-1.875 13.484375 1.898437l213.332031 234.667969c3.050782 3.347656 3.648438 8.277344 1.472657 12.265625l-138.667969 256c-1.855469 3.457031-5.480469 5.570312-9.363281 5.570312zm-279.230469-62.828125 273.40625 40.511719 131.519531-242.773437-202.304687-222.527344-263.273438 162.027344zm0 0" />
    <path
        d="m74.761719 469.382812c-1.324219 0-2.667969-.234374-3.96875-.769531-5.460938-2.195312-8.128907-8.402343-5.953125-13.863281l81.472656-203.671875-139.753906-59.902344c-5.417969-2.304687-7.914063-8.578125-5.589844-13.996093 2.324219-5.4375 8.621094-7.957032 13.996094-5.609376l149.332031 64c5.332031 2.28125 7.851563 8.382813 5.71875 13.757813l-85.335937 213.335937c-1.683594 4.179688-5.695313 6.71875-9.917969 6.71875zm0 0" />
    <path
        d="m362.761719 512.050781c-3.15625 0-6.273438-1.386719-8.382813-4.03125l-202.667968-256c-2.667969-3.351562-3.050782-7.980469-1.003907-11.734375l128-234.667968c2.816407-5.183594 9.34375-7.082032 14.464844-4.265626 5.183594 2.816407 7.082031 9.300782 4.265625 14.464844l-124.628906 228.480469 198.292968 250.453125c3.648438 4.628906 2.882813 11.328125-1.75 14.996094-1.917968 1.558594-4.265624 2.304687-6.589843 2.304687zm0 0" />
    <path
        d="m501.429688 256.050781h-341.335938c-5.886719 0-10.664062-4.78125-10.664062-10.667969 0-5.886718 4.777343-10.667968 10.664062-10.667968h341.335938c5.886718 0 10.664062 4.78125 10.664062 10.667968 0 5.886719-4.777344 10.667969-10.664062 10.667969zm0 0" />
    <path
        d="m501.429688 256.050781c-1.261719 0-2.519532-.214843-3.757813-.683593l-170.664063-64c-3.285156-1.238282-5.761718-4.011719-6.59375-7.402344l-42.664062-170.667969c-1.429688-5.714844 2.046875-11.496094 7.761719-12.925781 5.699219-1.429688 11.5 2.023437 12.929687 7.765625l41.324219 165.226562 165.417969 62.035157c5.503906 2.070312 8.296875 8.214843 6.230468 13.738281-1.601562 4.269531-5.675781 6.914062-9.984374 6.914062zm0 0" />
    <path
        d="m362.761719 512.050781c-5.417969 0-10.046875-4.097656-10.601563-9.601562l-31.0625-310.398438h-310.335937c-5.886719 0-10.667969-4.78125-10.667969-10.667969 0-5.886718 4.78125-10.667968 10.667969-10.667968h320c5.484375 0 10.070312 4.160156 10.625 9.601562l32 320c.574219 5.867188-3.691407 11.09375-9.558594 11.667969-.363281.042969-.726563.066406-1.066406.066406zm0 0" />
    <path
        d="m74.761719 469.382812c-2.601563 0-5.183594-.9375-7.230469-2.835937-4.332031-3.992187-4.589844-10.730469-.597656-15.082031l256-277.335938c3.988281-4.308594 10.730468-4.585937 15.082031-.597656 4.328125 3.992188 4.585937 10.730469.597656 15.082031l-256 277.335938c-2.113281 2.28125-4.972656 3.433593-7.851562 3.433593zm0 0" />
</svg>