<svg height="512pt" viewBox="0 0 512.09481 512" width="512pt" xmlns="http://www.w3.org/2000/svg">
    <path
        d="m369.375 509.703125c-1.683594 1.492187-4.265625 2.347656-6.613281 2.347656l-1.492188-.214843-288-42.667969-2.5625-.636719 89.386719-223.148438zm0 0"
        fill="#43a047" />
    <path
        d="m512.09375 245.382812-1.277344 5.121094-138.667968 256-2.773438 3.199219-209.28125-264.320313zm0 0"
        fill="#81c784" />
    <path
        d="m512.09375 245.382812h-352l133.121094-244.054687 2.773437 2.136719 213.332031 234.664062c1.707032 2.132813 2.773438 4.695313 2.773438 7.253906zm0 0"
        fill="#4caf50" />
    <path
        d="m293.214844 1.328125-133.121094 244.054687-159.144531-68.054687c.851562-2.132813 2.132812-3.839844 4.265625-5.117187l277.332031-170.667969c3.203125-1.921875 7.46875-1.921875 10.667969-.214844zm0 0"
        fill="#81c784" />
    <path
        d="m160.09375 245.382812-89.386719 223.148438c-3.175781-1.28125-5.546875-4.054688-6.398437-7.46875l-64-277.332031c-.640625-2.347657-.214844-4.480469.640625-6.402344zm0 0"
        fill="#4caf50" />
    <path
        d="m362.761719 512.050781c-.511719 0-1.046875-.042969-1.558594-.109375l-288-42.664062c-4.351563-.640625-7.851563-3.882813-8.832031-8.148438l-64-277.335937c-1.023438-4.457031.898437-9.085938 4.800781-11.476563l277.332031-170.667968c4.375-2.664063 10.027344-1.875 13.484375 1.898437l213.332031 234.667969c3.050782 3.347656 3.648438 8.277344 1.472657 12.265625l-138.667969 256c-1.855469 3.457031-5.480469 5.570312-9.363281 5.570312zm-279.230469-62.828125 273.40625 40.511719 131.519531-242.773437-202.304687-222.527344-263.273438 162.027344zm0 0" />
    <path
        d="m74.761719 469.382812c-1.324219 0-2.667969-.234374-3.96875-.769531-5.460938-2.195312-8.128907-8.402343-5.953125-13.863281l81.472656-203.671875-139.753906-59.902344c-5.417969-2.304687-7.914063-8.578125-5.589844-13.996093 2.304688-5.4375 8.621094-7.957032 13.996094-5.609376l149.332031 64c5.332031 2.28125 7.851563 8.382813 5.71875 13.757813l-85.335937 213.335937c-1.683594 4.179688-5.695313 6.71875-9.917969 6.71875zm0 0" />
    <path
        d="m362.761719 512.050781c-3.15625 0-6.273438-1.386719-8.382813-4.03125l-202.667968-256c-2.667969-3.351562-3.050782-7.980469-1.003907-11.734375l128-234.667968c2.816407-5.183594 9.34375-7.082032 14.464844-4.265626 5.183594 2.816407 7.082031 9.300782 4.265625 14.464844l-124.628906 228.480469 198.292968 250.453125c3.648438 4.628906 2.882813 11.328125-1.75 14.996094-1.917968 1.558594-4.265624 2.304687-6.589843 2.304687zm0 0" />
    <path
        d="m501.429688 256.050781h-341.335938c-5.886719 0-10.664062-4.78125-10.664062-10.667969 0-5.886718 4.777343-10.667968 10.664062-10.667968h341.335938c5.886718 0 10.664062 4.78125 10.664062 10.667968 0 5.886719-4.777344 10.667969-10.664062 10.667969zm0 0" />
    <path
        d="m290.675781 31.730469c-4.777343 0-9.128906-3.222657-10.324219-8.085938l-2.582031-10.347656c-1.429687-5.714844 2.046875-11.496094 7.765625-12.925781 5.652344-1.429688 11.5 2.023437 12.925782 7.765625l2.582031 10.34375c1.429687 5.71875-2.046875 11.5-7.765625 12.929687-.875.210938-1.746094.320313-2.601563.320313zm0 0" />
    <path
        d="m318.792969 144.199219c-4.777344 0-9.128907-3.222657-10.324219-8.085938l-4.695312-18.730469c-1.429688-5.71875 2.050781-11.5 7.765624-12.929687 5.695313-1.46875 11.5 2.027344 12.929688 7.765625l4.691406 18.730469c1.429688 5.71875-2.046875 11.5-7.765625 12.929687-.875.214844-1.746093.320313-2.601562.320313zm-14.058594-56.214844c-4.777344 0-9.128906-3.21875-10.324219-8.085937l-4.695312-18.75c-1.429688-5.71875 2.050781-11.5 7.765625-12.929688 5.65625-1.449219 11.5 2.050781 12.929687 7.765625l4.691406 18.753906c1.429688 5.714844-2.046874 11.5-7.765624 12.925781-.875.214844-1.746094.320313-2.601563.320313zm0 0" />
    <path
        d="m340.746094 195.804688c-1.257813 0-2.519532-.214844-3.753906-.683594l-9.984376-3.753906c-3.285156-1.238282-5.761718-4.011719-6.59375-7.402344l-2.582031-10.347656c-1.429687-5.71875 2.050781-11.5 7.765625-12.925782 5.71875-1.429687 11.5 2.023438 12.929688 7.761719l1.238281 4.910156 4.753906 1.769531c5.507813 2.070313 8.300781 8.214844 6.230469 13.738282-1.621094 4.289062-5.695312 6.933594-10.003906 6.933594zm0 0" />
    <path
        d="m453.769531 238.171875c-1.257812 0-2.515625-.210937-3.753906-.683594l-18.839844-7.058593c-5.503906-2.070313-8.296875-8.214844-6.226562-13.738282 2.066406-5.527344 8.210937-8.277344 13.738281-6.230468l18.835938 7.0625c5.503906 2.066406 8.300781 8.210937 6.230468 13.738281-1.601562 4.285156-5.675781 6.910156-9.984375 6.910156zm-56.511719-21.183594c-1.257812 0-2.519531-.214843-3.753906-.683593l-18.839844-7.058594c-5.503906-2.070313-8.296874-8.214844-6.226562-13.742188 2.066406-5.523437 8.210938-8.277344 13.738281-6.226562l18.835938 7.058594c5.503906 2.070312 8.300781 8.214843 6.230469 13.742187-1.601563 4.265625-5.675782 6.910156-9.984376 6.910156zm0 0" />
    <path
        d="m501.429688 256.050781c-1.261719 0-2.519532-.214843-3.757813-.683593l-9.980469-3.753907c-5.507812-2.070312-8.300781-8.214843-6.230468-13.738281 2.070312-5.527344 8.210937-8.277344 13.738281-6.230469l9.984375 3.753907c5.503906 2.070312 8.296875 8.214843 6.230468 13.738281-1.601562 4.269531-5.675781 6.914062-9.984374 6.914062zm0 0" />
    <path
        d="m362.761719 512.050781c-5.417969 0-10.046875-4.097656-10.601563-9.601562l-1.066406-10.625c-.578125-5.863281 3.6875-11.09375 9.554688-11.667969 6.015624-.40625 11.09375 3.691406 11.671874 9.558594l1.066407 10.621094c.574219 5.867187-3.691407 11.09375-9.558594 11.671874-.363281.019532-.726563.042969-1.066406.042969zm0 0" />
    <path
        d="m357.429688 458.757812c-5.421876 0-10.050782-4.09375-10.605469-9.597656l-2.132813-21.335937c-.574218-5.863281 3.691406-11.09375 9.558594-11.667969 5.972656-.363281 11.09375 3.691406 11.667969 9.558594l2.132812 21.332031c.578125 5.867187-3.6875 11.09375-9.554687 11.667969-.363282.023437-.726563.042968-1.066406.042968zm-6.402344-64.019531c-5.417969 0-10.046875-4.097656-10.601563-9.601562l-2.132812-21.332031c-.578125-5.867188 3.691406-11.09375 9.554687-11.667969 6.082032-.492188 11.09375 3.6875 11.671875 9.554687l2.132813 21.335938c.574218 5.863281-3.691406 11.089844-9.558594 11.667968-.363281.019532-.722656.042969-1.066406.042969zm-6.421875-64.023437c-5.417969 0-10.046875-4.09375-10.601563-9.597656l-2.132812-21.335938c-.578125-5.863281 3.691406-11.089844 9.558594-11.667969 6.035156-.46875 11.089843 3.691407 11.667968 9.558594l2.132813 21.332031c.578125 5.867188-3.691407 11.09375-9.558594 11.667969-.339844.023437-.703125.042969-1.066406.042969zm-6.378907-64.019532c-5.417968 0-10.046874-4.097656-10.601562-9.601562l-2.132812-21.332031c-.574219-5.867188 3.691406-11.09375 9.558593-11.667969 5.972657-.449219 11.09375 3.6875 11.667969 9.554688l2.132812 21.335937c.578126 5.867187-3.691406 11.09375-9.558593 11.667969-.359375.019531-.722657.042968-1.066407.042968zm0 0" />
    <path
        d="m331.808594 202.671875c-5.421875 0-10.050782-4.09375-10.605469-9.597656l-1.109375-1.023438c-5.886719 0-10.664062-4.78125-10.664062-10.667969 0-5.886718 4.777343-10.667968 10.664062-10.667968h10.667969c5.484375 0 10.070312 4.160156 10.625 9.601562l1.066406 10.625c.574219 5.867188-3.691406 11.09375-9.558594 11.667969-.363281.042969-.726562.0625-1.085937.0625zm0 0" />
    <path
        d="m277.429688 192.050781h-21.335938c-5.886719 0-10.664062-4.78125-10.664062-10.667969 0-5.886718 4.777343-10.667968 10.664062-10.667968h21.335938c5.886718 0 10.664062 4.78125 10.664062 10.667968 0 5.886719-4.777344 10.667969-10.664062 10.667969zm-64 0h-21.335938c-5.886719 0-10.664062-4.78125-10.664062-10.667969 0-5.886718 4.777343-10.667968 10.664062-10.667968h21.335938c5.886718 0 10.664062 4.78125 10.664062 10.667968 0 5.886719-4.777344 10.667969-10.664062 10.667969zm-64 0h-21.335938c-5.886719 0-10.664062-4.78125-10.664062-10.667969 0-5.886718 4.777343-10.667968 10.664062-10.667968h21.335938c5.886718 0 10.664062 4.78125 10.664062 10.667968 0 5.886719-4.777344 10.667969-10.664062 10.667969zm-64 0h-21.335938c-5.886719 0-10.664062-4.78125-10.664062-10.667969 0-5.886718 4.777343-10.667968 10.664062-10.667968h21.335938c5.886718 0 10.664062 4.78125 10.664062 10.667968 0 5.886719-4.777344 10.667969-10.664062 10.667969zm0 0" />
    <path
        d="m21.429688 192.050781h-10.667969c-5.886719 0-10.667969-4.78125-10.667969-10.667969 0-5.886718 4.78125-10.667968 10.667969-10.667968h10.667969c5.886718 0 10.664062 4.78125 10.664062 10.667968 0 5.886719-4.777344 10.667969-10.664062 10.667969zm0 0" />
    <path
        d="m323.53125 199.878906c-2.605469 0-5.1875-.9375-7.234375-2.835937-4.328125-4.011719-4.585937-10.753907-.597656-15.082031l7.234375-7.832032c4.007812-4.351562 10.75-4.605468 15.082031-.597656 4.328125 4.011719 4.585937 10.753906.597656 15.082031l-7.234375 7.832031c-2.132812 2.28125-4.992187 3.433594-7.847656 3.433594zm0 0" />
    <path
        d="m110.410156 430.75c-2.601562 0-5.183594-.941406-7.234375-2.839844-4.328125-3.988281-4.585937-10.730468-.59375-15.082031l14.207031-15.382813c3.988282-4.351562 10.75-4.585937 15.082032-.59375 4.332031 3.988282 4.585937 10.730469.597656 15.082032l-14.207031 15.378906c-2.136719 2.285156-4.992188 3.4375-7.851563 3.4375zm42.625-46.167969c-2.605468 0-5.1875-.9375-7.234375-2.816406-4.328125-4.007813-4.605469-10.75-.617187-15.082031l14.207031-15.402344c3.988281-4.332031 10.773437-4.585938 15.082031-.617188 4.332032 4.007813 4.609375 10.75.621094 15.082032l-14.210938 15.402344c-2.109374 2.28125-4.96875 3.433593-7.847656 3.433593zm42.621094-46.164062c-2.601562 0-5.183594-.9375-7.230469-2.816407-4.332031-4.011718-4.609375-10.75-.617187-15.082031l14.207031-15.402343c4.011719-4.351563 10.75-4.585938 15.082031-.621094 4.332032 4.011718 4.609375 10.753906.617188 15.085937l-14.207032 15.402344c-2.113281 2.28125-4.96875 3.433594-7.851562 3.433594zm42.625-46.1875c-2.601562 0-5.183594-.9375-7.230469-2.835938-4.332031-3.988281-4.589843-10.730469-.597656-15.082031l14.207031-15.382812c4.011719-4.332032 10.730469-4.585938 15.082032-.597657 4.332031 3.988281 4.585937 10.730469.597656 15.082031l-14.207032 15.382813c-2.113281 2.28125-4.992187 3.433594-7.851562 3.433594zm42.625-46.164063c-2.601562 0-5.183594-.9375-7.234375-2.816406-4.328125-4.011719-4.605469-10.753906-.617187-15.082031l14.207031-15.402344c3.992187-4.351563 10.773437-4.589844 15.082031-.621094 4.332031 4.011719 4.609375 10.753907.621094 15.082031l-14.207032 15.40625c-2.113281 2.28125-4.972656 3.433594-7.851562 3.433594zm0 0" />
    <path
        d="m74.761719 469.382812c-2.601563 0-5.183594-.9375-7.230469-2.835937-4.332031-4.011719-4.589844-10.753906-.597656-15.082031l7.230468-7.832032c4.011719-4.328124 10.753907-4.605468 15.082032-.597656 4.332031 4.011719 4.585937 10.753906.597656 15.082032l-7.230469 7.832031c-2.113281 2.28125-4.992187 3.433593-7.851562 3.433593zm0 0" />
</svg>