<svg height="512pt" viewBox="0 -21 512.01956 512" width="512pt" xmlns="http://www.w3.org/2000/svg">
    <path
        d="m256.003906 96.011719-117.332031 213.332031-137.171875-80 128-224c.210938-.214844.425781-.640625.636719-.855469zm0 0"
        fill="#4dd0e1" />
    <path
        d="m510.511719 229.34375-137.171875 80-117.335938-213.332031 125.867188-91.523438c.214844.214844.425781.640625.640625.855469zm0 0"
        fill="#4dd0e1" />
    <path d="m373.339844 309.34375h-234.667969l117.332031-213.332031zm0 0" fill="#00bcd4" />
    <path
        d="m138.671875 309.34375v160c-3.839844 0-7.464844-2.132812-9.171875-5.332031l-128-224c-1.921875-3.414063-1.921875-7.253907 0-10.667969zm0 0"
        fill="#26c6da" />
    <path
        d="m510.511719 240.011719-128 224c-1.707031 3.199219-5.332031 5.332031-9.171875 5.332031v-160l137.171875-80c1.921875 3.414062 1.921875 7.253906 0 10.667969zm0 0"
        fill="#26c6da" />
    <path d="m138.671875 309.34375h234.667969v160h-234.667969zm0 0" fill="#4dd0e1" />
    <path
        d="m381.871094 4.488281-125.867188 91.523438-125.867187-91.523438c1.707031-2.773437 5.121093-4.4765622 8.535156-4.4765622h234.667969c3.414062 0 6.824218 1.7031252 8.53125 4.4765622zm0 0"
        fill="#00acc1" />
    <path
        d="m373.339844 469.34375h-234.667969c-3.839844 0-7.359375-2.046875-9.28125-5.375l-128-224c-1.855469-3.285156-1.855469-7.296875 0-10.582031l128-224c1.921875-3.328125 5.441406-5.3750002 9.28125-5.3750002h234.667969c3.839844 0 7.359375 2.0468752 9.277344 5.3750002l128 224c1.859374 3.285156 1.859374 7.296875 0 10.582031l-128 224c-1.917969 3.328125-5.4375 5.375-9.277344 5.375zm-228.480469-21.332031h222.292969l121.898437-213.335938-121.898437-213.332031h-222.292969l-121.898437 213.332031zm0 0" />
    <path
        d="m138.671875 320.011719c-1.75 0-3.5-.429688-5.140625-1.324219-5.164062-2.835938-7.039062-9.324219-4.203125-14.484375l117.332031-213.335937c2.882813-5.183594 9.324219-7.015626 14.507813-4.203126 5.164062 2.839844 7.039062 9.324219 4.203125 14.488282l-117.332032 213.332031c-1.964843 3.519531-5.613281 5.527344-9.367187 5.527344zm0 0" />
    <path
        d="m373.339844 320.011719h-234.667969c-1.898437 0-3.753906-.492188-5.375-1.453125l-128-74.667969c-5.078125-2.964844-6.804687-9.492187-3.839844-14.589844 2.964844-5.097656 9.511719-6.804687 14.589844-3.839843l125.503906 73.214843h228.90625l125.503907-73.214843c5.035156-2.964844 11.605468-1.257813 14.59375 3.839843 2.988281 5.097657 1.257812 11.625-3.839844 14.589844l-128 74.667969c-1.621094.960937-3.476563 1.453125-5.375 1.453125zm0 0" />
    <path
        d="m373.339844 469.34375c-5.890625 0-10.667969-4.78125-10.667969-10.667969v-146.601562l-114.878906-208.855469-115.394531-83.921875c-4.777344-3.457031-5.800782-10.136719-2.34375-14.890625 3.453124-4.800781 10.175781-5.78125 14.890624-2.347656l117.332032 85.332031c1.28125.917969 2.304687 2.113281 3.09375 3.5l117.332031 213.332031c.855469 1.558594 1.300781 3.328125 1.300781 5.121094v149.332031c0 5.886719-4.777344 10.667969-10.664062 10.667969zm0 0" />
    <path
        d="m138.671875 469.34375c-5.886719 0-10.667969-4.78125-10.667969-10.667969v-149.332031c0-5.886719 4.78125-10.667969 10.667969-10.667969s10.667969 4.78125 10.667969 10.667969v149.332031c0 5.886719-4.78125 10.667969-10.667969 10.667969zm0 0" />
    <path
        d="m256.003906 106.675781c-3.285156 0-6.546875-1.515625-8.617187-4.394531-3.457031-4.757812-2.410157-11.433594 2.347656-14.890625l117.332031-85.332031c4.757813-3.433594 11.433594-2.433594 14.890625 2.347656 3.457031 4.753906 2.410157 11.433594-2.347656 14.890625l-117.332031 85.332031c-1.898438 1.386719-4.074219 2.046875-6.273438 2.046875zm0 0" />
</svg>