<svg height="512pt" viewBox="0 0 512 512.04088" width="512pt" xmlns="http://www.w3.org/2000/svg">
    <path
        d="m488.554688 400.894531-2.347657 2.347657-117.332031 85.332031-4.691406 2.132812-160 21.332031h-1.496094l-3.625-.851562 35.625-95.148438 170.667969-74.664062zm0 0"
        fill="#66bb6a" />
    <path
        d="m512.023438 225.320312-21.335938 170.667969c-.210938 1.941407-.851562 3.414063-2.132812 4.925781l-83.199219-59.539062-10.667969-181.335938 71.46875-71.464843 2.558594 4.03125 42.667968 128zm0 0"
        fill="#4caf50" />
    <path
        d="m466.15625 88.574219-71.46875 71.464843-181.332031-42.664062-46.933594-105.601562 3.414063-1.066407 149.332031-10.6679685c2.347656-.2109375 4.480469.4296875 6.402343 1.4960935l138.664063 85.332032zm0 0"
        fill="#66bb6a" />
    <path
        d="m213.355469 117.375-96 149.332031h-117.3320315l.4257815-2.773437 42.667969-160c.636718-2.347656 1.917968-4.480469 4.050781-5.757813l117.335937-85.335937 1.917969-1.066406zm0 0"
        fill="#43a047" />
    <path
        d="m405.355469 341.375-170.667969 74.664062-117.332031-149.332031 96-149.332031 181.332031 42.664062zm0 0"
        fill="#81c784" />
    <path
        d="m234.6875 416.039062-35.625 95.148438-1.921875-.640625-138.664063-85.332031c-2.15625-1.28125-3.628906-3.179688-4.480468-5.546875l-53.332032-149.332031-.6406245-3.628907h117.3320315zm0 0"
        fill="#4caf50" />
    <path
        d="m202.6875 512.039062c-1.960938 0-3.902344-.53125-5.589844-1.578124l-138.664062-85.332032c-2.089844-1.28125-3.648438-3.199218-4.460938-5.503906l-53.332031-149.332031c-.7265625-2.027344-.808594-4.246094-.277344-6.335938l42.667969-160c.640625-2.371093 2.066406-4.4375 4.03125-5.867187l117.332031-85.335938c1.601563-1.171875 3.519531-1.875 5.527344-2.003906l149.332031-10.6679688c2.242188-.1679687 4.4375.3867188 6.335938 1.5585938l138.667968 85.332031c2.152344 1.324219 3.753907 3.328125 4.542969 5.71875l42.667969 128c.488281 1.515625.660156 3.113282.445312 4.695313l-21.332031 170.664062c-.382812 2.921875-1.917969 5.570313-4.308593 7.296875l-117.332032 85.332032c-1.429687 1.046874-3.117187 1.730468-4.867187 1.941406l-160 21.335937c-.445313.0625-.914063.082031-1.386719.082031zm-129.875-103.101562 132.222656 81.363281 153.558594-20.480469 111.402344-81.023437 20.480468-163.6875-40.683593-122.027344-132.4375-81.496093-142.847657 10.21875-111.828124 81.304687-40.832032 153.128906zm0 0" />
    <path
        d="m234.6875 426.707031c-3.175781 0-6.3125-1.429687-8.402344-4.074219l-117.335937-149.332031c-2.792969-3.5625-3.050781-8.535156-.574219-12.375l96-149.332031c2.453125-3.796875 6.996094-5.632812 11.414062-4.609375l181.332032 42.667969c4.609375 1.085937 7.9375 5.054687 8.214844 9.769531l10.664062 181.332031c.277344 4.460938-2.261719 8.597656-6.378906 10.390625l-170.664063 74.667969c-1.367187.597656-2.839843.894531-4.269531.894531zm-104.253906-160.617187 107.539062 136.875 156.289063-68.375-9.769531-165.972656-166.25-39.105469zm0 0" />
    <path
        d="m202.6875 512.039062c-1.257812 0-2.515625-.210937-3.753906-.679687-5.523438-2.070313-8.320313-8.214844-6.230469-13.738281l32-85.335938c2.070313-5.523437 8.277344-8.277344 13.742187-6.226562 5.523438 2.066406 8.316407 8.210937 6.226563 13.738281l-32 85.332031c-1.597656 4.265625-5.671875 6.910156-9.984375 6.910156zm0 0" />
    <path
        d="m480.023438 405.375c-2.15625 0-4.308594-.640625-6.210938-1.984375l-74.664062-53.332031c-4.800782-3.414063-5.890626-10.09375-2.476563-14.871094 3.4375-4.800781 10.089844-5.910156 14.890625-2.476562l74.667969 53.335937c4.800781 3.414063 5.886719 10.089844 2.472656 14.867187-2.066406 2.902344-5.375 4.460938-8.679687 4.460938zm0 0" />
    <path
        d="m394.6875 170.707031c-2.730469 0-5.460938-1.042969-7.550781-3.113281-4.160157-4.160156-4.160157-10.921875 0-15.082031l64-64c4.160156-4.160157 10.921875-4.160157 15.082031 0 4.160156 4.160156 4.160156 10.921875 0 15.082031l-64 64c-2.070312 2.070312-4.800781 3.113281-7.53125 3.113281zm0 0" />
    <path
        d="m213.355469 128.039062c-4.074219 0-7.980469-2.34375-9.75-6.335937l-42.664063-96c-2.390625-5.375.039063-11.6875 5.417969-14.078125 5.375-2.347656 11.691406.019531 14.078125 5.417969l42.667969 96c2.390625 5.375-.042969 11.691406-5.417969 14.082031-1.410156.617188-2.882812.914062-4.332031.914062zm0 0" />
    <path
        d="m117.355469 277.375h-106.667969c-5.886719 0-10.6640625-4.78125-10.6640625-10.667969s4.7773435-10.667969 10.6640625-10.667969h106.667969c5.886719 0 10.667969 4.78125 10.667969 10.667969s-4.78125 10.667969-10.667969 10.667969zm0 0" />
    <path
        d="m341.355469 384.039062c-.8125 0-1.621094-.082031-2.453125-.277343l-10.367188-2.453125c-5.738281-1.34375-9.28125-7.101563-7.914062-12.839844 1.320312-5.71875 6.867187-9.28125 12.839844-7.9375l3.03125.726562 1.683593-2.625c3.179688-4.96875 9.773438-6.355468 14.742188-3.199218 4.949219 3.179687 6.398437 9.769531 3.199219 14.742187l-5.78125 8.957031c-2.003907 3.117188-5.417969 4.90625-8.980469 4.90625zm0 0" />
    <path
        d="m368.234375 342.226562c-1.984375 0-3.988281-.53125-5.78125-1.707031-4.949219-3.175781-6.398437-9.769531-3.199219-14.738281l10.558594-16.429688c3.179688-4.96875 9.773438-6.378906 14.742188-3.199218 4.949218 3.179687 6.402343 9.769531 3.199218 14.742187l-10.558594 16.425781c-2.027343 3.15625-5.460937 4.90625-8.960937 4.90625zm31.660156-49.277343c-1.984375 0-3.988281-.535157-5.78125-1.707031-4.949219-3.179688-6.398437-9.773438-3.199219-14.742188l10.558594-16.425781c3.179688-4.949219 9.8125-6.402344 14.742188-3.203125 4.949218 3.179687 6.398437 9.773437 3.199218 14.742187l-10.558593 16.425781c-2.027344 3.179688-5.460938 4.910157-8.960938 4.910157zm0 0" />
    <path
        d="m431.574219 243.667969c-1.984375 0-3.988281-.554688-5.78125-1.707031-4.949219-3.179688-6.398438-9.769532-3.199219-14.742188l1.664062-2.582031-1.898437-2.410157c-3.628906-4.628906-2.839844-11.328124 1.8125-14.976562 4.609375-3.644531 11.304687-2.878906 14.976563 1.792969l6.589843 8.382812c2.796875 3.5625 3.050781 8.535157.578125 12.355469l-5.78125 8.957031c-2.007812 3.203125-5.441406 4.929688-8.960937 4.929688zm0 0" />
    <path
        d="m404.738281 193.171875c-3.136719 0-6.292969-1.386719-8.40625-4.074219l-13.015625-16.578125c-3.625-4.628906-2.835937-11.347656 1.816406-14.976562 4.5625-3.644531 11.328126-2.855469 14.976563 1.792969l13.011719 16.578124c3.625 4.628907 2.835937 11.347657-1.8125 14.976563-1.941406 1.554687-4.269532 2.28125-6.570313 2.28125zm-39.0625-49.707031c-3.136719 0-6.273437-1.386719-8.40625-4.074219l-13.011719-16.554687c-3.628906-4.628907-2.839843-11.328126 1.8125-14.976563 4.566407-3.625 11.265626-2.859375 14.976563 1.792969l13.011719 16.554687c3.628906 4.628907 2.839844 11.328125-1.8125 14.976563-1.941406 1.535156-4.265625 2.28125-6.570313 2.28125zm0 0" />
    <path
        d="m326.613281 93.757812c-3.136719 0-6.292969-1.386718-8.40625-4.074218l-1.46875-1.878906-2.21875.960937c-5.355469 2.367187-11.671875-.105469-14.039062-5.523437-2.347657-5.398438.105469-11.691407 5.503906-14.039063l9.769531-4.265625c4.417969-1.921875 9.644532-.660156 12.671875 3.179688l6.59375 8.382812c3.625 4.628906 2.835938 11.328125-1.8125 14.976562-1.984375 1.535157-4.289062 2.28125-6.59375 2.28125zm0 0" />
    <path
        d="m196.90625 139.242188c-4.09375 0-8.019531-2.390626-9.769531-6.378907-2.367188-5.398437.085937-11.691406 5.484375-14.058593l18.898437-8.277344c5.398438-2.347656 11.691407.085937 14.039063 5.480468 2.347656 5.398438-.105469 11.691407-5.503906 14.058594l-18.878907 8.277344c-1.410156.621094-2.839843.898438-4.269531.898438zm56.664062-24.8125c-4.097656 0-8.023437-2.390626-9.773437-6.398438-2.34375-5.398438.109375-11.691406 5.503906-14.039062l18.902344-8.253907c5.398437-2.371093 11.667969.082031 14.039063 5.503907 2.34375 5.394531-.109376 11.6875-5.503907 14.035156l-18.902343 8.257812c-1.386719.617188-2.835938.894532-4.265626.894532zm0 0" />
    <path
        d="m149.972656 170.6875c-5.628906 0-10.300781-4.375-10.644531-10.050781l-.617187-10.644531c-.277344-4.457032 2.261718-8.617188 6.378906-10.386719l9.769531-4.269531c5.398437-2.367188 11.691406.085937 14.039063 5.503906 2.34375 5.398437-.109376 11.691406-5.503907 14.039062l-2.945312 1.28125.171875 3.242188c.359375 5.886718-4.140625 10.921875-10.027344 11.261718-.191406.023438-.40625.023438-.621094.023438zm0 0" />
    <path
        d="m157.035156 290.707031c-5.609375 0-10.304687-4.371093-10.644531-10.027343l-1.195313-20.007813c-.363281-5.890625 4.117188-10.945313 10.027344-11.285156 5.71875-.195313 10.945313 4.136719 11.261719 10.003906l1.195313 20.011719c.363281 5.886718-4.117188 10.941406-10.027344 11.285156-.191406.019531-.402344.019531-.617188.019531zm-3.539062-60.011719c-5.632813 0-10.304688-4.371093-10.648438-10.046874l-1.152344-19.988282c-.359374-5.886718 4.140626-10.921875 10.007813-11.285156 5.714844-.449219 10.921875 4.136719 11.261719 10.027344l1.175781 20.007812c.363281 5.890625-4.140625 10.925782-10.027344 11.265625-.191406.019531-.40625.019531-.617187.019531zm0 0" />
    <path
        d="m170.390625 343.828125c-.8125 0-1.621094-.085937-2.453125-.277344l-10.367188-2.453125c-4.589843-1.089844-7.917968-5.058594-8.195312-9.769531l-.617188-10.648437c-.363281-5.886719 4.140626-10.921876 10.027344-11.261719 5.652344-.320313 10.921875 4.136719 11.265625 10.027343l.167969 2.707032 2.644531.621094c5.742188 1.34375 9.28125 7.101562 7.917969 12.839843-1.152344 4.886719-5.527344 8.214844-10.390625 8.214844zm0 0" />
    <path
        d="m290.839844 372.160156c-.789063 0-1.621094-.085937-2.433594-.277344l-20.074219-4.738281c-5.761719-1.34375-9.300781-7.105469-7.9375-12.84375 1.324219-5.695312 7.019531-9.214843 12.824219-7.933593l20.074219 4.734374c5.757812 1.34375 9.300781 7.105469 7.933593 12.84375-1.171874 4.90625-5.546874 8.214844-10.386718 8.214844zm-60.226563-14.1875c-.789062 0-1.621093-.085937-2.429687-.277344l-20.054688-4.714843c-5.738281-1.34375-9.300781-7.105469-7.9375-12.820313 1.324219-5.71875 7.042969-9.261718 12.824219-7.960937l20.050781 4.714843c5.738282 1.34375 9.300782 7.105469 7.9375 12.824219-1.171875 4.925781-5.546875 8.234375-10.390625 8.234375zm0 0" />
    <path
        d="m320.023438 32.039062c-5.890626 0-10.667969-4.777343-10.667969-10.664062v-10.667969c0-5.886719 4.777343-10.6679685 10.667969-10.6679685 5.886718 0 10.664062 4.7812495 10.664062 10.6679685v10.667969c0 5.886719-4.777344 10.664062-10.664062 10.664062zm0 0" />
    <path
        d="m320.023438 85.375c-5.890626 0-10.667969-4.78125-10.667969-10.667969v-10.667969c0-5.886718 4.777343-10.664062 10.667969-10.664062 5.886718 0 10.664062 4.777344 10.664062 10.664062v10.667969c0 5.886719-4.777344 10.667969-10.664062 10.667969zm0 0" />
    <path
        d="m63.105469 121.703125c-1.453125 0-2.921875-.296875-4.332031-.914063l-9.75-4.332031c-5.375-2.390625-7.804688-8.703125-5.417969-14.082031 2.390625-5.394531 8.703125-7.804688 14.082031-5.417969l9.75 4.332031c5.375 2.390626 7.804688 8.703126 5.417969 14.078126-1.773438 3.992187-5.675781 6.335937-9.75 6.335937zm0 0" />
    <path
        d="m109.015625 142.121094c-1.453125 0-2.925781-.300782-4.332031-.917969l-15.316406-6.804687c-5.355469-2.390626-7.808594-8.703126-5.398438-14.082032 2.410156-5.375 8.683594-7.804687 14.082031-5.417968l15.316407 6.804687c5.375 2.390625 7.808593 8.707031 5.417968 14.082031-1.792968 3.96875-5.675781 6.335938-9.769531 6.335938zm0 0" />
    <path
        d="m149.355469 160.039062c-1.449219 0-2.921875-.296874-4.332031-.914062l-9.746094-4.332031c-5.378906-2.390625-7.808594-8.703125-5.421875-14.082031 2.390625-5.394532 8.707031-7.785157 14.082031-5.417969l9.75 4.332031c5.375 2.390625 7.808594 8.703125 5.417969 14.078125-1.769531 3.992187-5.675781 6.335937-9.75 6.335937zm0 0" />
    <path
        d="m64.023438 426.707031c-2.945313 0-5.867188-1.214843-7.980469-3.582031-3.925781-4.417969-3.5-11.136719.898437-15.0625l7.976563-7.082031c4.417969-3.925781 11.113281-3.542969 15.0625.894531 3.925781 4.417969 3.496093 11.136719-.898438 15.0625l-7.976562 7.082031c-2.046875 1.792969-4.566407 2.6875-7.082031 2.6875zm0 0" />
    <path
        d="m104.023438 391.144531c-2.945313 0-5.867188-1.214843-7.980469-3.582031-3.925781-4.417969-3.5-11.136719.898437-15.0625l16.019532-14.230469c4.414062-3.902343 11.113281-3.539062 15.0625.898438 3.925781 4.414062 3.496093 11.132812-.898438 15.058593l-16.019531 14.230469c-2.046875 1.8125-4.566407 2.6875-7.082031 2.6875zm0 0" />
    <path
        d="m152.042969 348.457031c-2.945313 0-5.867188-1.214843-7.976563-3.585937-3.925781-4.414063-3.5-11.132813.894532-15.058594l7.980468-7.082031c4.414063-3.90625 11.132813-3.523438 15.058594.894531 3.925781 4.414062 3.5 11.136719-.894531 15.0625l-7.980469 7.082031c-2.046875 1.8125-4.5625 2.6875-7.082031 2.6875zm0 0" />
    <path
        d="m362.667969 490.707031c-4.972657 0-9.429688-3.519531-10.433594-8.574219l-2.089844-10.453124c-1.152343-5.78125 2.601563-11.394532 8.382813-12.546876 5.65625-1.214843 11.394531 2.582032 12.546875 8.386719l2.089843 10.453125c1.152344 5.78125-2.601562 11.390625-8.382812 12.542969-.726562.128906-1.410156.191406-2.113281.191406zm0 0" />
    <path
        d="m353.707031 445.949219c-4.96875 0-9.429687-3.519531-10.429687-8.574219l-3.414063-17.152344c-1.152343-5.78125 2.601563-11.390625 8.382813-12.542968 5.652344-1.21875 11.390625 2.578124 12.542968 8.382812l3.414063 17.152344c1.152344 5.78125-2.601563 11.390625-8.382813 12.542968-.703124.128907-1.410156.191407-2.113281.191407zm0 0" />
    <path
        d="m343.425781 394.496094c-4.972656 0-9.429687-3.523438-10.433593-8.578125l-2.089844-10.453125c-1.152344-5.78125 2.601562-11.390625 8.382812-12.542969 5.675782-1.195313 11.394532 2.582031 12.546875 8.382813l2.089844 10.453124c1.152344 5.78125-2.605469 11.390626-8.386719 12.542969-.722656.128907-1.40625.195313-2.109375.195313zm0 0" />
    <path
        d="m501.355469 234.707031h-10.667969c-5.886719 0-10.664062-4.777343-10.664062-10.667969 0-5.886718 4.777343-10.664062 10.664062-10.664062h10.667969c5.886719 0 10.667969 4.777344 10.667969 10.664062 0 5.890626-4.78125 10.667969-10.667969 10.667969zm0 0" />
    <path
        d="m448.023438 234.707031h-10.667969c-5.886719 0-10.667969-4.777343-10.667969-10.667969 0-5.886718 4.78125-10.664062 10.667969-10.664062h10.667969c5.886718 0 10.664062 4.777344 10.664062 10.664062 0 5.890626-4.777344 10.667969-10.664062 10.667969zm0 0" />
</svg>