<svg height="512pt" viewBox="0 -96 512.0219 512" width="512pt" xmlns="http://www.w3.org/2000/svg">
    <path
        d="m512.023438 10.695312v213.335938c0 3.839844-2.136719 7.464844-5.335938 9.171875l-149.332031 85.335937c-1.707031 1.066407-3.414063 1.492188-5.332031 1.492188v-224l158.71875-90.667969c.851562 1.492188 1.28125 3.414063 1.28125 5.332031zm0 0"
        fill="#00acc1" />
    <path
        d="m510.742188 5.363281-158.71875 90.667969h-352.0000005c0-3.839844 2.1328125-7.46875 5.3320315-9.175781l149.332031-85.332031c1.707031-1.066407 3.414062-1.492188 5.335938-1.492188h341.332031c4.054687 0 7.464843 2.132812 9.386719 5.332031zm0 0"
        fill="#00bcd4" />
    <path
        d="m352.023438 96.03125v224h-341.335938c-5.972656 0-10.6640625-4.695312-10.6640625-10.667969v-213.332031zm0 0"
        fill="#4dd0e1" />
    <path
        d="m352.023438 320.03125h-341.335938c-5.886719 0-10.6640625-4.78125-10.6640625-10.667969v-213.332031c0-5.890625 4.7773435-10.667969 10.6640625-10.667969h341.335938c5.886718 0 10.664062 4.777344 10.664062 10.667969v213.332031c0 5.886719-4.777344 10.667969-10.664062 10.667969zm-330.667969-21.335938h320v-192h-320zm0 0" />
    <path
        d="m501.355469 234.695312c-5.886719 0-10.667969-4.777343-10.667969-10.664062v-202.667969h-330.664062c-5.890626 0-10.667969-4.777343-10.667969-10.667969 0-5.886718 4.777343-10.664062 10.667969-10.664062h341.332031c5.886719 0 10.667969 4.777344 10.667969 10.664062v213.335938c0 5.886719-4.78125 10.664062-10.667969 10.664062zm0 0" />
    <path
        d="m501.355469 234.695312h-341.332031c-5.890626 0-10.667969-4.777343-10.667969-10.664062v-213.335938c0-5.886718 4.777343-10.664062 10.667969-10.664062 5.886718 0 10.664062 4.777344 10.664062 10.664062v202.667969h330.667969c5.886719 0 10.667969 4.777344 10.667969 10.667969 0 5.886719-4.78125 10.664062-10.667969 10.664062zm0 0" />
    <path
        d="m10.6875 106.695312c-3.710938 0-7.296875-1.917968-9.277344-5.375-2.925781-5.121093-1.152344-11.625 3.964844-14.546874l149.335938-85.335938c5.097656-2.964844 11.625-1.152344 14.546874 3.96875 2.925782 5.121094 1.152344 11.625-3.964843 14.550781l-149.335938 85.332031c-1.640625.960938-3.476562 1.40625-5.269531 1.40625zm0 0" />
    <path
        d="m352.023438 106.695312c-3.714844 0-7.296876-1.917968-9.28125-5.375-2.921876-5.121093-1.152344-11.625 3.96875-14.546874l149.332031-85.335938c5.097656-2.964844 11.605469-1.152344 14.550781 3.96875 2.921875 5.121094 1.152344 11.625-3.96875 14.550781l-149.332031 85.332031c-1.644531.960938-3.480469 1.40625-5.269531 1.40625zm0 0" />
    <path
        d="m352.023438 320.03125c-3.714844 0-7.296876-1.921875-9.28125-5.375-2.921876-5.121094-1.152344-11.628906 3.96875-14.550781l149.332031-85.332031c5.097656-2.945313 11.605469-1.152344 14.550781 3.964843 2.921875 5.121094 1.152344 11.628907-3.96875 14.550781l-149.332031 85.332032c-1.644531.960937-3.480469 1.410156-5.269531 1.410156zm0 0" />
    <path
        d="m10.6875 320.03125c-3.710938 0-7.296875-1.921875-9.277344-5.375-2.925781-5.121094-1.152344-11.628906 3.964844-14.550781l149.335938-85.332031c5.097656-2.945313 11.625-1.152344 14.546874 3.964843 2.925782 5.121094 1.152344 11.628907-3.964843 14.550781l-149.335938 85.332032c-1.640625.960937-3.476562 1.410156-5.269531 1.410156zm0 0" />
</svg>