<svg height="512pt" viewBox="0 -96 512.04232 512" width="512pt" xmlns="http://www.w3.org/2000/svg">
    <path
        d="m512.019531 10.6875v213.332031c0 3.84375-2.132812 7.46875-5.332031 9.175781l-149.332031 85.332032-5.335938 1.492187v-224l158.722657-90.664062zm0 0"
        fill="#0097a7" />
    <path
        d="m510.742188 5.355469-158.722657 90.664062h-351.9999998c0-3.839843 2.1367188-7.464843 5.3359378-9.171875l149.332031-85.332031 5.332031-1.4960938h341.335938c4.050781 0 7.464843 2.1367188 9.386719 5.3359378zm0 0"
        fill="#00bcd4" />
    <path
        d="m352.019531 96.019531v224h-341.332031c-5.972656 0-10.6679688-4.691406-10.6679688-10.664062v-213.335938zm0 0"
        fill="#4dd0e1" />
    <path
        d="m352.019531 320.019531h-341.332031c-5.886719 0-10.6679688-4.777343-10.6679688-10.664062v-213.335938c0-5.886719 4.7812498-10.664062 10.6679688-10.664062h341.332031c5.890625 0 10.667969 4.777343 10.667969 10.664062v213.335938c0 5.886719-4.777344 10.664062-10.667969 10.664062zm-330.664062-21.332031h320v-192h-320zm0 0" />
    <path
        d="m501.355469 234.6875c-5.890625 0-10.667969-4.777344-10.667969-10.667969v-202.664062h-330.667969c-5.886719 0-10.664062-4.78125-10.664062-10.667969s4.777343-10.6679688 10.664062-10.6679688h341.335938c5.886719 0 10.664062 4.7812498 10.664062 10.6679688v213.332031c0 5.890625-4.777343 10.667969-10.664062 10.667969zm0 0" />
    <path
        d="m160.019531 32.019531c-5.886719 0-10.664062-4.777343-10.664062-10.664062v-10.667969c0-5.886719 4.777343-10.6679688 10.664062-10.6679688 5.890625 0 10.667969 4.7812498 10.667969 10.6679688v10.667969c0 5.886719-4.777344 10.664062-10.667969 10.664062zm0 0" />
    <path
        d="m160.019531 176.019531c-5.886719 0-10.664062-4.777343-10.664062-10.664062v-24c0-5.886719 4.777343-10.667969 10.664062-10.667969 5.890625 0 10.667969 4.78125 10.667969 10.667969v24c0 5.886719-4.777344 10.664062-10.667969 10.664062zm0-72c-5.886719 0-10.664062-4.777343-10.664062-10.664062v-24c0-5.886719 4.777343-10.667969 10.664062-10.667969 5.890625 0 10.667969 4.78125 10.667969 10.667969v24c0 5.886719-4.777344 10.664062-10.667969 10.664062zm0 0" />
    <path
        d="m170.6875 234.6875h-10.667969c-5.886719 0-10.664062-4.777344-10.664062-10.667969v-10.664062c0-5.886719 4.777343-10.667969 10.664062-10.667969 5.890625 0 10.667969 4.78125 10.667969 10.667969 5.886719 0 10.667969 4.777343 10.667969 10.664062 0 5.890625-4.78125 10.667969-10.667969 10.667969zm0 0" />
    <path
        d="m444.949219 234.6875h-22.847657c-5.886718 0-10.667968-4.777344-10.667968-10.667969 0-5.886719 4.78125-10.664062 10.667968-10.664062h22.847657c5.886719 0 10.667969 4.777343 10.667969 10.664062 0 5.890625-4.757813 10.667969-10.667969 10.667969zm-68.542969 0h-22.847656c-5.890625 0-10.667969-4.777344-10.667969-10.667969 0-5.886719 4.777344-10.664062 10.667969-10.664062h22.847656c5.886719 0 10.664062 4.777343 10.664062 10.664062 0 5.890625-4.777343 10.667969-10.664062 10.667969zm-68.566406 0h-22.871094c-5.886719 0-10.664062-4.777344-10.664062-10.667969 0-5.886719 4.777343-10.664062 10.664062-10.664062h22.871094c5.886718 0 10.667968 4.777343 10.667968 10.664062 0 5.890625-4.78125 10.667969-10.667968 10.667969zm-68.585938 0h-22.847656c-5.890625 0-10.667969-4.777344-10.667969-10.667969 0-5.886719 4.777344-10.664062 10.667969-10.664062h22.847656c5.886719 0 10.664063 4.777343 10.664063 10.664062 0 5.890625-4.777344 10.667969-10.664063 10.667969zm0 0" />
    <path
        d="m501.355469 234.6875h-10.667969c-5.886719 0-10.667969-4.777344-10.667969-10.667969 0-5.886719 4.78125-10.664062 10.667969-10.664062h10.667969c5.886719 0 10.664062 4.777343 10.664062 10.664062 0 5.890625-4.777343 10.667969-10.664062 10.667969zm0 0" />
    <path
        d="m10.6875 106.6875c-3.691406 0-7.296875-1.917969-9.28125-5.375-2.921875-5.121094-1.152344-11.628906 3.992188-14.550781l149.332031-85.332031c5.035156-2.902344 11.585937-1.195313 14.570312 3.96875 2.921875 5.117187 1.152344 11.625-3.988281 14.546874l-149.335938 85.335938c-1.660156.957031-3.476562 1.40625-5.289062 1.40625zm0 0" />
    <path
        d="m352.019531 106.6875c-3.6875 0-7.292969-1.917969-9.277343-5.375-2.921876-5.121094-1.152344-11.628906 3.988281-14.550781l149.332031-85.332031c5.035156-2.902344 11.605469-1.195313 14.570312 3.96875 2.925782 5.117187 1.152344 11.625-3.988281 14.546874l-149.332031 85.335938c-1.664062.957031-3.476562 1.40625-5.292969 1.40625zm0 0" />
    <path
        d="m352.019531 320.019531c-3.6875 0-7.292969-1.917969-9.277343-5.375-2.921876-5.117187-1.152344-11.625 3.988281-14.546875l149.332031-85.335937c5.035156-2.921875 11.605469-1.171875 14.570312 3.96875 2.925782 5.121093 1.152344 11.628906-3.988281 14.550781l-149.332031 85.332031c-1.664062.960938-3.476562 1.40625-5.292969 1.40625zm0 0" />
    <path
        d="m10.6875 320.019531c-3.691406 0-7.296875-1.917969-9.28125-5.375-2.921875-5.117187-1.128906-11.625 3.992188-14.546875l9.277343-5.292968c5.035157-2.921876 11.605469-1.195313 14.570313 3.96875 2.925781 5.121093 1.132812 11.625-3.988282 14.550781l-9.28125 5.289062c-1.660156.960938-3.476562 1.40625-5.289062 1.40625zm0 0" />
    <path
        d="m52.652344 296.042969c-3.691406 0-7.296875-1.921875-9.28125-5.375-2.921875-5.121094-1.152344-11.628907 3.988281-14.550781l16.363281-9.34375c5.054688-2.921876 11.605469-1.171876 14.570313 3.96875 2.921875 5.121093 1.152343 11.625-3.988281 14.546874l-16.363282 9.347657c-1.664062.957031-3.476562 1.40625-5.289062 1.40625zm49.066406-28.03125c-3.691406 0-7.296875-1.921875-9.28125-5.375-2.921875-5.121094-1.152344-11.628907 3.988281-14.550781l16.363281-9.34375c5.035157-2.945313 11.605469-1.195313 14.570313 3.96875 2.921875 5.117187 1.152344 11.625-3.988281 14.546874l-16.363282 9.34375c-1.664062.960938-3.476562 1.410157-5.289062 1.410157zm0 0" />
    <path
        d="m150.742188 239.980469c-3.691407 0-7.296876-1.921875-9.28125-5.378907-2.921876-5.117187-1.128907-11.625 3.988281-14.546874l9.28125-5.292969c5.035156-2.921875 11.585937-1.171875 14.570312 3.96875 2.921875 5.121093 1.132813 11.628906-3.988281 14.550781l-9.28125 5.289062c-1.664062.960938-3.476562 1.410157-5.289062 1.410157zm0 0" />
</svg>