<svg height="512pt" viewBox="0 0 512 512.01856" width="512pt" xmlns="http://www.w3.org/2000/svg">
    <path
        d="m.65625 441.40625c1.28125 2.558594 2.988281 4.480469 5.546875 5.546875l138.667969 64c1.492187.640625 2.988281 1.066406 4.480468 1.066406h213.332032c1.492187 0 2.988281-.425781 4.480468-1.066406l138.667969-64c2.558594-1.066406 4.265625-2.988281 5.332031-5.546875l-169.8125-68.054688h-170.667968zm0 0"
        fill="#26c6da" />
    <path
        d="m256.015625.445312v.214844l85.335937 372.691406 169.8125 68.054688c.214844-.214844.425782-.640625.425782-.855469.855468-2.773437.425781-5.972656-1.066406-8.53125l-245.332032-426.667969c-1.921875-3.199218-5.546875-4.90625-9.175781-4.90625zm0 0"
        fill="#00bcd4" />
    <path
        d="m.445312 440.550781c0 .214844.210938.640625.210938.855469l170.027344-68.054688 85.332031-372.691406v-.214844c-3.625 0-7.25 1.707032-9.171875 4.90625l-245.332031 426.667969c-1.496094 2.558594-1.921875 5.757813-1.066407 8.53125zm0 0"
        fill="#00bcd4" />
    <path d="m170.683594 373.351562h170.667968l-85.335937-372.691406zm0 0" fill="#4dd0e1" />
    <path
        d="m10.683594 448.019531c-4.136719 0-8.0625-2.410156-9.792969-6.445312-2.324219-5.394531.152344-11.6875 5.570313-14.015625l9.792968-4.222656c5.394532-2.367188 11.667969.148437 14.015625 5.566406 2.324219 5.398437-.152343 11.691406-5.570312 14.015625l-9.792969 4.226562c-1.363281.597657-2.8125.875-4.222656.875zm0 0" />
    <path
        d="m451.34375 428.15625c-1.320312 0-2.644531-.234375-3.921875-.746094l-20.035156-7.957031c-5.480469-2.175781-8.148438-8.382813-5.992188-13.84375 2.175781-5.484375 8.425781-8.152344 13.84375-5.996094l20.03125 7.957031c5.484375 2.175782 8.152344 8.382813 5.996094 13.84375-1.664063 4.203126-5.675781 6.742188-9.921875 6.742188zm-391.292969-1.492188c-4.117187 0-8.042969-2.410156-9.792969-6.421874-2.324218-5.398438.148438-11.691407 5.546876-14.035157l19.796874-8.554687c5.441407-2.347656 11.691407.148437 14.039063 5.542968 2.324219 5.398438-.152344 11.691407-5.546875 14.039063l-19.800781 8.554687c-1.386719.597657-2.8125.875-4.242188.875zm331.175781-22.359374c-1.320312 0-2.644531-.234376-3.921874-.746094l-20.054688-7.957032c-5.484375-2.175781-8.148438-8.382812-5.996094-13.84375 2.175782-5.484374 8.363282-8.171874 13.847656-5.996093l20.050782 7.957031c5.484375 2.175781 8.152344 8.386719 5.996094 13.847656-1.664063 4.179688-5.675782 6.738282-9.921876 6.738282zm-271.785156-3.324219c-4.136718 0-8.0625-2.414063-9.792968-6.421875-2.324219-5.398438.152343-11.691406 5.546874-14.039063l19.796876-8.554687c5.460937-2.347656 11.691406.148437 14.039062 5.546875 2.324219 5.398437-.148438 11.691406-5.546875 14.039062l-19.796875 8.554688c-1.410156.597656-2.839844.875-4.246094.875zm210.988282-17.261719c-.109376 0-.234376 0-.34375 0l-21.546876-.660156c-5.886718-.191406-10.515624-5.097656-10.34375-10.988282.191407-5.886718 5.714844-10.367187 10.984376-10.34375l21.546874.660157c5.886719.191406 10.519532 5.097656 10.347657 10.988281-.171875 5.78125-4.90625 10.34375-10.644531 10.34375zm-64.664063-1.984375c-.105469 0-.234375 0-.339844 0l-21.546875-.660156c-5.886718-.191407-10.515625-5.097657-10.324218-11.007813.191406-5.886718 5.269531-10.347656 11.007812-10.324218l21.546875.660156c5.886719.191406 10.515625 5.097656 10.324219 11.007812-.214844 5.761719-4.949219 10.324219-10.667969 10.324219zm-64.660156-1.984375c-.105469 0-.234375 0-.339844 0l-21.546875-.660156c-5.890625-.191406-10.519531-5.097656-10.328125-11.007813.195313-5.886719 5.121094-10.496093 11.007813-10.324219l21.546874.660157c5.890626.191406 10.519532 5.097656 10.328126 11.007812-.191407 5.761719-4.949219 10.324219-10.667969 10.324219zm0 0" />
    <path
        d="m501.351562 448.019531c-1.324218 0-2.644531-.234375-3.949218-.746093l-9.917969-3.949219c-5.484375-2.175781-8.148437-8.382813-5.972656-13.84375 2.175781-5.484375 8.40625-8.128907 13.84375-5.972657l9.921875 3.945313c5.480468 2.175781 8.148437 8.382813 5.972656 13.84375-1.644531 4.183594-5.652344 6.722656-9.898438 6.722656zm0 0" />
    <path
        d="m173.800781 378.8125c-.792969 0-1.601562-.085938-2.390625-.277344-5.738281-1.320312-9.34375-7.039062-8-12.777344l2.390625-10.390624c1.320313-5.738282 7.058594-9.34375 12.777344-8 5.738281 1.324218 9.34375 7.039062 8 12.78125l-2.390625 10.386718c-1.128906 4.929688-5.503906 8.277344-10.386719 8.277344zm0 0" />
    <path
        d="m185.320312 328.808594c-.789062 0-1.601562-.085938-2.390624-.277344-5.761719-1.324219-9.34375-7.039062-8-12.78125l4.542968-19.796875c1.324219-5.738281 7.082032-9.34375 12.78125-8 5.757813 1.324219 9.34375 7.042969 8 12.78125l-4.546875 19.796875c-1.152343 4.925781-5.546875 8.277344-10.386719 8.277344zm13.652344-59.414063c-.789062 0-1.601562-.085937-2.390625-.277343-5.757812-1.324219-9.34375-7.039063-8-12.777344l4.542969-19.796875c1.324219-5.742188 7.085938-9.347657 12.78125-8 5.757812 1.320312 9.34375 7.039062 8 12.777343l-4.542969 19.796876c-1.132812 4.929687-5.527343 8.277343-10.390625 8.277343zm13.675782-59.414062c-.789063 0-1.601563-.085938-2.390626-.277344-5.761718-1.300781-9.34375-7.019531-8.023437-12.777344l4.546875-19.796875c1.320312-5.738281 7.082031-9.300781 12.777344-8 5.761718 1.320313 9.34375 7.039063 8 12.777344l-4.542969 19.796875c-1.132813 4.949219-5.527344 8.277344-10.367187 8.277344zm13.652343-59.414063c-.789062 0-1.601562-.082031-2.390625-.277344-5.757812-1.320312-9.34375-7.039062-8-12.777343l4.542969-19.796875c1.324219-5.738282 7.105469-9.324219 12.78125-8 5.757813 1.324218 9.34375 7.039062 8 12.777344l-4.542969 19.796874c-1.132812 4.929688-5.527344 8.277344-10.390625 8.277344zm13.675781-59.410156c-.792968 0-1.601562-.085938-2.414062-.277344-5.738281-1.324218-9.320312-7.0625-8-12.800781l4.566406-19.820313c1.324219-5.757812 7.019532-9.320312 12.800782-8 5.738281 1.324219 9.324218 7.0625 8 12.800782l-4.566407 19.820312c-1.152343 4.949219-5.546875 8.277344-10.386719 8.277344zm0 0" />
    <path
        d="m253.628906 31.742188c-.789062 0-1.601562-.085938-2.410156-.277344-5.738281-1.324219-9.324219-7.0625-8-12.800782l2.386719-10.390624c1.324219-5.738282 7.105469-9.320313 12.800781-8 5.738281 1.324218 9.324219 7.0625 8 12.800781l-2.390625 10.410156c-1.128906 4.929687-5.523437 8.257813-10.386719 8.257813zm0 0" />
    <path
        d="m258.40625 31.742188c-4.863281 0-9.238281-3.328126-10.390625-8.257813l-2.410156-10.386719c-1.320313-5.742187 2.242187-11.480468 8-12.800781 5.738281-1.324219 11.480469 2.238281 12.800781 8l2.410156 10.386719c1.324219 5.742187-2.238281 11.480468-8 12.800781-.808594.171875-1.597656.257813-2.410156.257813zm0 0" />
    <path
        d="m328.359375 333.394531c-4.863281 0-9.238281-3.328125-10.390625-8.257812l-4.648438-20.09375c-1.324218-5.738281 2.238282-11.476563 8-12.800781 5.78125-1.28125 11.476563 2.261718 12.796876 8l4.652343 20.097656c1.324219 5.738281-2.238281 11.476562-8 12.796875-.8125.195312-1.601562.257812-2.410156.257812zm-13.996094-60.332031c-4.863281 0-9.238281-3.328125-10.386719-8.253906l-4.652343-20.097656c-1.324219-5.738282 2.238281-11.476563 8-12.800782 5.738281-1.320312 11.476562 2.242188 12.800781 8l4.648438 20.097656c1.324218 5.738282-2.238282 11.476563-8 12.800782-.789063.171875-1.597657.253906-2.410157.253906zm-13.972656-60.308594c-4.863281 0-9.238281-3.328125-10.390625-8.253906l-4.671875-20.117188c-1.320313-5.742187 2.242187-11.480468 8-12.800781 5.699219-1.367187 11.480469 2.238281 12.800781 7.976563l4.671875 20.117187c1.324219 5.738281-2.238281 11.480469-8 12.800781-.789062.191407-1.597656.277344-2.410156.277344zm-13.996094-60.328125c-4.863281 0-9.234375-3.328125-10.386719-8.257812l-4.671874-20.117188c-1.324219-5.738281 2.238281-11.476562 8-12.800781 5.714843-1.28125 11.476562 2.261719 12.800781 8l4.671875 20.117188c1.320312 5.738281-2.242188 11.476562-8 12.800781-.792969.171875-1.601563.257812-2.414063.257812zm-13.972656-60.355469c-4.863281 0-9.238281-3.328124-10.367187-8.253906l-4.671876-20.117187c-1.324218-5.738281 2.238282-11.476563 7.980469-12.800781 5.671875-1.324219 11.476563 2.238281 12.796875 7.980468l4.671875 20.117188c1.324219 5.738281-2.238281 11.476562-7.976562 12.796875-.832031.214843-1.644531.277343-2.433594.277343zm0 0" />
    <path
        d="m340.09375 384.019531c-4.867188 0-9.238281-3.328125-10.390625-8.257812l-2.410156-10.386719c-1.324219-5.742188 2.238281-11.480469 8-12.800781 5.738281-1.28125 11.476562 2.261719 12.800781 8l2.410156 10.386719c1.320313 5.742187-2.242187 11.480468-8 12.800781-.789062.171875-1.601562.257812-2.410156.257812zm0 0" />
    <path
        d="m341.351562 512.019531h-202.667968c-1.664063 0-3.285156-.386719-4.777344-1.132812l-128-64c-2.625-1.320313-4.585938-3.648438-5.441406-6.460938-.851563-2.816406-.4882815-5.847656.960937-8.386719l245.332031-426.664062c3.820313-6.636719 14.679688-6.636719 18.496094 0l245.335938 426.664062c1.535156 2.667969 1.832031 5.890626.832031 8.8125-1.003906 2.921876-3.246094 5.269532-6.125 6.398438l-160 64c-1.257813.511719-2.601563.769531-3.945313.769531zm-200.148437-21.335937h198.101563l146.664062-58.664063-229.953125-399.9375-230.441406 400.789063zm0 0" />
    <path
        d="m138.683594 512.019531c-.832032 0-1.664063-.085937-2.496094-.300781-5.738281-1.363281-9.257812-7.125-7.894531-12.863281l117.335937-490.667969c1.363282-5.714844 7.1875-9.234375 12.863282-7.890625 5.738281 1.363281 9.257812 7.125 7.894531 12.863281l-117.335938 490.667969c-1.152343 4.90625-5.523437 8.191406-10.367187 8.191406zm0 0" />
    <path
        d="m341.351562 512.019531c-5.097656 0-9.601562-3.648437-10.496093-8.855469l-85.332031-490.664062c-1.003907-5.804688 2.878906-11.328125 8.679687-12.332031 5.824219-1.023438 11.328125 2.878906 12.332031 8.683593l85.332032 490.664063c1.003906 5.804687-2.878907 11.328125-8.683594 12.332031-.617188.128906-1.234375.171875-1.832032.171875zm0 0" />
</svg>