<svg height="512pt" viewBox="-74 0 511 512" width="512pt" xmlns="http://www.w3.org/2000/svg">
    <path
        d="m361.472656 69.332031-115.625 69.335938h-170.667968l-71.464844-71.46875 1.917968-1.707031 106.667969-64 5.546875-1.492188h170.667969c2.773437 0 5.546875 1.066406 7.464844 3.199219l64 64zm0 0"
        fill="#26c6da" />
    <path
        d="m75.179688 138.667969v373.332031c-2.773438 0-5.546876-1.066406-7.464844-3.199219l-64-64c-2.132813-1.921875-3.199219-4.695312-3.199219-7.46875v-362.664062c0-2.988281 1.066406-5.546875 2.984375-7.46875h.214844zm0 0"
        fill="#00bcd4" />
    <path
        d="m363.179688 74.667969v362.664062c0 3.839844-1.917969 7.253907-5.117188 9.175781l-106.667969 64-5.546875 1.492188v-373.332031l115.625-69.335938zm0 0"
        fill="#00bcd4" />
    <path d="m245.847656 138.667969v373.332031h-170.667968v-373.332031zm0 0" fill="#4dd0e1" />
    <path
        d="m11.179688 448c-3.605469 0-7.144532-1.835938-9.152344-5.183594-3.050782-5.054687-1.386719-11.605468 3.671875-14.636718l9.152343-5.480469c4.992188-2.988281 11.582032-1.386719 14.632813 3.648437s1.386719 11.605469-3.667969 14.632813l-9.152344 5.484375c-1.707031 1.042968-3.605468 1.535156-5.484374 1.535156zm0 0" />
    <path
        d="m57.070312 420.457031c-3.605468 0-7.148437-1.832031-9.152343-5.183593-3.050781-5.054688-1.386719-11.605469 3.667969-14.632813l18.367187-11.03125c4.992187-2.984375 11.585937-1.386719 14.636719 3.648437 3.050781 5.035157 1.386718 11.605469-3.671875 14.636719l-18.367188 11.027344c-1.707031 1.066406-3.605469 1.535156-5.480469 1.535156zm257.621094-10.300781c-2.730468 0-5.460937-1.046875-7.554687-3.117188l-15.167969-15.144531c-4.160156-4.160156-4.160156-10.925781 0-15.105469 4.160156-4.160156 10.925781-4.160156 15.082031 0l15.167969 15.148438c4.160156 4.160156 4.160156 10.921875 0 15.101562-2.089844 2.070313-4.820312 3.117188-7.527344 3.117188zm-202.496094-22.765625c-3.605468 0-7.148437-1.832031-9.152343-5.160156-3.03125-5.058594-1.386719-11.605469 3.648437-14.65625l5.652344-3.394531c1.664062-.980469 3.5625-1.511719 5.503906-1.511719h14.828125c5.886719 0 10.664063 4.777343 10.664063 10.664062 0 5.890625-4.757813 10.667969-10.664063 10.667969h-11.863281l-3.113281 1.855469c-1.730469 1.046875-3.628907 1.535156-5.503907 1.535156zm149.035157-3.390625h-21.421875c-5.886719 0-10.664063-4.777344-10.664063-10.667969 0-5.886719 4.777344-10.664062 10.664063-10.664062h21.421875c5.886719 0 10.664062 4.777343 10.664062 10.664062 0 5.890625-4.777343 10.667969-10.664062 10.667969zm-64.277344 0h-21.421875c-5.886719 0-10.664062-4.777344-10.664062-10.667969 0-5.886719 4.777343-10.664062 10.664062-10.664062h21.421875c5.886719 0 10.664063 4.777343 10.664063 10.664062 0 5.890625-4.777344 10.667969-10.664063 10.667969zm0 0" />
    <path
        d="m352.515625 448c-2.730469 0-5.464844-1.046875-7.554687-3.113281l-7.53125-7.554688c-4.160157-4.160156-4.160157-10.921875 0-15.082031 4.160156-4.160156 10.925781-4.160156 15.085937 0l7.550781 7.550781c4.160156 4.160157 4.160156 10.925781 0 15.085938-2.089844 2.066406-4.820312 3.113281-7.550781 3.113281zm0 0" />
    <path
        d="m245.847656 149.332031h-170.667968c-2.835938 0-5.546876-1.128906-7.550782-3.113281l-64-64c-2.324218-2.324219-3.433594-5.589844-3.03125-8.851562.40625-3.265626 2.261719-6.167969 5.101563-7.851563l106.664062-64c1.644531-1.003906 3.542969-1.515625 5.484375-1.515625h170.667969c2.835937 0 5.546875 1.128906 7.550781 3.113281l64 64c2.324219 2.328125 3.433594 5.589844 3.050782 8.855469-.382813 3.261719-2.285157 6.164062-5.121094 7.851562l-106.667969 64c-1.640625 1-3.539063 1.511719-5.480469 1.511719zm-166.25-21.332031h163.285156l92.414063-55.445312-51.199219-51.222657h-163.285156l-92.414062 55.445313zm0 0" />
    <path
        d="m117.847656 384c-5.886718 0-10.667968-4.777344-10.667968-10.667969v-10.664062c0-5.890625 4.78125-10.667969 10.667968-10.667969 5.886719 0 10.667969 4.777344 10.667969 10.667969v10.664062c0 5.890625-4.78125 10.667969-10.667969 10.667969zm0 0" />
    <path
        d="m117.847656 333.183594c-5.886718 0-10.667968-4.777344-10.667968-10.667969v-20.074219c0-5.886718 4.78125-10.664062 10.667968-10.664062 5.886719 0 10.667969 4.777344 10.667969 10.664062v20.074219c0 5.890625-4.78125 10.667969-10.667969 10.667969zm0-60.246094c-5.886718 0-10.667968-4.777344-10.667968-10.664062v-20.074219c0-5.890625 4.78125-10.667969 10.667968-10.667969 5.886719 0 10.667969 4.777344 10.667969 10.667969v20.074219c0 5.886718-4.78125 10.664062-10.667969 10.664062zm0-60.222656c-5.886718 0-10.667968-4.777344-10.667968-10.667969v-20.09375c0-5.890625 4.78125-10.667969 10.667968-10.667969 5.886719 0 10.667969 4.777344 10.667969 10.667969v20.074219c0 5.910156-4.78125 10.6875-10.667969 10.6875zm0-60.246094c-5.886718 0-10.667968-4.777344-10.667968-10.667969v-20.074219c0-5.886718 4.78125-10.664062 10.667968-10.664062 5.886719 0 10.667969 4.777344 10.667969 10.664062v20.074219c0 5.890625-4.78125 10.667969-10.667969 10.667969zm0-60.222656c-5.886718 0-10.667968-4.78125-10.667968-10.667969v-20.09375c0-5.890625 4.78125-10.667969 10.667968-10.667969 5.886719 0 10.667969 4.777344 10.667969 10.667969v20.074219c0 5.90625-4.78125 10.6875-10.667969 10.6875zm0 0" />
    <path
        d="m117.847656 32c-5.886718 0-10.667968-4.777344-10.667968-10.667969v-10.664062c0-5.890625 4.78125-10.667969 10.667968-10.667969 5.886719 0 10.667969 4.777344 10.667969 10.667969v10.664062c0 5.890625-4.78125 10.667969-10.667969 10.667969zm0 0" />
    <path
        d="m288.515625 32c-5.890625 0-10.667969-4.777344-10.667969-10.667969v-10.664062c0-5.890625 4.777344-10.667969 10.667969-10.667969 5.886719 0 10.664063 4.777344 10.664063 10.667969v10.664062c0 5.890625-4.777344 10.667969-10.664063 10.667969zm0 0" />
    <path
        d="m288.515625 333.183594c-5.890625 0-10.667969-4.777344-10.667969-10.667969v-20.074219c0-5.886718 4.777344-10.664062 10.667969-10.664062 5.886719 0 10.664063 4.777344 10.664063 10.664062v20.074219c0 5.890625-4.777344 10.667969-10.664063 10.667969zm0-60.246094c-5.890625 0-10.667969-4.777344-10.667969-10.664062v-20.074219c0-5.890625 4.777344-10.667969 10.667969-10.667969 5.886719 0 10.664063 4.777344 10.664063 10.667969v20.074219c0 5.886718-4.777344 10.664062-10.664063 10.664062zm0-60.222656c-5.890625 0-10.667969-4.777344-10.667969-10.667969v-20.09375c0-5.890625 4.777344-10.667969 10.667969-10.667969 5.886719 0 10.664063 4.777344 10.664063 10.667969v20.074219c0 5.910156-4.777344 10.6875-10.664063 10.6875zm0-60.246094c-5.890625 0-10.667969-4.777344-10.667969-10.667969v-20.074219c0-5.886718 4.777344-10.664062 10.667969-10.664062 5.886719 0 10.664063 4.777344 10.664063 10.664062v20.074219c0 5.890625-4.777344 10.667969-10.664063 10.667969zm0-60.222656c-5.890625 0-10.667969-4.78125-10.667969-10.667969v-20.09375c0-5.890625 4.777344-10.667969 10.667969-10.667969 5.886719 0 10.664063 4.777344 10.664063 10.667969v20.074219c0 5.90625-4.777344 10.6875-10.664063 10.6875zm0 0" />
    <path
        d="m288.515625 384c-5.890625 0-10.667969-4.777344-10.667969-10.667969v-10.664062c0-5.890625 4.777344-10.667969 10.667969-10.667969 5.886719 0 10.664063 4.777344 10.664063 10.667969v10.664062c0 5.890625-4.777344 10.667969-10.664063 10.667969zm0 0" />
    <path
        d="m245.847656 512h-170.667968c-2.835938 0-5.546876-1.128906-7.550782-3.113281l-64-64c-1.984375-2.007813-3.113281-4.714844-3.113281-7.554688v-362.664062c0-5.890625 4.777344-10.667969 10.664063-10.667969 5.890624 0 10.667968 4.777344 10.667968 10.667969v358.25l57.75 57.75h163.285156l98.964844-59.371094v-356.628906c0-5.890625 4.777344-10.667969 10.667969-10.667969 5.886719 0 10.664063 4.777344 10.664063 10.667969v362.664062c0 3.757813-1.960938 7.210938-5.183594 9.152344l-106.667969 64c-1.640625 1.003906-3.539063 1.515625-5.480469 1.515625zm0 0" />
    <path
        d="m75.179688 512c-5.886719 0-10.664063-4.777344-10.664063-10.667969v-362.664062c0-5.890625 4.777344-10.667969 10.664063-10.667969 5.890624 0 10.667968 4.777344 10.667968 10.667969v362.664062c0 5.890625-4.777344 10.667969-10.667968 10.667969zm0 0" />
    <path
        d="m245.847656 512c-5.886718 0-10.667968-4.777344-10.667968-10.667969v-362.664062c0-5.890625 4.78125-10.667969 10.667968-10.667969 5.886719 0 10.667969 4.777344 10.667969 10.667969v362.664062c0 5.890625-4.78125 10.667969-10.667969 10.667969zm0 0" />
</svg>