<svg height="512pt" viewBox="-74 0 511 512" width="512pt" xmlns="http://www.w3.org/2000/svg">
    <path
        d="m361.472656 69.332031-115.625 69.335938h-170.667968l-71.464844-71.46875c.640625-.851563 1.277344-1.277344 1.917968-1.707031l106.667969-64c1.707031-1.066407 3.625-1.492188 5.546875-1.492188h170.667969c2.773437 0 5.546875 1.066406 7.464844 3.199219l64 64c.640625.640625 1.28125 1.28125 1.492187 2.132812zm0 0"
        fill="#26c6da" />
    <path
        d="m75.179688 138.667969v373.332031c-2.773438 0-5.546876-1.066406-7.464844-3.199219l-64-64c-2.132813-1.921875-3.199219-4.695312-3.199219-7.46875v-362.664062c0-2.988281 1.066406-5.546875 2.984375-7.46875h.214844zm0 0"
        fill="#00bcd4" />
    <path
        d="m363.179688 74.667969v362.664062c0 3.839844-1.917969 7.253907-5.117188 9.175781l-106.667969 64c-1.707031 1.066407-3.628906 1.492188-5.546875 1.492188v-373.332031l115.625-69.335938c1.28125 1.707031 1.707032 3.414063 1.707032 5.335938zm0 0"
        fill="#00bcd4" />
    <path d="m75.179688 138.667969h170.667968v373.332031h-170.667968zm0 0" fill="#4dd0e1" />
    <path
        d="m11.179688 448c-3.605469 0-7.144532-1.835938-9.152344-5.183594-3.050782-5.054687-1.386719-11.605468 3.671875-14.636718l106.664062-64c1.644531-1 3.542969-1.511719 5.484375-1.511719h170.667969c2.835937 0 5.546875 1.128906 7.550781 3.113281l64 64c4.160156 4.160156 4.160156 10.921875 0 15.082031-4.160156 4.160157-10.921875 4.160157-15.082031 0l-60.886719-60.863281h-163.285156l-104.148438 62.484375c-1.707031 1.023437-3.605468 1.515625-5.484374 1.515625zm0 0" />
    <path
        d="m245.847656 149.332031h-170.667968c-2.835938 0-5.546876-1.128906-7.550782-3.113281l-64-64c-2.324218-2.324219-3.433594-5.589844-3.03125-8.851562.40625-3.265626 2.261719-6.167969 5.101563-7.851563l106.664062-64c1.644531-1.003906 3.542969-1.515625 5.484375-1.515625h170.667969c2.835937 0 5.546875 1.128906 7.550781 3.113281l64 64c2.324219 2.328125 3.433594 5.589844 3.050782 8.855469-.382813 3.261719-2.285157 6.164062-5.121094 7.851562l-106.667969 64c-1.640625 1-3.539063 1.511719-5.480469 1.511719zm-166.25-21.332031h163.285156l92.414063-55.445312-51.199219-51.222657h-163.285156l-92.414062 55.445313zm0 0" />
    <path
        d="m117.847656 384c-5.886718 0-10.667968-4.777344-10.667968-10.667969v-362.664062c0-5.890625 4.78125-10.667969 10.667968-10.667969 5.886719 0 10.667969 4.777344 10.667969 10.667969v362.664062c0 5.890625-4.78125 10.667969-10.667969 10.667969zm0 0" />
    <path
        d="m288.515625 384c-5.890625 0-10.667969-4.777344-10.667969-10.667969v-362.664062c0-5.890625 4.777344-10.667969 10.667969-10.667969 5.886719 0 10.664063 4.777344 10.664063 10.667969v362.664062c0 5.890625-4.777344 10.667969-10.664063 10.667969zm0 0" />
    <path
        d="m245.847656 512h-170.667968c-2.835938 0-5.546876-1.128906-7.550782-3.113281l-64-64c-1.984375-2.007813-3.113281-4.714844-3.113281-7.554688v-362.664062c0-5.890625 4.777344-10.667969 10.664063-10.667969 5.890624 0 10.667968 4.777344 10.667968 10.667969v358.25l57.75 57.75h163.285156l98.964844-59.371094v-356.628906c0-5.890625 4.777344-10.667969 10.667969-10.667969 5.886719 0 10.664063 4.777344 10.664063 10.667969v362.664062c0 3.757813-1.960938 7.210938-5.183594 9.152344l-106.667969 64c-1.640625 1.003906-3.539063 1.515625-5.480469 1.515625zm0 0" />
    <path
        d="m75.179688 512c-5.886719 0-10.664063-4.777344-10.664063-10.667969v-362.664062c0-5.890625 4.777344-10.667969 10.664063-10.667969 5.890624 0 10.667968 4.777344 10.667968 10.667969v362.664062c0 5.890625-4.777344 10.667969-10.667968 10.667969zm0 0" />
    <path
        d="m245.847656 512c-5.886718 0-10.667968-4.777344-10.667968-10.667969v-362.664062c0-5.890625 4.78125-10.667969 10.667968-10.667969 5.886719 0 10.667969 4.777344 10.667969 10.667969v362.664062c0 5.890625-4.78125 10.667969-10.667969 10.667969zm0 0" />
</svg>