<svg height="512pt" viewBox="0 0 512.0165 512" width="512pt" xmlns="http://www.w3.org/2000/svg">
    <path
        d="m511.367188 441.394531c-1.277344 2.558594-2.984376 4.480469-5.546876 5.546875l-138.664062 64c-1.496094.640625-2.988281 1.066406-4.480469 1.066406h-213.335937c-1.492188 0-2.984375-.425781-4.476563-1.066406l-138.667969-64c-2.558593-1.066406-4.265624-2.988281-5.332031-5.546875l169.8125-68.054687h170.664063zm0 0"
        fill="#26c6da" />
    <path
        d="m256.007812.433594v.214844l-85.332031 372.691406-169.8125 68.054687c-.214843-.214843-.429687-.640625-.429687-.851562-.851563-2.773438-.4257815-5.976563 1.066406-8.535157l245.335938-426.667968c1.917968-3.199219 5.546874-4.90625 9.171874-4.90625zm0 0"
        fill="#00bcd4" />
    <path
        d="m511.582031 440.542969c0 .210937-.214843.636719-.214843.851562l-170.027344-68.054687-85.332032-372.691406v-.214844c3.628907 0 7.253907 1.707031 9.171876 4.90625l245.335937 426.667968c1.492187 2.558594 1.917969 5.761719 1.066406 8.535157zm0 0"
        fill="#00bcd4" />
    <path d="m341.339844 373.339844h-170.664063l85.332031-372.691406zm0 0" fill="#4dd0e1" />
    <path
        d="m501.339844 448.007812c-1.320313 0-2.664063-.234374-3.964844-.769531l-158.101562-63.230469h-166.527344l-158.101563 63.230469c-5.441406 2.175781-11.671875-.488281-13.847656-5.949219-2.195313-5.460937.449219-11.671874 5.929687-13.867187l160-64c1.238282-.492187 2.605469-.746094 3.949219-.746094h170.664063c1.347656 0 2.710937.253907 3.96875.765625l160 64c5.484375 2.199219 8.128906 8.40625 5.933594 13.867188-1.664063 4.160156-5.675782 6.699218-9.902344 6.699218zm0 0" />
    <path
        d="m362.675781 512.007812h-213.335937c-1.535156 0-3.070313-.339843-4.476563-.980468l-138.667969-64c-2.710937-1.257813-4.777343-3.585938-5.695312-6.445313-.898438-2.855469-.578125-5.949219.917969-8.554687l245.332031-426.664063c3.796875-6.636719 14.699219-6.636719 18.496094 0l245.332031 426.664063c1.492187 2.605468 1.8125 5.699218.917969 8.554687-.917969 2.859375-2.988282 5.1875-5.695313 6.445313l-138.667969 64c-1.386718.640625-2.921874.980468-4.457031.980468zm-211.007812-21.332031h208.660156l125.929687-58.132812-230.25-400.472657-230.273437 400.472657zm0 0" />
    <path
        d="m170.675781 384.007812c-.789062 0-1.621093-.085937-2.433593-.277343-5.757813-1.34375-9.300782-7.105469-7.933594-12.84375l85.332031-362.664063c1.324219-5.71875 7.039063-9.261718 12.820313-7.9375 5.761718 1.34375 9.300781 7.105469 7.9375 12.84375l-85.335938 362.664063c-1.148438 4.910156-5.523438 8.214843-10.386719 8.214843zm0 0" />
    <path
        d="m341.339844 384.007812c-4.863282 0-9.234375-3.304687-10.367188-8.214843l-85.332031-362.664063c-1.34375-5.738281 2.195313-11.476562 7.9375-12.84375 5.78125-1.324218 11.476563 2.21875 12.820313 7.9375l85.332031 362.664063c1.34375 5.738281-2.195313 11.476562-7.9375 12.84375-.828125.191406-1.660157.277343-2.453125.277343zm0 0" />
</svg>