<svg height="512pt" viewBox="-117 0 512 512" width="512pt" xmlns="http://www.w3.org/2000/svg">
    <path
        d="m277.355469 288c0 1.921875-.640625 3.839844-1.492188 5.546875l-128 213.332031c-1.921875 3.199219-5.335937 5.121094-9.175781 5.121094s-7.253906-1.921875-9.171875-5.121094l-128-213.332031c-.851563-1.707031-1.4921875-3.625-1.4921875-5.546875zm0 0"
        fill="#00bcd4" />
    <path
        d="m277.355469 288h-277.3320315c0-1.492188.4257815-2.988281 1.0664065-4.480469l128-277.332031c3.414062-7.46875 15.785156-7.46875 19.199218 0l128 277.332031c.640626 1.492188 1.066407 2.988281 1.066407 4.480469zm0 0"
        fill="#4dd0e1" />
    <path
        d="m266.6875 298.667969h-256c-3.625 0-7.015625-1.855469-8.980469-4.90625-1.960937-3.074219-2.21875-6.914063-.703125-10.21875l128-277.335938c3.5-7.550781 15.871094-7.550781 19.371094 0l128 277.335938c1.515625 3.304687 1.257812 7.167969-.703125 10.21875-1.964844 3.050781-5.355469 4.90625-8.984375 4.90625zm-239.335938-21.335938h222.675782l-111.339844-241.214843zm0 0" />
    <path
        d="m10.6875 298.667969c-3.925781 0-7.679688-2.175781-9.554688-5.890625-2.648437-5.269532-.492187-11.667969 4.777344-14.3125l9.535156-4.78125c5.269532-2.644532 11.671876-.46875 14.316407 4.78125 2.644531 5.269531.511719 11.667968-4.757813 14.3125l-9.535156 4.78125c-1.539062.746094-3.160156 1.109375-4.78125 1.109375zm0 0" />
    <path
        d="m63.808594 272.105469c-3.925782 0-7.679688-2.175781-9.558594-5.886719-2.644531-5.269531-.488281-11.667969 4.78125-14.316406l21.78125-10.898438c5.269531-2.648437 11.667969-.46875 14.3125 4.777344 2.648438 5.269531.492188 11.667969-4.777344 14.316406l-21.78125 10.898438c-1.535156.746094-3.15625 1.109375-4.757812 1.109375zm0 0" />
    <path
        d="m148.226562 239.445312c-1.601562 0-3.222656-.363281-4.757812-1.128906l-4.78125-2.390625-4.777344 2.390625c-5.289062 2.644532-11.667968.46875-14.316406-4.78125-2.644531-5.269531-.488281-11.667968 4.78125-14.3125l9.535156-4.78125c3.007813-1.492187 6.550782-1.492187 9.535156 0l9.535157 4.78125c5.269531 2.644532 7.40625 9.042969 4.78125 14.3125-1.855469 3.734375-5.632813 5.910156-9.535157 5.910156zm0 0" />
    <path
        d="m213.570312 272.128906c-1.601562 0-3.222656-.363281-4.757812-1.132812l-21.78125-10.898438c-5.269531-2.648437-7.402344-9.046875-4.78125-14.316406 2.648438-5.246094 9.046875-7.425781 14.316406-4.777344l21.78125 10.898438c5.269532 2.648437 7.402344 9.046875 4.777344 14.316406-1.875 3.734375-5.628906 5.910156-9.554688 5.910156zm0 0" />
    <path
        d="m266.6875 298.667969c-1.597656 0-3.21875-.363281-4.757812-1.132813l-9.535157-4.777344c-5.269531-2.644531-7.402343-9.046874-4.777343-14.316406 2.644531-5.246094 9.046874-7.421875 14.3125-4.777344l9.539062 4.777344c5.269531 2.648438 7.402344 9.046875 4.777344 14.316406-1.898438 3.734376-5.652344 5.910157-9.558594 5.910157zm0 0" />
    <path
        d="m138.6875 234.667969c-5.886719 0-10.664062-4.78125-10.664062-10.667969v-10.667969c0-5.886719 4.777343-10.664062 10.664062-10.664062 5.890625 0 10.667969 4.777343 10.667969 10.664062v10.667969c0 5.886719-4.777344 10.667969-10.667969 10.667969zm0 0" />
    <path
        d="m138.6875 176c-5.886719 0-10.664062-4.777344-10.664062-10.667969v-24c0-5.886719 4.777343-10.664062 10.664062-10.664062 5.890625 0 10.667969 4.777343 10.667969 10.664062v24c0 5.890625-4.777344 10.667969-10.667969 10.667969zm0-72c-5.886719 0-10.664062-4.777344-10.664062-10.667969v-24c0-5.886719 4.777343-10.664062 10.664062-10.664062 5.890625 0 10.667969 4.777343 10.667969 10.664062v24c0 5.890625-4.777344 10.667969-10.667969 10.667969zm0 0" />
    <path
        d="m138.6875 32c-5.886719 0-10.664062-4.777344-10.664062-10.667969v-10.664062c0-5.890625 4.777343-10.667969 10.664062-10.667969 5.890625 0 10.667969 4.777344 10.667969 10.667969v10.664062c0 5.890625-4.777344 10.667969-10.667969 10.667969zm0 0" />
    <path
        d="m138.6875 512c-5.886719 0-10.664062-4.777344-10.664062-10.667969v-10.664062c0-5.890625 4.777343-10.667969 10.664062-10.667969 5.890625 0 10.667969 4.777344 10.667969 10.667969v10.664062c0 5.890625-4.777344 10.667969-10.667969 10.667969zm0 0" />
    <path
        d="m138.6875 454.785156c-5.886719 0-10.664062-4.78125-10.664062-10.667968v-23.273438c0-5.890625 4.777343-10.667969 10.664062-10.667969 5.890625 0 10.667969 4.777344 10.667969 10.667969v23.273438c0 5.910156-4.777344 10.667968-10.667969 10.667968zm0-69.804687c-5.886719 0-10.664062-4.777344-10.664062-10.664063v-23.277344c0-5.886718 4.777343-10.664062 10.664062-10.664062 5.890625 0 10.667969 4.777344 10.667969 10.664062v23.277344c0 5.886719-4.777344 10.664063-10.667969 10.664063zm0-69.84375c-5.886719 0-10.664062-4.78125-10.664062-10.667969v-23.273438c0-5.886718 4.777343-10.667968 10.664062-10.667968 5.890625 0 10.667969 4.78125 10.667969 10.667968v23.273438c0 5.910156-4.777344 10.667969-10.667969 10.667969zm0 0" />
    <path
        d="m138.6875 245.332031c-5.886719 0-10.664062-4.777343-10.664062-10.664062v-10.667969c0-5.886719 4.777343-10.667969 10.664062-10.667969 5.890625 0 10.667969 4.78125 10.667969 10.667969v10.667969c0 5.886719-4.777344 10.664062-10.667969 10.664062zm0 0" />
    <path
        d="m138.6875 512c-3.753906 0-7.210938-1.960938-9.152344-5.183594l-128-213.332031c-1.980468-3.285156-2.023437-7.40625-.125-10.730469 1.898438-3.351562 5.4375-5.421875 9.277344-5.421875h256c3.839844 0 7.382812 2.070313 9.28125 5.421875 1.898438 3.324219 1.835938 7.445313-.128906 10.730469l-128 213.332031c-1.941406 3.222656-5.394532 5.183594-9.152344 5.183594zm-109.160156-213.332031 109.160156 181.929687 109.164062-181.929687zm0 0" />
</svg>