<svg height="512pt" viewBox="0 0 512.02106 512" width="512pt" xmlns="http://www.w3.org/2000/svg">
    <path
        d="m.648438 441.417969c1.28125 2.558593 2.988281 4.476562 5.546874 5.546875l138.667969 64c1.492188.636718 2.984375 1.066406 4.476563 1.066406h213.335937c1.492188 0 2.984375-.429688 4.480469-1.066406l138.664062-64c2.5625-1.070313 4.269532-2.988282 5.335938-5.546875l-169.816406-68.054688h-170.664063zm0 0"
        fill="#26c6da" />
    <path
        d="m256.007812.457031v.210938l85.332032 372.695312 169.816406 68.054688c.210938-.214844.425781-.640625.425781-.855469.851563-2.773438.425781-5.972656-1.066406-8.53125l-245.335937-426.667969c-1.917969-3.199219-5.542969-4.90625-9.171876-4.90625zm0 0"
        fill="#00bcd4" />
    <path
        d="m.433594 440.5625c0 .214844.214844.640625.214844.855469l170.027343-68.054688 85.332031-372.695312v-.210938c-3.625 0-7.253906 1.707031-9.171874 4.90625l-245.335938 426.667969c-1.4921875 2.558594-1.917969 5.757812-1.066406 8.53125zm0 0"
        fill="#00bcd4" />
    <path d="m170.675781 373.363281h170.664063l-85.332032-372.695312zm0 0" fill="#4dd0e1" />
    <path
        d="m10.675781 448.03125c-4.460937 0-8.621093-2.816406-10.113281-7.296875-1.855469-5.589844 1.152344-11.628906 6.742188-13.484375l192-64c1.085937-.363281 2.21875-.554688 3.371093-.554688h170.664063c1.664062 0 3.285156.386719 4.78125 1.132813l128 64c5.269531 2.644531 7.402344 9.042969 4.777344 14.3125s-9.042969 7.382813-14.3125 4.78125l-125.761719-62.890625h-166.421875l-190.355469 63.445312c-1.132813.382813-2.261719.554688-3.371094.554688zm0 0" />
    <path
        d="m202.675781 384.03125c-.511719 0-1.023437-.023438-1.558593-.109375-5.824219-.851563-9.855469-6.269531-9.003907-12.09375l53.335938-362.667969c.851562-5.824218 6.078125-9.917968 12.09375-9.003906 5.824219.855469 9.855469 6.273438 9.003906 12.097656l-53.332031 362.667969c-.769532 5.289063-5.3125 9.109375-10.539063 9.109375zm0 0" />
    <path
        d="m373.339844 384.03125c-4.5 0-8.679688-2.859375-10.152344-7.382812l-117.332031-362.667969c-1.816407-5.609375 1.257812-11.605469 6.867187-13.417969 5.632813-1.792969 11.625 1.257812 13.417969 6.871094l117.335937 362.664062c1.8125 5.613282-1.261718 11.605469-6.871093 13.421875-1.066407.339844-2.175781.511719-3.265625.511719zm0 0" />
    <path
        d="m362.675781 512.03125h-224c-1.664062 0-3.285156-.386719-4.78125-1.132812l-128-64c-2.621093-1.320313-4.585937-3.648438-5.4375-6.464844-.855469-2.816406-.4921872-5.84375.960938-8.382813l245.332031-426.667969c3.816406-6.632812 14.675781-6.632812 18.496094 0l245.332031 426.667969c1.492187 2.601563 1.8125 5.695313.917969 8.554688-.894532 2.859375-2.988282 5.183593-5.695313 6.441406l-138.667969 64c-1.386718.640625-2.921874.984375-4.457031.984375zm-221.484375-21.335938h219.136719l125.953125-58.132812-230.273438-400.46875-230.441406 400.789062zm0 0" />
    <path
        d="m138.675781 512.03125c-.832031 0-1.664062-.085938-2.496093-.300781-5.738282-1.363281-9.257813-7.125-7.894532-12.863281l117.332032-490.667969c1.367187-5.714844 7.167968-9.234375 12.867187-7.890625 5.738281 1.363281 9.257813 7.125 7.890625 12.863281l-117.332031 490.664063c-1.152344 4.910156-5.523438 8.195312-10.367188 8.195312zm0 0" />
    <path
        d="m362.675781 512.03125c-4.90625 0-9.324219-3.414062-10.410156-8.40625l-106.667969-490.667969c-1.257812-5.757812 2.410156-11.433593 8.148438-12.691406 5.804687-1.28125 11.433594 2.410156 12.695312 8.148437l106.664063 490.667969c1.261719 5.757813-2.410157 11.433594-8.148438 12.691407-.789062.191406-1.535156.257812-2.28125.257812zm0 0" />
</svg>