<svg height="512pt" viewBox="-21 0 512 512.02133" width="512pt" xmlns="http://www.w3.org/2000/svg">
    <path d="m458.695312 138.6875-106.664062 42.667969-117.335938-170.667969zm0 0" fill="#b2ebf2" />
    <path d="m458.695312 138.6875v234.667969l-106.664062-192zm0 0" fill="#00bcd4" />
    <path d="m458.695312 373.355469-224 21.332031 117.335938-213.332031zm0 0" fill="#00acc1" />
    <path d="m117.363281 181.355469-106.667969 191.785156v-234.453125zm0 0" fill="#00bcd4" />
    <path d="m234.695312 394.6875v106.667969l-224-128zm0 0" fill="#4dd0e1" />
    <path d="m458.695312 373.355469-224 128v-106.667969zm0 0" fill="#26c6da" />
    <path d="m234.695312 10.6875-117.332031 170.667969-106.667969-42.667969zm0 0" fill="#80deea" />
    <path d="m352.03125 181.355469h-234.667969l117.332031-170.667969zm0 0" fill="#4dd0e1" />
    <path d="m352.03125 181.355469-117.335938 213.332031-117.332031-213.332031zm0 0"
        fill="#00bcd4" />
    <path d="m234.695312 394.6875-224-21.332031v-.214844l106.667969-191.785156zm0 0"
        fill="#00acc1" />
    <path
        d="m352.03125 341.355469h-10.667969c-5.886719 0-10.667969-4.78125-10.667969-10.667969 0-4.011719 2.21875-7.53125 5.527344-9.34375 0-3.753906 1.984375-7.402344 5.523438-9.34375 5.183594-2.835938 11.648437-.9375 14.488281 4.203125l5.140625 9.34375c1.8125 3.304687 1.769531 7.339844-.171875 10.582031-1.917969 3.21875-5.398437 5.226563-9.171875 5.226563zm0 0" />
    <path
        d="m327.433594 296.617188c-3.753906 0-7.425782-2.003907-9.34375-5.523438l-9.730469-17.6875c-2.835937-5.160156-.957031-11.644531 4.203125-14.503906 5.183594-2.839844 11.648438-.941406 14.484375 4.203125l9.730469 17.683593c2.835937 5.164063.960937 11.648438-4.203125 14.507813-1.644531.917969-3.390625 1.320313-5.140625 1.320313zm-29.183594-53.074219c-3.757812 0-7.425781-2.007813-9.34375-5.527344l-9.730469-17.683594c-2.835937-5.164062-.960937-11.648437 4.203125-14.507812 5.164063-2.835938 11.648438-.9375 14.484375 4.203125l9.730469 17.683594c2.835938 5.164062.957031 11.648437-4.203125 14.507812-1.644531.917969-3.414063 1.324219-5.140625 1.324219zm-29.207031-53.078125c-3.753907 0-7.402344-2.007813-9.34375-5.527344l-9.75-17.683594c-2.835938-5.164062-.960938-11.648437 4.203125-14.484375 5.183594-2.902343 11.625-.960937 14.484375 4.179688l9.75 17.683593c2.835937 5.164063.960937 11.648438-4.203125 14.507813-1.640625.898437-3.390625 1.324219-5.140625 1.324219zm0 0" />
    <path
        d="m239.839844 137.367188c-1.792969 0-3.566406-.449219-5.164063-1.324219-3.09375 1.683593-6.933593 1.835937-10.28125 0-5.164062-2.859375-7.042969-9.34375-4.203125-14.507813l5.140625-9.34375c1.898438-3.371094 5.480469-5.503906 9.363281-5.503906 3.90625 0 7.488282 2.132812 9.34375 5.546875l5.144532 9.34375c2.835937 5.140625.9375 11.648437-4.226563 14.484375-1.621093.898438-3.390625 1.304688-5.117187 1.304688zm0 0" />
    <path
        d="m141.960938 296.597656c-1.75 0-3.5-.425781-5.140626-1.324218-5.164062-2.835938-7.042968-9.320313-4.203124-14.484376l9.75-17.683593c2.855468-5.144531 9.320312-7.042969 14.484374-4.203125 5.164063 2.859375 7.039063 9.34375 4.203126 14.503906l-9.75 17.6875c-1.941407 3.519531-5.589844 5.503906-9.34375 5.503906zm29.183593-53.078125c-1.75 0-3.5-.425781-5.140625-1.320312-5.164062-2.859375-7.039062-9.347657-4.203125-14.507813l9.75-17.664062c2.816407-5.140625 9.300781-7.039063 14.484375-4.203125 5.164063 2.859375 7.039063 9.34375 4.203125 14.507812l-9.726562 17.664063c-1.941407 3.519531-5.589844 5.523437-9.367188 5.523437zm29.207031-53.078125c-1.75 0-3.5-.425781-5.144531-1.320312-5.160156-2.859375-7.039062-9.34375-4.199219-14.507813l9.726563-17.683593c2.835937-5.144532 9.320313-7.019532 14.484375-4.203126 5.164062 2.859376 7.039062 9.34375 4.203125 14.503907l-9.726563 17.6875c-1.921874 3.519531-5.589843 5.523437-9.34375 5.523437zm0 0" />
    <path
        d="m128.03125 341.355469h-10.667969c-3.777343 0-7.253906-2.007813-9.171875-5.226563-1.921875-3.242187-1.984375-7.277344-.171875-10.5625l5.140625-9.34375c2.835938-5.160156 9.324219-7.058594 14.484375-4.222656 3.542969 1.941406 5.527344 5.589844 5.527344 9.34375 3.304687 1.792969 5.523437 5.332031 5.523437 9.34375 0 5.886719-4.777343 10.667969-10.664062 10.667969zm0 0" />
    <path
        d="m302.578125 341.355469h-19.390625c-5.886719 0-10.667969-4.78125-10.667969-10.667969s4.78125-10.667969 10.667969-10.667969h19.390625c5.890625 0 10.667969 4.78125 10.667969 10.667969s-4.777344 10.667969-10.667969 10.667969zm-58.175781 0h-19.390625c-5.886719 0-10.667969-4.78125-10.667969-10.667969s4.78125-10.667969 10.667969-10.667969h19.390625c5.890625 0 10.667968 4.78125 10.667968 10.667969s-4.777343 10.667969-10.667968 10.667969zm-58.175782 0h-19.414062c-5.886719 0-10.664062-4.78125-10.664062-10.667969s4.777343-10.667969 10.664062-10.667969h19.394531c5.886719 0 10.664063 4.78125 10.664063 10.667969s-4.753906 10.667969-10.644532 10.667969zm0 0" />
    <path
        d="m10.695312 384.019531c-4.222656 0-8.234374-2.535156-9.898437-6.695312-2.195313-5.484375.46875-11.691407 5.953125-13.847657l9.898438-3.96875c5.460937-2.195312 11.667968.449219 13.867187 5.933594 2.195313 5.480469-.46875 11.6875-5.953125 13.84375l-9.898438 3.96875c-1.300781.511719-2.644531.765625-3.96875.765625zm0 0" />
    <path
        d="m55.347656 366.164062c-4.222656 0-8.234375-2.539062-9.898437-6.699218-2.199219-5.480469.46875-11.6875 5.953125-13.863282l17.363281-6.914062c5.460937-2.195312 11.667969.449219 13.867187 5.929688 2.195313 5.484374-.492187 11.671874-5.953124 13.847656l-17.363282 6.933594c-1.324218.511718-2.644531.765624-3.96875.765624zm0 0" />
    <path
        d="m123.421875 350.144531c-3.390625 0-6.71875-1.621093-8.8125-4.628906l-1.214844-1.773437-1.984375.792968c-5.460937 2.21875-11.667968-.472656-13.867187-5.933594-2.195313-5.480468.472656-11.691406 5.953125-13.84375l9.898437-3.96875c4.628907-1.855468 9.921875-.253906 12.757813 3.863282l6.039062 8.789062c3.328125 4.863282 2.109375 11.496094-2.753906 14.824219-1.835938 1.28125-3.945312 1.878906-6.015625 1.878906zm0 0" />
    <path
        d="m202.355469 464.960938c-3.390625 0-6.71875-1.601563-8.8125-4.628907l-13.160157-19.117187c-3.328124-4.863282-2.113281-11.496094 2.75-14.824219 4.863282-3.328125 11.5-2.132813 14.828126 2.75l13.164062 19.117187c3.328125 4.863282 2.109375 11.496094-2.753906 14.824219-1.835938 1.28125-3.925782 1.878907-6.015625 1.878907zm-39.46875-57.386719c-3.390625 0-6.71875-1.621094-8.808594-4.628907l-13.164063-19.136718c-3.328124-4.863282-2.109374-11.5 2.753907-14.828125 4.863281-3.304688 11.496093-2.089844 14.824219 2.753906l13.164062 19.136719c3.328125 4.863281 2.113281 11.496094-2.75 14.824218-1.835938 1.257813-3.949219 1.878907-6.019531 1.878907zm0 0" />
    <path
        d="m234.695312 512.019531c-3.519531 0-6.804687-1.726562-8.789062-4.628906l-6.035156-8.789063c-3.328125-4.863281-2.113282-11.496093 2.75-14.824218 3.734375-2.582032 8.535156-2.433594 12.074218 0 3.542969-2.410156 8.363282-2.5625 12.074219 0 4.867188 3.328125 6.082031 9.984375 2.753907 14.824218l-6.039063 8.789063c-1.984375 2.902344-5.269531 4.628906-8.789063 4.628906zm0 0" />
    <path
        d="m267.039062 464.960938c-2.089843 0-4.183593-.597657-6.039062-1.878907-4.863281-3.328125-6.078125-9.984375-2.75-14.824219l13.160156-19.136718c3.351563-4.824219 10.007813-6.058594 14.828125-2.753906 4.863281 3.328124 6.078125 9.984374 2.75 14.828124l-13.160156 19.136719c-2.050781 3.007813-5.398437 4.628907-8.789063 4.628907zm39.464844-57.410157c-2.089844 0-4.179687-.597656-6.035156-1.875-4.867188-3.328125-6.082031-9.984375-2.753906-14.828125l13.164062-19.113281c3.347656-4.886719 10.003906-6.058594 14.824219-2.753906 4.867187 3.328125 6.082031 9.984375 2.753906 14.828125l-13.164062 19.113281c-2.046875 3.007813-5.394531 4.628906-8.789063 4.628906zm0 0" />
    <path
        d="m345.972656 350.144531c-2.09375 0-4.183594-.597656-6.039062-1.878906-4.863282-3.328125-6.078125-9.984375-2.75-14.824219l6.035156-8.789062c2.835938-4.097656 8.105469-5.71875 12.757812-3.863282l9.898438 3.96875c5.460938 2.175782 8.128906 8.382813 5.953125 13.84375-2.199219 5.460938-8.40625 8.128907-13.867187 5.933594l-1.984376-.792968-1.214843 1.773437c-2.050781 3.007813-5.398438 4.628906-8.789063 4.628906zm0 0" />
    <path
        d="m414.046875 366.144531c-1.324219 0-2.667969-.257812-3.96875-.769531l-17.367187-6.910156c-5.460938-2.199219-8.125-8.40625-5.949219-13.867188 2.175781-5.484375 8.402343-8.128906 13.867187-5.929687l17.363282 6.933593c5.460937 2.175782 8.128906 8.382813 5.953124 13.84375-1.664062 4.160157-5.675781 6.699219-9.898437 6.699219zm0 0" />
    <path
        d="m458.695312 384.019531c-1.320312 0-2.664062-.253906-3.964843-.765625l-9.902344-3.96875c-5.460937-2.175781-8.125-8.382812-5.949219-13.84375 2.175782-5.484375 8.40625-8.128906 13.867188-5.933594l9.898437 3.96875c5.460938 2.175782 8.125 8.386719 5.949219 13.847657-1.664062 4.160156-5.671875 6.695312-9.898438 6.695312zm0 0" />
    <path
        d="m234.695312 128.019531c-5.886718 0-10.664062-4.777343-10.664062-10.664062v-10.667969c0-5.886719 4.777344-10.667969 10.664062-10.667969 5.890626 0 10.667969 4.78125 10.667969 10.667969v10.667969c0 5.886719-4.777343 10.664062-10.667969 10.664062zm0 0" />
    <path
        d="m234.695312 87.488281c-5.886718 0-10.664062-4.777343-10.664062-10.667969v-14.933593c0-5.886719 4.777344-10.664063 10.664062-10.664063 5.890626 0 10.667969 4.777344 10.667969 10.664063v14.933593c0 5.890626-4.777343 10.667969-10.667969 10.667969zm0 0" />
    <path
        d="m234.695312 42.6875c-5.886718 0-10.664062-4.777344-10.664062-10.667969v-10.664062c0-5.890625 4.777344-10.667969 10.664062-10.667969 5.890626 0 10.667969 4.777344 10.667969 10.667969v10.664062c0 5.890625-4.777343 10.667969-10.667969 10.667969zm0 0" />
    <path
        d="m352.03125 341.355469c-1.75 0-3.519531-.449219-5.164062-1.324219-5.140626-2.859375-7.019532-9.34375-4.136719-14.507812l5.183593-9.34375c2.855469-5.160157 9.320313-6.972657 14.503907-4.160157 5.144531 2.859375 7.019531 9.347657 4.140625 14.507813l-5.183594 9.34375c-1.964844 3.5-5.613281 5.484375-9.34375 5.484375zm0 0" />
    <path
        d="m381.277344 288.683594c-1.75 0-3.539063-.449219-5.160156-1.324219-5.164063-2.878906-7.019532-9.363281-4.140626-14.527344l12.03125-21.675781c2.859376-5.117188 9.367188-6.976562 14.507813-4.136719 5.164063 2.878907 7.019531 9.363281 4.136719 14.527344l-12.03125 21.675781c-1.960938 3.476563-5.589844 5.460938-9.34375 5.460938zm36.117187-65.003906c-1.75 0-3.539062-.449219-5.160156-1.324219-5.164063-2.878907-7.019531-9.363281-4.140625-14.527344l12.03125-21.671875c2.859375-5.121094 9.34375-6.957031 14.507812-4.140625 5.164063 2.878906 7.019532 9.367187 4.136719 14.527344l-12.03125 21.675781c-1.960937 3.5-5.589843 5.460938-9.34375 5.460938zm0 0" />
    <path
        d="m453.511719 158.699219c-1.75 0-3.519531-.449219-5.160157-1.324219-3.820312-2.132812-5.824218-6.269531-5.441406-10.34375-3.585937-2.007812-5.84375-5.996094-5.441406-10.347656.554688-5.867188 5.847656-9.984375 11.628906-9.601563l10.621094 1.023438c3.585938.363281 6.742188 2.476562 8.429688 5.675781 1.683593 3.15625 1.640624 6.976562-.109376 10.132812l-5.203124 9.28125c-1.941407 3.519532-5.570313 5.503907-9.324219 5.503907zm0 0" />
    <path
        d="m405.40625 144.277344c-.339844 0-.683594-.019532-1.023438-.042969l-21.335937-2.027344c-5.863281-.554687-10.175781-5.78125-9.597656-11.625.554687-5.847656 5.632812-9.941406 11.625-9.621093l21.335937 2.027343c5.863282.554688 10.175782 5.78125 9.597656 11.625-.511718 5.503907-5.160156 9.664063-10.601562 9.664063zm-341.417969 0c-5.441406 0-10.089843-4.140625-10.605469-9.664063-.554687-5.867187 3.734376-11.070312 9.601563-11.625l21.332031-2.027343c6.015625-.363282 11.074219 3.773437 11.628906 9.621093.554688 5.84375-3.734374 11.070313-9.601562 11.625l-21.332031 2.027344c-.339844.023437-.683594.042969-1.023438.042969zm64.019531-6.078125c-5.4375 0-10.089843-4.121094-10.601562-9.644531-.554688-5.867188 3.734375-11.09375 9.601562-11.648438l21.332032-2.046875c6.035156-.382813 11.09375 3.753906 11.625 9.597656.554687 5.867188-3.730469 11.09375-9.597656 11.648438l-21.335938 2.050781c-.359375.019531-.703125.042969-1.023438.042969zm213.398438 0c-.339844 0-.683594-.023438-1.023438-.042969l-21.335937-2.050781c-5.863281-.554688-10.175781-5.78125-9.597656-11.648438.554687-5.84375 5.460937-9.960937 11.625-9.597656l21.335937 2.046875c5.84375.554688 10.152344 5.78125 9.597656 11.648438-.511718 5.503906-5.160156 9.644531-10.601562 9.644531zm-64.023438-6.125c-.339843 0-.679687-.019531-1.023437-.042969l-21.332031-2.027344c-5.867188-.554687-10.175782-5.78125-9.601563-11.625.554688-5.84375 5.632813-10.027344 11.628907-9.621094l21.332031 2.027344c5.867187.554688 10.175781 5.78125 9.601562 11.625-.511719 5.527344-5.164062 9.664063-10.605469 9.664063zm-85.375 0c-5.4375 0-10.089843-4.136719-10.601562-9.664063-.554688-5.84375 3.734375-11.070312 9.601562-11.625l21.332032-2.027344c6.035156-.449218 11.070312 3.777344 11.625 9.621094.554687 5.84375-3.730469 11.070313-9.597656 11.625l-21.335938 2.027344c-.339844.023438-.679688.042969-1.023438.042969zm0 0" />
    <path
        d="m15.878906 158.699219c-3.753906 0-7.378906-1.984375-9.34375-5.503907l-5.160156-9.34375c-1.75-3.136718-1.792969-6.957031-.109375-10.113281 1.664063-3.179687 4.84375-5.3125 8.429687-5.675781l10.601563-1.023438c5.757813-.363281 11.070313 3.734376 11.625 9.601563.429687 4.351563-1.832031 8.363281-5.4375 10.367187.402344 4.074219-1.621094 8.234376-5.441406 10.347657-1.640625.894531-3.414063 1.34375-5.164063 1.34375zm0 0" />
    <path
        d="m88.117188 288.683594c-3.757813 0-7.382813-1.984375-9.347657-5.484375l-12.03125-21.675781c-2.859375-5.140626-1-11.644532 4.140625-14.527344 5.140625-2.835938 11.648438-.980469 14.503906 4.140625l12.035157 21.675781c2.855469 5.140625 1 11.644531-4.140625 14.527344-1.621094.917968-3.414063 1.34375-5.160156 1.34375zm-36.097657-65.003906c-3.753906 0-7.382812-1.984376-9.34375-5.480469l-12.03125-21.65625c-2.882812-5.140625-1.023437-11.648438 4.136719-14.527344 5.164062-2.816406 11.648438-.980469 14.507812 4.140625l12.03125 21.671875c2.859376 5.140625 1.003907 11.648437-4.136718 14.527344-1.644532.898437-3.414063 1.324219-5.164063 1.324219zm0 0" />
    <path
        d="m117.363281 341.355469c-3.753906 0-7.382812-1.984375-9.34375-5.503907l-5.164062-9.324218c-2.859375-5.140625-1-11.648438 4.140625-14.507813 5.183594-2.8125 11.625-1 14.503906 4.160157l5.1875 9.34375c2.855469 5.144531 1 11.648437-4.140625 14.507812-1.640625.875-3.414063 1.324219-5.183594 1.324219zm0 0" />
    <path
        d="m234.695312 512.019531c-1.8125 0-3.648437-.445312-5.289062-1.386719l-224-128c-3.328125-1.917968-5.375-5.4375-5.375-9.277343v-234.667969c0-3.839844 2.046875-7.359375 5.375-9.28125l224-128c3.265625-1.875 7.316406-1.875 10.582031 0l224 128c3.328125 1.921875 5.375 5.441406 5.375 9.28125v234.667969c0 3.839843-2.046875 7.359375-5.375 9.277343l-224 128c-1.644531.941407-3.476562 1.386719-5.292969 1.386719zm-213.332031-144.851562 213.332031 121.898437 213.335938-121.898437v-222.292969l-213.335938-121.898438-213.332031 121.898438zm0 0" />
    <path
        d="m234.695312 405.355469c-3.882812 0-7.464843-2.132813-9.34375-5.527344l-117.332031-213.332031c-1.8125-3.308594-1.769531-7.339844.171875-10.582032 1.917969-3.222656 5.394532-5.226562 9.171875-5.226562h234.667969c3.773438 0 7.253906 2.003906 9.171875 5.226562 1.921875 3.242188 1.984375 7.273438.171875 10.582032l-117.335938 213.332031c-1.875 3.394531-5.460937 5.527344-9.34375 5.527344zm-99.285156-213.335938 99.285156 180.546875 99.285157-180.546875zm0 0" />
    <path
        d="m352.03125 192.019531c-3.4375 0-6.742188-1.664062-8.789062-4.628906l-108.546876-157.867187-108.542968 157.867187c-2.835938 4.117187-8.128906 5.699219-12.757813 3.863281l-106.664062-42.667968c-5.464844-2.195313-8.128907-8.40625-5.933594-13.867188 2.175781-5.460938 8.449219-8.105469 13.867187-5.929688l98.753907 39.507813 112.488281-163.644531c3.992188-5.78125 13.613281-5.78125 17.578125 0l112.492187 163.644531 98.753907-39.507813c5.417969-2.175781 11.667969.46875 13.863281 5.929688 2.199219 5.460938-.46875 11.671875-5.949219 13.847656l-106.667969 42.664063c-1.28125.535156-2.625.789062-3.945312.789062zm0 0" />
    <path
        d="m234.695312 501.355469c-5.886718 0-10.664062-4.78125-10.664062-10.667969v-96c0-5.886719 4.777344-10.667969 10.664062-10.667969 5.890626 0 10.667969 4.78125 10.667969 10.667969v96c0 5.886719-4.777343 10.667969-10.667969 10.667969zm0 0" />
    <path
        d="m235.699219 405.3125-226.027344-21.332031c-3.582031-.363281-6.742187-2.476563-8.425781-5.675781-1.683594-3.15625-1.644532-6.996094.105468-10.15625l106.667969-192c2.859375-5.117188 9.34375-6.976563 14.507813-4.136719 5.160156 2.878906 7.015625 9.34375 4.136718 14.527343l-98.75 177.75 207.765626 19.773438 205.757812-19.773438-98.75-177.75c-2.859375-5.164062-1.003906-11.648437 4.136719-14.527343 5.140625-2.839844 11.648437-.980469 14.507812 4.136719l106.664063 192c1.75 3.136718 1.792968 6.976562.109375 10.15625-1.6875 3.179687-4.84375 5.3125-8.425781 5.675781zm0 0" />
</svg>