<svg height="490.66667pt" viewBox="0 0 490.66667 490.66667" width="490.66667pt"
    xmlns="http://www.w3.org/2000/svg">
    <path
        d="m480 0h-469.332031c-5.890625 0-10.667969 4.777344-10.667969 10.667969v469.332031c0 5.886719 4.777344 10.667969 10.667969 10.667969h469.332031c5.886719 0 10.667969-4.78125 10.667969-10.667969v-469.332031c0-5.890625-4.78125-10.667969-10.667969-10.667969zm0 0"
        fill="#64b5f6" />
    <path
        d="m490.667969 245.332031c0 135.496094-109.839844 245.335938-245.335938 245.335938-135.492187 0-245.332031-109.839844-245.332031-245.335938 0-135.492187 109.839844-245.332031 245.332031-245.332031 135.496094 0 245.335938 109.839844 245.335938 245.332031zm0 0"
        fill="#2196f3" />
    <path
        d="m446.761719 368.339844-192-362.664063c-3.691407-6.957031-15.167969-6.957031-18.859375 0l-192 362.664063c-1.746094 3.308594-1.640625 7.296875.300781 10.496094 1.917969 3.203124 5.398437 5.164062 9.128906 5.164062h384c3.734375 0 7.210938-1.960938 9.132813-5.164062 1.941406-3.21875 2.046875-7.1875.296875-10.496094zm0 0"
        fill="#1976d2" />
    <path
        d="m480 490.667969h-469.332031c-5.890625 0-10.667969-4.78125-10.667969-10.667969v-469.332031c0-5.890625 4.777344-10.667969 10.667969-10.667969h469.332031c5.886719 0 10.667969 4.777344 10.667969 10.667969v469.332031c0 5.886719-4.78125 10.667969-10.667969 10.667969zm-458.667969-21.335938h448v-448h-448zm0 0" />
    <path
        d="m437.332031 384c-3.816406 0-7.53125-2.070312-9.429687-5.675781l-182.570313-344.851563-182.570312 344.851563c-2.75 5.207031-9.195313 7.191406-14.421875 4.4375-5.203125-2.75-7.1875-9.214844-4.4375-14.421875l192-362.664063c3.691406-6.976562 15.167968-6.976562 18.859375 0l192 362.664063c2.753906 5.207031.769531 11.648437-4.4375 14.421875-1.597657.832031-3.304688 1.238281-4.992188 1.238281zm0 0" />
    <path
        d="m245.332031 490.667969c-135.273437 0-245.332031-110.058594-245.332031-245.335938 0-135.273437 110.058594-245.332031 245.332031-245.332031 135.277344 0 245.335938 110.058594 245.335938 245.332031 0 135.277344-110.058594 245.335938-245.335938 245.335938zm0-469.335938c-123.519531 0-224 100.480469-224 224s100.480469 224 224 224 224-100.480469 224-224-100.480469-224-224-224zm0 0" />
    <path
        d="m426.667969 384h-373.335938c-5.886719 0-10.664062-4.777344-10.664062-10.667969 0-5.886719 4.777343-10.664062 10.664062-10.664062h373.335938c5.886719 0 10.664062 4.777343 10.664062 10.664062 0 5.890625-4.777343 10.667969-10.664062 10.667969zm0 0" />
</svg>