<svg height="512pt" viewBox="-86 0 512 512.02011" width="512pt" xmlns="http://www.w3.org/2000/svg">
    <path
        d="m233.398438 288.019531h-233.3867192c0-1.707031.4257812-3.414062 1.2773432-5.121093l148.054688-277.332032c1.492188-2.347656 3.625-4.265625 6.398438-5.121094zm0 0"
        fill="#64b5f6" />
    <path
        d="m338.996094 228.714844-138.667969 277.332031c-1.703125 3.199219-4.90625 5.546875-8.316406 5.972656h-1.28125c-.640625 0-1.492188 0-2.132813-.210937l44.800782-223.789063 104.746093-69.757812c2.132813 2.984375 2.34375 7.039062.851563 10.453125zm0 0"
        fill="#1e88e5" />
    <path
        d="m233.398438 288.019531-44.800782 223.789063c-2.347656-.429688-4.480468-1.707032-5.972656-3.628906l-180.054688-213.332032c-1.707031-1.921875-2.5585932-4.265625-2.5585932-6.828125zm0 0"
        fill="#42a5f5" />
    <path
        d="m338.144531 218.046875v.214844l-104.746093 69.757812-77.65625-287.574219c.640624-.210937 1.28125-.4257808 1.921874-.4257808 3.625-.2109372 7.039063 1.2812498 9.386719 4.0546878l170.664063 213.332031c.214844.214844.214844.425781.429687.640625zm0 0"
        fill="#2196f3" />
    <path
        d="m329.332031 234.6875h-202.664062c-3.117188 0-6.0625-1.34375-8.085938-3.710938-2.027343-2.347656-2.925781-5.484374-2.476562-8.535156l32-213.332031c.875-5.804687 6.273437-9.792969 12.140625-8.960937 5.824218.875 9.832031 6.292968 8.957031 12.117187l-30.140625 201.085937h190.269531c5.890625 0 10.667969 4.78125 10.667969 10.667969s-4.757812 10.667969-10.667969 10.667969zm0 0" />
    <path
        d="m190.667969 512.019531c-4.867188 0-9.238281-3.328125-10.390625-8.277343l-60.820313-263.550782-103.554687 57.171875c-5.183594 2.902344-11.648438 1.003907-14.484375-4.179687-2.859375-5.140625-.980469-11.648438 4.179687-14.484375l115.949219-64c2.941406-1.644531 6.464844-1.75 9.492187-.429688 3.074219 1.367188 5.3125 4.074219 6.058594 7.359375l64 277.335938c1.324219 5.738281-2.261718 11.457031-8 12.800781-.832031.167969-1.640625.253906-2.429687.253906zm0 0" />
    <path
        d="m233.332031 298.6875c-.0625 0-.148437 0-.234375 0h-222.355468c-3.757813 0-7.210938-1.964844-9.152344-5.183594-1.921875-3.199218-2.027344-7.191406-.257813-10.496094l147.820313-277.121093c.554687-1.109375 1.320312-2.132813 2.261718-3.007813 0-.019531 0-.019531 0-.019531.296876-.277344.597657-.515625.914063-.769531 4.503906-3.242188 10.753906-2.539063 14.402344 1.621094v.019531c.085937.109375.191406.234375.296875.363281l170.625 213.269531c1.855468 2.324219 2.667968 5.355469 2.21875 8.320313-.449219 2.945312-2.132813 5.570312-4.628906 7.234375l-95.808594 63.871093c-.980469.683594-2.113282 1.214844-3.347656 1.535157-.898438.234375-1.835938.363281-2.753907.363281zm-204.820312-21.335938h190.910156l-64.042969-237.820312zm153.75-220.117187 57.511719 213.699219 73.964843-49.324219zm0 0" />
    <path
        d="m190.667969 512.019531c-3.09375 0-6.101563-1.34375-8.152344-3.796875l-179.945313-213.332031c-3.796874-4.503906-3.222656-11.222656 1.28125-15.019531 4.5-3.820313 11.21875-3.199219 15.039063 1.28125l165.675781 196.414062 38.3125-191.617187c1.152344-5.78125 6.71875-9.597657 12.542969-8.382813 5.78125 1.152344 9.515625 6.761719 8.363281 12.542969l-42.664062 213.335937c-.8125 4.007813-3.839844 7.230469-7.808594 8.253907-.875.214843-1.75.320312-2.644531.320312zm0 0" />
    <path
        d="m190.667969 512.019531c-1.601563 0-3.222657-.363281-4.757813-1.128906-5.269531-2.648437-7.402344-9.046875-4.78125-14.316406l138.667969-277.332031c2.644531-5.269532 9.066406-7.445313 14.316406-4.78125 5.265625 2.648437 7.402344 9.046874 4.777344 14.316406l-138.667969 277.332031c-1.875 3.734375-5.652344 5.910156-9.554687 5.910156zm0 0" />
</svg>