<svg height="512pt" viewBox="-86 0 512 512.02011" width="512pt" xmlns="http://www.w3.org/2000/svg">
    <path
        d="m233.398438 288.019531h-233.3867192l1.2773432-5.121093 148.054688-277.332032c1.472656-2.347656 3.625-4.265625 6.398438-5.121094zm0 0"
        fill="#64b5f6" />
    <path
        d="m338.996094 228.714844-138.667969 277.332031c-1.703125 3.199219-4.882813 5.546875-8.316406 5.972656h-1.28125l-2.132813-.210937 44.800782-223.789063 104.746093-69.757812c2.132813 2.984375 2.34375 7.039062.851563 10.453125zm0 0"
        fill="#1e88e5" />
    <path
        d="m233.398438 288.019531-44.800782 223.789063c-2.347656-.429688-4.480468-1.707032-5.972656-3.628906l-180.035156-213.332032c-1.707032-1.921875-2.558594-4.265625-2.558594-6.828125zm0 0"
        fill="#42a5f5" />
    <path
        d="m338.144531 218.046875v.214844l-104.746093 69.757812-77.65625-287.574219 1.921874-.4257808c3.625-.2109372 7.039063 1.2812498 9.386719 4.0546878l170.664063 213.332031zm0 0"
        fill="#2196f3" />
    <path
        d="m157.109375 31.890625c-.511719 0-1.066406-.042969-1.601563-.125-5.824218-.875-9.832031-6.292969-8.960937-12.117187l1.582031-10.539063c.894532-5.804687 6.292969-9.792969 12.136719-8.960937 5.824219.875 9.835937 6.292968 8.960937 12.117187l-1.578124 10.539063c-.8125 5.289062-5.355469 9.085937-10.539063 9.085937zm0 0" />
    <path
        d="m135.476562 176.085938c-.511718 0-1.046874-.042969-1.601562-.128907-5.824219-.875-9.832031-6.292969-8.957031-12.117187l3.605469-24.042969c.875-5.804687 6.226562-9.855469 12.136718-8.960937 5.824219.875 9.835938 6.292968 8.960938 12.117187l-3.605469 24.042969c-.789063 5.289062-5.332031 9.089844-10.539063 9.089844zm10.816407-72.109376c-.511719 0-1.046875-.042968-1.601563-.128906-5.824218-.871094-9.832031-6.292968-8.957031-12.117187l3.605469-24.019531c.894531-5.804688 6.269531-9.835938 12.136718-8.960938 5.824219.875 9.835938 6.292969 8.960938 12.117188l-3.605469 24.023437c-.8125 5.289063-5.355469 9.085937-10.539062 9.085937zm0 0" />
    <path
        d="m137.332031 234.6875h-10.664062c-3.117188 0-6.0625-1.34375-8.085938-3.710938-2.027343-2.371093-2.925781-5.484374-2.476562-8.535156l1.578125-10.539062c.898437-5.800782 6.402344-9.792969 12.140625-8.960938 5.289062.789063 9.085937 5.335938 9.085937 10.539063 5.140625.746093 9.089844 5.183593 9.089844 10.539062 0 5.886719-4.757812 10.667969-10.667969 10.667969zm0 0" />
    <path
        d="m273.332031 234.6875h-22.65625c-5.886719 0-10.664062-4.78125-10.664062-10.667969s4.777343-10.667969 10.664062-10.667969h22.65625c5.890625 0 10.667969 4.78125 10.667969 10.667969s-4.757812 10.667969-10.667969 10.667969zm-67.988281 0h-22.65625c-5.886719 0-10.667969-4.78125-10.667969-10.667969s4.78125-10.667969 10.667969-10.667969h22.65625c5.886719 0 10.667969 4.78125 10.667969 10.667969s-4.78125 10.667969-10.667969 10.667969zm0 0" />
    <path
        d="m329.332031 234.6875h-10.664062c-5.890625 0-10.667969-4.78125-10.667969-10.667969s4.777344-10.667969 10.667969-10.667969h10.664062c5.890625 0 10.667969 4.78125 10.667969 10.667969s-4.757812 10.667969-10.667969 10.667969zm0 0" />
    <path
        d="m10.742188 298.6875c-3.757813 0-7.402344-2.007812-9.34375-5.527344-2.839844-5.140625-.960938-11.648437 4.199218-14.484375l9.347656-5.140625c5.117188-2.902344 11.644532-.960937 14.484376 4.179688 2.835937 5.144531.960937 11.648437-4.203126 14.488281l-9.34375 5.140625c-1.621093.917969-3.394531 1.34375-5.140624 1.34375zm0 0" />
    <path
        d="m58.976562 272.0625c-3.753906 0-7.402343-1.984375-9.34375-5.523438-2.839843-5.144531-.960937-11.648437 4.179688-14.488281l19.457031-10.730469c5.183594-2.898437 11.648438-1 14.503907 4.183594 2.839843 5.140625.960937 11.648438-4.179688 14.484375l-19.457031 10.730469c-1.640625.917969-3.410157 1.34375-5.160157 1.34375zm0 0" />
    <path
        d="m129.054688 245.074219c-3.882813 0-7.464844-2.132813-9.34375-5.523438-4.523438 1.066407-9.363282-.980469-11.734376-5.246093-2.835937-5.144532-.957031-11.648438 4.203126-14.488282l9.34375-5.140625c2.925781-1.640625 6.445312-1.769531 9.496093-.40625 3.050781 1.34375 5.289063 4.074219 6.035157 7.339844l2.390624 10.390625c1.320313 5.757812-2.261718 11.453125-8 12.796875-.789062.195313-1.601562.277344-2.390624.277344zm0 0" />
    <path
        d="m177.503906 454.976562c-4.863281 0-9.257812-3.328124-10.390625-8.277343l-5.375-23.320313c-1.324219-5.757812 2.261719-11.453125 8-12.796875 5.78125-1.324219 11.476563 2.257813 12.800781 8l5.375 23.316407c1.324219 5.757812-2.261718 11.453124-8 12.800781-.8125.191406-1.621093.277343-2.410156.277343zm-16.148437-69.953124c-4.867188 0-9.261719-3.328126-10.390625-8.277344l-5.375-23.339844c-1.324219-5.757812 2.261718-11.457031 8-12.800781 5.714844-1.320313 11.476562 2.261719 12.800781 8l5.375 23.339843c1.320313 5.761719-2.261719 11.457032-8 12.800782-.8125.191406-1.621094.277344-2.410156.277344zm-16.152344-69.972657c-4.863281 0-9.234375-3.328125-10.386719-8.277343l-5.378906-23.320313c-1.320312-5.738281 2.242188-11.453125 8-12.796875 5.742188-1.34375 11.457031 2.238281 12.800781 8l5.378907 23.316406c1.320312 5.738282-2.242188 11.457032-8 12.800782-.792969.191406-1.601563.277343-2.414063.277343zm0 0" />
    <path
        d="m190.667969 512.019531c-4.867188 0-9.261719-3.328125-10.390625-8.277343l-2.390625-10.390626c-1.320313-5.757812 2.261719-11.453124 8-12.796874 5.738281-1.324219 11.476562 2.261718 12.800781 8l2.390625 10.386718c1.320313 5.761719-2.261719 11.457032-8 12.800782-.8125.191406-1.621094.277343-2.410156.277343zm0 0" />
    <path
        d="m233.332031 298.6875c-.0625 0-.148437 0-.234375 0h-222.355468c-3.757813 0-7.210938-1.964844-9.152344-5.183594-1.921875-3.199218-2.027344-7.191406-.257813-10.496094l147.820313-277.121093c.554687-1.109375 1.320312-2.132813 2.261718-3.007813 0-.019531 0-.019531 0-.019531.296876-.277344.597657-.515625.914063-.769531 4.480469-3.242188 10.753906-2.539063 14.402344 1.621094v.019531c.085937.109375.191406.234375.296875.363281l170.625 213.269531c1.855468 2.324219 2.667968 5.355469 2.21875 8.320313-.449219 2.945312-2.132813 5.570312-4.628906 7.234375l-95.808594 63.871093c-.980469.683594-2.113282 1.214844-3.347656 1.535157-.898438.234375-1.835938.363281-2.753907.363281zm-204.820312-21.335938h190.910156l-64.042969-237.820312zm153.75-220.117187 57.511719 213.699219 73.964843-49.324219zm0 0" />
    <path
        d="m190.667969 512.019531c-3.09375 0-6.101563-1.34375-8.152344-3.796875l-179.945313-213.332031c-3.796874-4.503906-3.222656-11.222656 1.28125-15.019531 4.5-3.820313 11.21875-3.199219 15.039063 1.28125l165.675781 196.414062 38.3125-191.617187c1.152344-5.78125 6.65625-9.597657 12.542969-8.382813 5.78125 1.152344 9.515625 6.761719 8.363281 12.542969l-42.664062 213.335937c-.8125 4.007813-3.839844 7.230469-7.808594 8.253907-.875.214843-1.75.320312-2.644531.320312zm0 0" />
    <path
        d="m190.667969 512.019531c-1.601563 0-3.222657-.363281-4.757813-1.128906-5.269531-2.648437-7.402344-9.046875-4.78125-14.316406l138.667969-277.332031c2.644531-5.269532 9.046875-7.445313 14.316406-4.78125 5.265625 2.648437 7.402344 9.046874 4.777344 14.316406l-138.667969 277.332031c-1.875 3.734375-5.652344 5.910156-9.554687 5.910156zm0 0" />
</svg>