<svg height="512pt" viewBox="0 0 512 512.01138" width="512pt" xmlns="http://www.w3.org/2000/svg">
    <path
        d="m255.796875.4375-95.785156 372.90625-159.148438 68.269531v-.214843c-1.28125-2.988282-1.066406-6.402344.640625-9.386719l245.332032-426.667969c1.921874-3.199219 5.335937-4.90625 8.960937-4.90625zm0 0"
        fill="#2196f3" />
    <path
        d="m511.15625 441.398438v.214843l-159.144531-68.269531-95.789063-372.90625c3.628906 0 7.042969 1.707031 8.960938 4.90625l245.332031 426.667969c1.707031 2.984375 1.921875 6.398437.640625 9.386719zm0 0"
        fill="#2196f3" />
    <path
        d="m511.15625 441.613281c-1.492188 2.984375-3.839844 5.117188-7.039062 5.972657l-245.332032 64c-1.066406.210937-1.921875.425781-2.773437.425781-.855469 0-1.707031-.214844-2.773438-.425781l-245.335937-64c-3.199219-.855469-5.546875-2.988282-7.039063-5.972657l159.148438-68.269531h192zm0 0"
        fill="#1e88e5" />
    <path d="m352.011719 373.34375h-192l95.785156-372.90625h.425781zm0 0" fill="#64b5f6" />
    <path
        d="m501.34375 448.011719c-1.40625 0-2.835938-.277344-4.203125-.855469l-147.328125-63.144531h-187.605469l-147.304687 63.144531c-5.398438 2.261719-11.671875-.191406-14.015625-5.609375-2.304688-5.417969.191406-11.691406 5.609375-14.015625l149.332031-64c1.300781-.554688 2.753906-.851562 4.183594-.851562h192c1.429687 0 2.878906.296874 4.203125.851562l149.332031 64c5.417969 2.324219 7.914063 8.597656 5.609375 14.015625-1.75 4.054687-5.695312 6.464844-9.8125 6.464844zm0 0" />
    <path
        d="m160.011719 384.011719c-.898438 0-1.816407-.105469-2.730469-.363281-5.699219-1.492188-9.089844-7.359376-7.574219-13.035157l96-362.664062c1.515625-5.675781 7.296875-9.132813 13.035157-7.574219 5.695312 1.492188 9.085937 7.359375 7.574218 13.035156l-96 362.664063c-1.261718 4.78125-5.570312 7.9375-10.304687 7.9375zm0 0" />
    <path
        d="m352.011719 384.011719c-4.738281 0-9.046875-3.15625-10.304688-7.9375l-96-362.664063c-1.492187-5.699218 1.898438-11.542968 7.574219-13.035156 5.78125-1.535156 11.519531 1.917969 13.035156 7.574219l96 362.664062c1.492188 5.695313-1.902344 11.542969-7.574218 13.035157-.917969.257812-1.835938.363281-2.730469.363281zm0 0" />
    <path
        d="m256.011719 512.011719c-.898438 0-1.816407-.128907-2.6875-.363281l-245.335938-64c-3.21875-.832032-5.867187-3.113282-7.144531-6.1875-1.300781-3.070313-1.066406-6.570313.574219-9.429688l245.332031-426.664062c3.800781-6.636719 14.699219-6.636719 18.496094 0l245.335937 426.664062c1.640625 2.882812 1.875 6.378906.574219 9.429688-1.277344 3.074218-3.925781 5.355468-7.144531 6.1875l-245.335938 64c-.851562.234374-1.769531.363281-2.664062.363281zm-229.121094-81.449219 229.121094 59.753906 229.117187-59.777344-229.117187-398.464843zm0 0" />
</svg>