<svg height="512pt" viewBox="-53 0 511 512" width="512pt" xmlns="http://www.w3.org/2000/svg">
    <path
        d="m405.835938 74.667969v362.664062c0 4.480469-2.984376 8.746094-7.253907 10.027344l-192 64c-1.066406.425781-2.34375.640625-3.410156.640625v-373.332031l202.023437-67.203125c.429688 1.070312.640626 2.136718.640626 3.203125zm0 0"
        fill="#ffb300" />
    <path
        d="m203.171875 138.667969v373.332031c-1.066406 0-2.347656-.214844-3.414063-.640625l-192-64c-4.269531-1.28125-7.253906-5.546875-7.253906-10.027344v-362.664062c0-1.28125.214844-2.347657.640625-3.414063zm0 0"
        fill="#ffd54f" />
    <path
        d="m405.195312 71.464844-202.023437 67.203125-202.027344-67.414063c.640625-2.347656 2.34375-4.480468 4.480469-5.761718l106.664062-64c1.707032-1.066407 3.628907-1.492188 5.546876-1.492188h170.667968c1.917969 0 3.839844.425781 5.546875 1.492188l106.667969 64c2.34375 1.28125 3.839844 3.414062 4.476562 5.972656zm0 0"
        fill="#ffca28" />
    <path
        d="m203.171875 149.332031c-1.132813 0-2.285156-.191406-3.371094-.53125l-192-64c-3.949219-1.324219-6.765625-4.820312-7.234375-8.960937-.4687498-4.136719 1.539063-8.171875 5.121094-10.304688l106.667969-64c1.640625-1.023437 3.539062-1.535156 5.480469-1.535156h170.667968c1.941406 0 3.839844.511719 5.480469 1.515625l106.667969 64c3.5625 2.152344 5.570312 6.164063 5.121094 10.304687-.449219 4.136719-3.285157 7.613282-7.234376 8.957032l-192 64c-1.085937.363281-2.238281.554687-3.367187.554687zm-166.636719-77.460937 166.636719 55.554687 166.632813-55.554687-84.265626-50.539063h-164.738281zm0 0" />
    <path
        d="m203.171875 512c-1.132813 0-2.285156-.191406-3.371094-.535156l-192-64c-4.351562-1.46875-7.296875-5.542969-7.296875-10.132813v-362.664062c0-5.890625 4.777344-10.667969 10.667969-10.667969 5.886719 0 10.664063 4.777344 10.664063 10.667969v354.984375l181.335937 60.4375 181.332031-60.4375v-354.984375c0-5.890625 4.777344-10.667969 10.667969-10.667969 5.886719 0 10.664063 4.777344 10.664063 10.667969v362.664062c0 4.589844-2.941407 8.664063-7.296876 10.132813l-192 64c-1.085937.34375-2.238281.535156-3.367187.535156zm0 0" />
    <path
        d="m203.171875 512c-5.890625 0-10.667969-4.777344-10.667969-10.667969v-362.664062c0-5.890625 4.777344-10.667969 10.667969-10.667969 5.886719 0 10.664063 4.777344 10.664063 10.667969v362.664062c0 5.890625-4.777344 10.667969-10.664063 10.667969zm0 0" />
</svg>