<svg height="512pt" viewBox="0 0 512 512.04718" width="512pt" xmlns="http://www.w3.org/2000/svg">
    <path
        d="m266.480469.472656-95.789063 372.90625-159.144531 68.269532v-.214844c-1.28125-2.988282-1.066406-6.398438.640625-9.386719l245.332031-426.667969c1.921875-3.199218 5.332031-4.90625 8.960938-4.90625zm0 0"
        fill="#2196f3" />
    <path
        d="m511.171875 441.433594v.214844l-159.144531-68.269532-85.121094-367.570312c3.628906 0 7.039062 1.707031 8.960938 4.90625l234.667968 421.332031c1.703125 2.988281 1.917969 6.398437.636719 9.386719zm0 0"
        fill="#2196f3" />
    <path
        d="m511.171875 436.3125c-1.492187 2.988281-3.839844 5.121094-7.039063 5.976562l-245.332031 64c-1.066406.210938-1.921875.425782-2.773437.425782-.855469 0-1.707032-.214844-2.773438-.425782l-245.332031-64c-3.203125-.855468-5.546875-2.988281-7.042969-5.976562l159.148438-68.265625h192zm0 0"
        fill="#1e88e5" />
    <path d="m352.027344 373.378906h-192l106.453125-367.570312h.425781zm0 0" fill="#64b5f6" />
    <path
        d="m501.359375 448.046875c-1.40625 0-2.835937-.277344-4.203125-.851563l-147.328125-63.148437h-187.605469l-147.304687 63.148437c-5.375 2.261719-11.671875-.195312-14.015625-5.613281-2.304688-5.417969.191406-11.691406 5.609375-14.015625l149.332031-64c1.304688-.554687 2.753906-.851562 4.183594-.851562h192c1.429687 0 2.878906.296875 4.203125.851562l149.332031 64c5.417969 2.324219 7.914062 8.597656 5.609375 14.015625-1.746094 4.054688-5.695313 6.464844-9.8125 6.464844zm0 0" />
    <path
        d="m160.027344 384.046875c-1.003906 0-2.007813-.148437-3.007813-.449219-5.675781-1.664062-8.898437-7.570312-7.234375-13.226562l106.667969-362.664063c1.644531-5.675781 7.636719-8.855469 13.226563-7.234375 5.675781 1.664063 8.894531 7.574219 7.230468 13.226563l-106.664062 362.667969c-1.34375 4.671874-5.613282 7.679687-10.21875 7.679687zm0 0" />
    <path
        d="m352.027344 384.046875c-4.863282 0-9.238282-3.304687-10.367188-8.234375l-85.335937-362.667969c-1.34375-5.738281 2.199219-11.476562 7.9375-12.820312 5.800781-1.472657 11.476562 2.21875 12.820312 7.9375l85.332031 362.664062c1.347657 5.738281-2.195312 11.480469-7.933593 12.824219-.832031.210938-1.664063.296875-2.453125.296875zm0 0" />
    <path
        d="m266.691406 512.046875c-.871094 0-1.726562-.105469-2.578125-.320313l-256-64c-3.285156-.832031-5.976562-3.136718-7.277343-6.269531-1.300782-3.136719-1.023438-6.65625.707031-9.558593l256-426.667969c1.941406-3.21875 5.394531-5.183594 9.148437-5.183594h.214844c3.820312.085937 7.296875 2.199219 9.152344 5.527344l234.667968 426.664062c1.554688 2.882813 1.75 6.292969.445313 9.324219-1.277344 3.007812-3.859375 5.269531-6.996094 6.121094l-234.667969 64c-.914062.234375-1.875.363281-2.816406.363281zm-239.445312-81.515625 239.320312 59.839844 218.921875-59.710938-219.199219-398.550781zm0 0" />
    <path
        d="m266.691406 512.046875c-5.886718 0-10.664062-4.777344-10.664062-10.667969v-490.664062c0-5.890625 4.777344-10.667969 10.664062-10.667969 5.890625 0 10.667969 4.777344 10.667969 10.667969v490.664062c0 5.890625-4.777344 10.667969-10.667969 10.667969zm0 0" />
</svg>