<svg height="512pt" viewBox="0 0 512.0119 512" width="512pt" xmlns="http://www.w3.org/2000/svg">
    <path
        d="m255.792969.445312-95.785157 372.90625-159.148437 68.265626v-.214844c-1.277344-2.984375-1.066406-6.398438.640625-9.386719l245.335938-426.664063c1.917968-3.199218 5.332031-4.90625 8.957031-4.90625zm0 0"
        fill="#2196f3" />
    <path
        d="m511.15625 441.402344v.214844l-159.148438-68.265626-95.785156-372.90625c3.625 0 7.039063 1.707032 8.957032 4.90625l245.335937 426.664063c1.707031 2.988281 1.917969 6.402344.640625 9.386719zm0 0"
        fill="#2196f3" />
    <path
        d="m505.820312 436.285156c-1.492187 2.984375-3.839843 5.117188-7.039062 5.972656l-229.332031 64c-1.066407.210938-1.921875.425782-2.773438.425782-.855469 0-1.707031-.214844-2.773437-.425782l-250.667969-64c-3.199219-.855468-5.546875-2.988281-7.039063-5.972656l153.8125-62.933594h192zm0 0"
        fill="#1e88e5" />
    <path d="m352.007812 373.351562h-192l95.785157-372.90625h.429687zm0 0" fill="#64b5f6" />
    <path
        d="m10.675781 448.015625c-4.117187 0-8.066406-2.410156-9.816406-6.460937-2.300781-5.421876.195313-11.691407 5.613281-14.015626l9.8125-4.203124c5.375-2.285157 11.667969.167968 14.015625 5.609374 2.304688 5.417969-.191406 11.691407-5.609375 14.015626l-9.8125 4.203124c-1.367187.574219-2.796875.851563-4.203125.851563zm0 0" />
    <path
        d="m451.933594 426.855469c-1.410156 0-2.835938-.277344-4.203125-.875l-19.796875-8.492188c-5.417969-2.304687-7.914063-8.574219-5.589844-13.992187 2.324219-5.441406 8.597656-7.957032 13.996094-5.589844l19.796875 8.488281c5.417969 2.304688 7.914062 8.578125 5.589843 13.996094-1.730468 4.054687-5.675781 6.464844-9.792968 6.464844zm-391.851563-.023438c-4.136719 0-8.085937-2.410156-9.8125-6.484375-2.304687-5.417968.214844-11.667968 5.632813-13.996094l19.816406-8.46875c5.398438-2.304687 11.691406.191407 13.996094 5.632813 2.304687 5.417969-.214844 11.667969-5.632813 13.996094l-19.816406 8.46875c-1.347656.574219-2.773437.851562-4.183594.851562zm332.417969-25.472656c-1.410156 0-2.839844-.273437-4.203125-.851563l-19.796875-8.46875c-5.421875-2.324218-7.917969-8.597656-5.613281-14.015624 2.347656-5.441407 8.640625-7.894532 14.015625-5.613282l19.796875 8.472656c5.421875 2.324219 7.917969 8.597657 5.613281 14.015626-1.75 4.050781-5.675781 6.460937-9.8125 6.460937zm-272.984375 0c-4.136719 0-8.082031-2.410156-9.8125-6.484375-2.304687-5.417969.214844-11.667969 5.632813-13.992188l19.820312-8.472656c5.375-2.28125 11.6875.214844 13.992188 5.632813 2.304687 5.417969-.210938 11.671875-5.632813 13.996093l-19.816406 8.46875c-1.367188.597657-2.796875.851563-4.183594.851563zm211.90625-17.34375h-21.546875c-5.886719 0-10.667969-4.777344-10.667969-10.664063 0-5.890624 4.78125-10.667968 10.667969-10.667968h21.546875c5.886719 0 10.664063 4.777344 10.664063 10.667968 0 5.886719-4.753907 10.664063-10.664063 10.664063zm-64.640625 0h-21.546875c-5.886719 0-10.667969-4.777344-10.667969-10.664063 0-5.890624 4.78125-10.667968 10.667969-10.667968h21.546875c5.886719 0 10.667969 4.777344 10.667969 10.667968 0 5.886719-4.78125 10.664063-10.667969 10.664063zm-64.640625 0h-21.546875c-5.886719 0-10.664062-4.777344-10.664062-10.664063 0-5.890624 4.777343-10.667968 10.664062-10.667968h21.546875c5.886719 0 10.667969 4.777344 10.667969 10.667968 0 5.886719-4.78125 10.664063-10.667969 10.664063zm0 0" />
    <path
        d="m501.339844 448.015625c-1.40625 0-2.835938-.277344-4.203125-.851563l-9.8125-4.203124c-5.417969-2.324219-7.914063-8.597657-5.609375-14.015626 2.324218-5.441406 8.597656-7.914062 14.015625-5.609374l9.8125 4.203124c5.417969 2.324219 7.914062 8.59375 5.613281 14.015626-1.75 4.050781-5.699219 6.460937-9.816406 6.460937zm0 0" />
    <path
        d="m160.007812 384.015625c-.894531 0-1.8125-.105469-2.730468-.359375-5.695313-1.496094-9.089844-7.363281-7.574219-13.035156l2.730469-10.304688c1.496094-5.695312 7.296875-9.132812 13.035156-7.574218 5.695312 1.492187 9.089844 7.359374 7.574219 13.035156l-2.730469 10.304687c-1.257812 4.777344-5.570312 7.933594-10.304688 7.933594zm0 0" />
    <path
        d="m173.382812 333.480469c-.894531 0-1.8125-.109375-2.730468-.363281-5.695313-1.515626-9.085938-7.359376-7.574219-13.035157l5.335937-20.117187c1.492188-5.71875 7.273438-9.152344 13.035157-7.574219 5.695312 1.515625 9.085937 7.359375 7.570312 13.035156l-5.332031 20.117188c-1.257812 4.777343-5.566406 7.9375-10.304688 7.9375zm15.980469-60.355469c-.898437 0-1.8125-.105469-2.730469-.359375-5.695312-1.515625-9.089843-7.363281-7.574218-13.035156l5.332031-20.117188c1.515625-5.699219 7.253906-9.175781 13.035156-7.574219 5.695313 1.515626 9.089844 7.359376 7.574219 13.035157l-5.332031 20.117187c-1.261719 4.777344-5.570313 7.933594-10.304688 7.933594zm15.976563-60.371094c-.894532 0-1.8125-.105468-2.730469-.363281-5.695313-1.492187-9.085937-7.339844-7.570313-13.035156l5.308594-20.09375c1.515625-5.699219 7.253906-9.195313 13.035156-7.574219 5.695313 1.492188 9.089844 7.335938 7.574219 13.035156l-5.3125 20.09375c-1.257812 4.757813-5.566406 7.9375-10.304687 7.9375zm15.980468-60.351562c-.898437 0-1.8125-.109375-2.730468-.363282-5.695313-1.492187-9.089844-7.339843-7.574219-13.035156l5.3125-20.117187c1.515625-5.675781 7.316406-9.195313 13.035156-7.574219 5.695313 1.496094 9.085938 7.339844 7.574219 13.035156l-5.3125 20.117188c-1.261719 4.757812-5.570312 7.9375-10.304688 7.9375zm15.976563-60.375c-.894531 0-1.8125-.105469-2.730469-.363282-5.695312-1.492187-9.085937-7.335937-7.570312-13.035156l5.308594-20.117187c1.496093-5.695313 7.296874-9.128907 13.035156-7.570313 5.699218 1.492188 9.089844 7.335938 7.574218 13.035156l-5.3125 20.117188c-1.257812 4.777344-5.566406 7.933594-10.304687 7.933594zm0 0" />
    <path
        d="m253.277344 31.65625c-.894532 0-1.8125-.109375-2.730469-.363281-5.695313-1.496094-9.089844-7.359375-7.574219-13.035157l2.730469-10.304687c1.492187-5.675781 7.296875-9.128906 13.035156-7.574219 5.695313 1.496094 9.089844 7.359375 7.574219 13.035156l-2.730469 10.304688c-1.257812 4.777344-5.570312 7.9375-10.304687 7.9375zm0 0" />
    <path
        d="m258.738281 31.65625c-4.734375 0-9.046875-3.160156-10.304687-7.9375l-2.730469-10.304688c-1.492187-5.695312 1.898437-11.539062 7.574219-13.035156 5.738281-1.535156 11.519531 1.921875 13.035156 7.574219l2.730469 10.304687c1.492187 5.695313-1.898438 11.539063-7.574219 13.035157-.917969.277343-1.835938.363281-2.730469.363281zm0 0" />
    <path
        d="m338.632812 333.480469c-4.738281 0-9.046874-3.136719-10.304687-7.9375l-5.332031-20.117188c-1.496094-5.695312 1.898437-11.519531 7.570312-13.035156 5.761719-1.558594 11.542969 1.878906 13.035156 7.574219l5.335938 20.117187c1.492188 5.695313-1.898438 11.519531-7.574219 13.035157-.917969.253906-1.835937.363281-2.730469.363281zm-15.980468-60.355469c-4.734375 0-9.042969-3.132812-10.304688-7.933594l-5.332031-20.117187c-1.492187-5.695313 1.898437-11.519531 7.574219-13.035157 5.78125-1.578124 11.539062 1.898438 13.035156 7.574219l5.332031 20.117188c1.492188 5.695312-1.898437 11.519531-7.574219 13.035156-.917968.253906-1.832031.359375-2.730468.359375zm-15.976563-60.371094c-4.738281 0-9.046875-3.136718-10.304687-7.9375l-5.332032-20.09375c-1.496093-5.699218 1.875-11.519531 7.570313-13.035156 5.738281-1.601562 11.519531 1.875 13.035156 7.574219l5.332031 20.09375c1.496094 5.695312-1.875 11.519531-7.570312 13.035156-.917969.257813-1.835938.363281-2.730469.363281zm-15.980469-60.351562c-4.734374 0-9.042968-3.136719-10.304687-7.9375l-5.332031-20.117188c-1.492188-5.695312 1.898437-11.519531 7.574218-13.035156 5.757813-1.597656 11.519532 1.898438 13.035157 7.574219l5.332031 20.117187c1.492188 5.695313-1.898438 11.519532-7.574219 13.035156-.917969.253907-1.832031.363282-2.730469.363282zm-15.976562-60.375c-4.738281 0-9.046875-3.136719-10.304688-7.933594l-5.335937-20.117188c-1.492187-5.699218 1.898437-11.523437 7.574219-13.035156 5.78125-1.539062 11.542968 1.875 13.035156 7.570313l5.332031 20.117187c1.496094 5.699219-1.898437 11.523438-7.570312 13.035156-.917969.277344-1.835938.363282-2.730469.363282zm0 0" />
    <path
        d="m352.007812 384.015625c-4.734374 0-9.046874-3.15625-10.304687-7.933594l-2.730469-10.304687c-1.492187-5.695313 1.898438-11.542969 7.574219-13.035156 5.738281-1.535157 11.519531 1.898437 13.035156 7.574218l2.730469 10.304688c1.492188 5.695312-1.898438 11.539062-7.574219 13.035156-.917969.253906-1.835937.359375-2.730469.359375zm0 0" />
    <path
        d="m266.675781 512.015625c-.875 0-1.730469-.105469-2.582031-.316406l-256-64c-3.242188-.8125-5.910156-3.117188-7.234375-6.1875-1.320313-3.074219-1.109375-6.59375.554687-9.472657l245.335938-426.667968c3.796875-6.632813 14.699219-6.632813 18.496094 0l245.332031 426.667968c1.644531 2.859376 1.878906 6.335938.597656 9.363282-1.257812 3.074218-3.859375 5.355468-7.039062 6.230468l-234.667969 64c-.894531.257813-1.855469.382813-2.792969.382813zm-239.703125-81.578125 239.574219 59.90625 218.667969-59.648438-229.207032-398.613281zm0 0" />
    <path
        d="m266.675781 512.015625c-5.78125 0-10.539062-4.628906-10.667969-10.429687l-10.667968-490.667969c-.125-5.910157 4.546875-10.773438 10.433594-10.902344 5.84375.195313 10.773437 4.546875 10.902343 10.433594l10.664063 490.667969c.128906 5.886718-4.542969 10.773437-10.429688 10.898437-.085937 0-.148437 0-.234375 0zm0 0" />
</svg>