<svg height="512pt" viewBox="-53 0 512 512" width="512pt" xmlns="http://www.w3.org/2000/svg">
    <path
        d="m405.347656 74.667969v362.664062c0 4.480469-2.988281 8.746094-7.253906 10.027344l-192 64c-1.066406.425781-2.347656.640625-3.414062.640625v-373.332031l202.027343-67.203125c.425781 1.070312.640625 2.136718.640625 3.203125zm0 0"
        fill="#ffb300" />
    <path
        d="m202.679688 138.667969v373.332031c-1.066407 0-2.347657-.214844-3.414063-.640625l-192-64c-4.265625-1.28125-7.25-5.546875-7.25-10.027344v-362.664062c0-1.28125.210937-2.347657.636719-3.414063zm0 0"
        fill="#ffd54f" />
    <path
        d="m404.707031 71.464844-202.027343 67.203125-202.027344-67.414063c.640625-2.347656 2.347656-4.480468 4.480468-5.761718l106.667969-64c1.707031-1.066407 3.625-1.492188 5.546875-1.492188h170.667969c1.917969 0 3.839844.425781 5.546875 1.492188l106.664062 64c2.347657 1.28125 3.839844 3.414062 4.480469 5.972656zm0 0"
        fill="#ffca28" />
    <path
        d="m10.679688 448c-3.625 0-7.144532-1.855469-9.152344-5.183594-3.050782-5.035156-1.386719-11.605468 3.671875-14.636718l9.152343-5.480469c4.992188-3.09375 11.582032-1.386719 14.632813 3.667969 3.03125 5.058593 1.386719 11.605468-3.667969 14.636718l-9.152344 5.480469c-1.707031 1.046875-3.605468 1.515625-5.484374 1.515625zm0 0" />
    <path
        d="m351.417969 422.039062c-1.878907 0-3.777344-.472656-5.484375-1.515624l-17.085938-10.242188c-5.058594-3.027344-6.699218-9.578125-3.671875-14.632812 3.050781-5.054688 9.644531-6.679688 14.636719-3.667969l17.085938 10.238281c5.058593 3.027344 6.699218 9.578125 3.671874 14.632812-2.007812 3.328126-5.546874 5.1875-9.152343 5.1875zm-297.453125-.023437c-3.605469 0-7.144532-1.835937-9.152344-5.164063-3.050781-5.054687-1.386719-11.605468 3.648438-14.652343l17.066406-10.242188c5.078125-2.988281 11.605468-1.40625 14.65625 3.648438 3.050781 5.054687 1.386718 11.605469-3.648438 14.65625l-17.066406 10.238281c-1.726562 1.023438-3.625 1.515625-5.503906 1.515625zm246.230468-30.699219c-1.878906 0-3.777343-.46875-5.484374-1.515625l-9.664063-5.800781h-2.75c-5.886719 0-10.667969-4.777344-10.667969-10.667969 0-5.886719 4.78125-10.664062 10.667969-10.664062h5.71875c1.941406 0 3.839844.511719 5.480469 1.511719l12.183594 7.320312c5.054687 3.027344 6.695312 9.578125 3.667968 14.632812-2.003906 3.328126-5.546875 5.183594-9.152344 5.183594zm-195.007812-.019531c-3.625 0-7.148438-1.855469-9.152344-5.183594-3.050781-5.035156-1.386718-11.605469 3.667969-14.636719l12.160156-7.296874c1.644531-1 3.542969-1.511719 5.484375-1.511719h5.738282c5.886718 0 10.667968 4.777343 10.667968 10.664062 0 5.890625-4.78125 10.667969-10.667968 10.667969h-2.773438l-9.640625 5.78125c-1.730469 1.023438-3.605469 1.515625-5.484375 1.515625zm137.300781-7.296875h-19.902343c-5.890626 0-10.667969-4.777344-10.667969-10.667969 0-5.886719 4.777343-10.664062 10.667969-10.664062h19.902343c5.886719 0 10.667969 4.777343 10.667969 10.664062 0 5.890625-4.757812 10.667969-10.667969 10.667969zm-59.710937 0h-19.925782c-5.886718 0-10.667968-4.777344-10.667968-10.667969 0-5.886719 4.78125-10.664062 10.667968-10.664062h19.925782c5.886718 0 10.664062 4.777343 10.664062 10.664062 0 5.890625-4.753906 10.667969-10.664062 10.667969zm0 0" />
    <path
        d="m394.679688 448c-1.875 0-3.773438-.46875-5.480469-1.515625l-9.152344-5.480469c-5.058594-3.03125-6.699219-9.578125-3.671875-14.636718 3.03125-5.054688 9.582031-6.742188 14.636719-3.667969l9.152343 5.480469c5.054688 3.03125 6.699219 9.582031 3.667969 14.636718-2.003906 3.328125-5.523437 5.183594-9.152343 5.183594zm0 0" />
    <path
        d="m202.679688 149.332031c-1.152344 0-2.261719-.191406-3.371094-.53125l-192-64c-3.964844-1.324219-6.761719-4.820312-7.230469-8.960937-.46875-4.136719 1.535156-8.171875 5.121094-10.304688l106.664062-64c1.644531-1.023437 3.542969-1.535156 5.484375-1.535156h170.667969c1.941406 0 3.839844.511719 5.480469 1.515625l106.667968 64c3.582032 2.152344 5.589844 6.164063 5.121094 10.304687-.472656 4.136719-3.265625 7.613282-7.234375 8.957032l-192 64c-1.109375.363281-2.21875.554687-3.371093.554687zm-166.632813-77.460937 166.632813 55.554687 166.636718-55.554687-84.269531-50.539063h-164.734375zm0 0" />
    <path
        d="m117.347656 384c-5.886718 0-10.667968-4.777344-10.667968-10.667969v-10.664062c0-5.890625 4.78125-10.667969 10.667968-10.667969 5.886719 0 10.667969 4.777344 10.667969 10.667969v10.664062c0 5.890625-4.78125 10.667969-10.667969 10.667969zm0 0" />
    <path
        d="m117.347656 333.164062c-5.886718 0-10.667968-4.78125-10.667968-10.667968v-20.074219c0-5.886719 4.78125-10.667969 10.667968-10.667969 5.886719 0 10.667969 4.78125 10.667969 10.667969v20.074219c0 5.910156-4.78125 10.667968-10.667969 10.667968zm0-60.226562c-5.886718 0-10.667968-4.777344-10.667968-10.664062v-20.074219c0-5.890625 4.78125-10.667969 10.667968-10.667969 5.886719 0 10.667969 4.777344 10.667969 10.667969v20.074219c0 5.886718-4.78125 10.664062-10.667969 10.664062zm0-60.246094c-5.886718 0-10.667968-4.777344-10.667968-10.664062v-20.054688c0-5.886718 4.78125-10.664062 10.667968-10.664062 5.886719 0 10.667969 4.777344 10.667969 10.664062v20.054688c0 5.886718-4.78125 10.664062-10.667969 10.664062zm0-60.242187c-5.886718 0-10.667968-4.78125-10.667968-10.667969v-20.074219c0-5.886719 4.78125-10.667969 10.667968-10.667969 5.886719 0 10.667969 4.78125 10.667969 10.667969v20.074219c0 5.910156-4.78125 10.667969-10.667969 10.667969zm0-60.226563c-5.886718 0-10.667968-4.777344-10.667968-10.664062v-20.074219c0-5.890625 4.78125-10.667969 10.667968-10.667969 5.886719 0 10.667969 4.777344 10.667969 10.667969v20.074219c0 5.90625-4.78125 10.664062-10.667969 10.664062zm0 0" />
    <path
        d="m117.347656 32c-5.886718 0-10.667968-4.777344-10.667968-10.667969v-10.664062c0-5.890625 4.78125-10.667969 10.667968-10.667969 5.886719 0 10.667969 4.777344 10.667969 10.667969v10.664062c0 5.890625-4.78125 10.667969-10.667969 10.667969zm0 0" />
    <path
        d="m288.015625 32c-5.890625 0-10.667969-4.777344-10.667969-10.667969v-10.664062c0-5.890625 4.777344-10.667969 10.667969-10.667969 5.886719 0 10.664063 4.777344 10.664063 10.667969v10.664062c0 5.890625-4.777344 10.667969-10.664063 10.667969zm0 0" />
    <path
        d="m288.015625 333.183594c-5.890625 0-10.667969-4.777344-10.667969-10.667969v-20.074219c0-5.886718 4.777344-10.664062 10.667969-10.664062 5.886719 0 10.664063 4.777344 10.664063 10.664062v20.074219c0 5.910156-4.777344 10.667969-10.664063 10.667969zm0-60.222656c-5.890625 0-10.667969-4.78125-10.667969-10.667969v-20.074219c0-5.886719 4.777344-10.667969 10.667969-10.667969 5.886719 0 10.664063 4.78125 10.664063 10.667969v20.074219c0 5.886719-4.777344 10.667969-10.664063 10.667969zm0-60.246094c-5.890625 0-10.667969-4.777344-10.667969-10.667969v-20.074219c0-5.886718 4.777344-10.664062 10.667969-10.664062 5.886719 0 10.664063 4.777344 10.664063 10.664062v20.054688c0 5.910156-4.777344 10.6875-10.664063 10.6875zm0-60.246094c-5.890625 0-10.667969-4.777344-10.667969-10.667969v-20.074219c0-5.886718 4.777344-10.664062 10.667969-10.664062 5.886719 0 10.664063 4.777344 10.664063 10.664062v20.074219c0 5.910157-4.777344 10.667969-10.664063 10.667969zm0-60.222656c-5.890625 0-10.667969-4.78125-10.667969-10.667969v-20.074219c0-5.886718 4.777344-10.667968 10.667969-10.667968 5.886719 0 10.664063 4.78125 10.664063 10.667968v20.074219c0 5.910156-4.777344 10.667969-10.664063 10.667969zm0 0" />
    <path
        d="m288.015625 384c-5.890625 0-10.667969-4.777344-10.667969-10.667969v-10.664062c0-5.890625 4.777344-10.667969 10.667969-10.667969 5.886719 0 10.664063 4.777344 10.664063 10.667969v10.664062c0 5.890625-4.777344 10.667969-10.664063 10.667969zm0 0" />
    <path
        d="m202.679688 512c-1.152344 0-2.261719-.191406-3.371094-.535156l-192-64c-4.351563-1.46875-7.292969-5.542969-7.292969-10.132813v-362.664062c0-5.890625 4.777344-10.667969 10.664063-10.667969 5.890624 0 10.667968 4.777344 10.667968 10.667969v354.984375l181.332032 60.4375 181.335937-60.4375v-354.984375c0-5.890625 4.777344-10.667969 10.664063-10.667969 5.890624 0 10.667968 4.777344 10.667968 10.667969v362.664062c0 4.589844-2.945312 8.664063-7.296875 10.132813l-192 64c-1.109375.34375-2.21875.535156-3.371093.535156zm0 0" />
    <path
        d="m202.679688 512c-5.886719 0-10.664063-4.777344-10.664063-10.667969v-362.664062c0-5.890625 4.777344-10.667969 10.664063-10.667969 5.890624 0 10.667968 4.777344 10.667968 10.667969v362.664062c0 5.890625-4.777344 10.667969-10.667968 10.667969zm0 0" />
</svg>