<svg height="512pt" viewBox="-53 0 512 512" width="512pt" xmlns="http://www.w3.org/2000/svg">
    <path
        d="m405.347656 74.667969v362.664062c0 4.480469-2.988281 8.746094-7.253906 10.027344l-192 64c-1.066406.425781-2.347656.640625-3.414062.640625v-373.332031l202.027343-67.203125c.425781 1.070312.640625 2.136718.640625 3.203125zm0 0"
        fill="#ffca28" />
    <path
        d="m202.679688 138.667969v373.332031c-1.066407 0-2.347657-.214844-3.414063-.640625l-192-64c-4.265625-1.28125-7.25-5.546875-7.25-10.027344v-362.664062c0-1.28125.210937-2.347657.636719-3.414063zm0 0"
        fill="#ffe082" />
    <path
        d="m404.707031 71.464844-202.027343 67.203125-202.027344-67.414063c.640625-2.347656 2.347656-4.480468 4.480468-5.761718l106.667969-64c1.707031-1.066407 3.625-1.492188 5.546875-1.492188h170.667969c1.917969 0 3.839844.425781 5.546875 1.492188l106.664062 64c2.347657 1.28125 3.839844 3.414062 4.480469 5.972656zm0 0"
        fill="#ffd54f" />
    <path
        d="m394.679688 448c-1.875 0-3.773438-.46875-5.480469-1.515625l-104.152344-62.484375h-164.734375l-104.148438 62.484375c-4.972656 3.050781-11.585937 1.410156-14.636718-3.667969-3.050782-5.035156-1.386719-11.605468 3.671875-14.636718l106.664062-64c1.644531-1 3.542969-1.511719 5.484375-1.511719h170.667969c1.941406 0 3.839844.511719 5.480469 1.511719l106.667968 64c5.054688 3.03125 6.699219 9.582031 3.667969 14.636718-2.003906 3.328125-5.546875 5.183594-9.152343 5.183594zm0 0" />
    <path
        d="m202.679688 149.332031c-1.152344 0-2.261719-.191406-3.371094-.53125l-192-64c-3.964844-1.324219-6.761719-4.820312-7.230469-8.960937-.46875-4.136719 1.535156-8.171875 5.121094-10.304688l106.664062-64c1.644531-1.023437 3.542969-1.535156 5.484375-1.535156h170.667969c1.941406 0 3.839844.511719 5.480469 1.515625l106.667968 64c3.582032 2.152344 5.589844 6.164063 5.121094 10.304687-.472656 4.136719-3.265625 7.613282-7.234375 8.957032l-192 64c-1.109375.363281-2.21875.554687-3.371093.554687zm-166.632813-77.460937 166.632813 55.554687 166.636718-55.554687-84.269531-50.539063h-164.734375zm0 0" />
    <path
        d="m117.347656 384c-5.886718 0-10.667968-4.777344-10.667968-10.667969v-362.664062c0-5.890625 4.78125-10.667969 10.667968-10.667969 5.886719 0 10.667969 4.777344 10.667969 10.667969v362.664062c0 5.890625-4.78125 10.667969-10.667969 10.667969zm0 0" />
    <path
        d="m288.015625 384c-5.890625 0-10.667969-4.777344-10.667969-10.667969v-362.664062c0-5.890625 4.777344-10.667969 10.667969-10.667969 5.886719 0 10.664063 4.777344 10.664063 10.667969v362.664062c0 5.890625-4.777344 10.667969-10.664063 10.667969zm0 0" />
    <path
        d="m202.679688 512c-1.152344 0-2.261719-.191406-3.371094-.535156l-192-64c-4.351563-1.46875-7.292969-5.542969-7.292969-10.132813v-362.664062c0-5.890625 4.777344-10.667969 10.664063-10.667969 5.890624 0 10.667968 4.777344 10.667968 10.667969v354.984375l181.332032 60.4375 181.335937-60.4375v-354.984375c0-5.890625 4.777344-10.667969 10.664063-10.667969 5.890624 0 10.667968 4.777344 10.667968 10.667969v362.664062c0 4.589844-2.945312 8.664063-7.296875 10.132813l-192 64c-1.109375.34375-2.21875.535156-3.371093.535156zm0 0" />
    <path
        d="m202.679688 512c-5.886719 0-10.664063-4.777344-10.664063-10.667969v-362.664062c0-5.890625 4.777344-10.667969 10.664063-10.667969 5.890624 0 10.667968 4.777344 10.667968 10.667969v362.664062c0 5.890625-4.777344 10.667969-10.667968 10.667969zm0 0" />
</svg>