<svg height="512pt" viewBox="0 0 512 512.07171" width="512pt" xmlns="http://www.w3.org/2000/svg">
    <path
        d="m354.425781 511.644531-2.34375.425781h-341.335937c-3.625 0-7.039063-1.917968-8.957032-4.90625-1.921874-2.984374-2.347656-6.824218-.855468-10.238281l224-490.667969c1.492187-2.984374 4.265625-5.332031 7.46875-5.972656zm0 0"
        fill="#4caf50" />
    <path
        d="m508.878906 359.539062-149.332031 149.332032c-1.28125 1.492187-3.199219 2.5625-5.121094 2.773437l-122.023437-511.359375 1.066406-.2148435c3.839844-.4257815 7.464844 1.0664065 9.597656 4.0546875l266.667969 341.332031c3.414063 4.269531 2.984375 10.242188-.855469 14.082031zm0 0"
        fill="#43a047" />
    <path
        d="m232.484375 31.816406c-.765625 0-1.511719-.085937-2.28125-.257812-5.761719-1.257813-9.386719-6.933594-8.128906-12.714844l2.285156-10.410156c1.257813-5.757813 6.910156-9.40625 12.691406-8.128906 5.761719 1.261718 9.386719 6.933593 8.128907 12.714843l-2.28125 10.414063c-1.109376 4.988281-5.507813 8.382812-10.414063 8.382812zm0 0" />
    <path
        d="m172.390625 306.523438c-.746094 0-1.515625-.082032-2.285156-.253907-5.757813-1.257812-9.40625-6.933593-8.148438-12.695312l4.992188-22.890625c1.238281-5.78125 6.957031-9.429688 12.695312-8.148438 5.757813 1.257813 9.40625 6.933594 8.148438 12.695313l-4.992188 22.890625c-1.089843 5.011718-5.503906 8.402344-10.410156 8.402344zm15.019531-68.671876c-.769531 0-1.515625-.082031-2.285156-.253906-5.757812-1.257812-9.386719-6.933594-8.128906-12.695312l5.015625-22.890625c1.257812-5.78125 6.933593-9.386719 12.691406-8.148438 5.761719 1.257813 9.386719 6.933594 8.128906 12.695313l-5.011719 22.890625c-1.089843 5.011719-5.503906 8.402343-10.410156 8.402343zm15.015625-68.671874c-.765625 0-1.511719-.082032-2.28125-.253907-5.761719-1.257812-9.40625-6.933593-8.128906-12.695312l5.015625-22.890625c1.234375-5.757813 6.890625-9.40625 12.691406-8.148438 5.761719 1.257813 9.386719 6.933594 8.128906 12.695313l-5.015624 22.890625c-1.085938 5.011718-5.503907 8.402344-10.410157 8.402344zm15.019531-68.671876c-.765624 0-1.515624-.085937-2.28125-.253906-5.761718-1.257812-9.386718-6.933594-8.128906-12.695312l5.011719-22.890625c1.238281-5.78125 6.933594-9.429688 12.695313-8.148438 5.757812 1.257813 9.386718 6.933594 8.128906 12.695313l-5.015625 22.890625c-1.085938 5.011719-5.503907 8.402343-10.410157 8.402343zm0 0" />
    <path
        d="m170.746094 362.738281h-10.664063c-3.222656 0-6.273437-1.449219-8.320312-3.988281-2.027344-2.519531-2.796875-5.804688-2.113281-8.980469l2.28125-10.414062c1.261718-5.757813 6.957031-9.40625 12.695312-8.125 4.992188 1.085937 8.382812 5.503906 8.382812 10.410156 4.820313 1.066406 8.40625 5.332031 8.40625 10.429687 0 5.890626-4.777343 10.667969-10.667968 10.667969zm0 0" />
    <path
        d="m445.03125 362.738281h-22.847656c-5.890625 0-10.667969-4.777343-10.667969-10.667969 0-5.886718 4.777344-10.664062 10.667969-10.664062h22.847656c5.886719 0 10.664062 4.777344 10.664062 10.664062 0 5.890626-4.757812 10.667969-10.664062 10.667969zm-68.566406 0h-22.847656c-5.890626 0-10.667969-4.777343-10.667969-10.667969 0-5.886718 4.777343-10.664062 10.667969-10.664062h22.847656c5.886718 0 10.667968 4.777344 10.667968 10.664062 0 5.890626-4.78125 10.667969-10.667968 10.667969zm-68.566406 0h-22.847657c-5.886719 0-10.667969-4.777343-10.667969-10.667969 0-5.886718 4.78125-10.664062 10.667969-10.664062h22.847657c5.890624 0 10.667968 4.777344 10.667968 10.664062 0 5.890626-4.777344 10.667969-10.667968 10.667969zm-68.585938 0h-22.847656c-5.886719 0-10.667969-4.777343-10.667969-10.667969 0-5.886718 4.78125-10.664062 10.667969-10.664062h22.847656c5.886719 0 10.667969 4.777344 10.667969 10.664062 0 5.890626-4.757813 10.667969-10.667969 10.667969zm0 0" />
    <path
        d="m501.414062 362.738281h-10.667968c-5.886719 0-10.664063-4.777343-10.664063-10.667969 0-5.886718 4.777344-10.664062 10.664063-10.664062h10.667968c5.886719 0 10.667969 4.777344 10.667969 10.664062 0 5.890626-4.78125 10.667969-10.667969 10.667969zm0 0" />
    <path
        d="m10.746094 512.070312c-2.730469 0-5.460938-1.042968-7.550782-3.113281-4.160156-4.160156-4.160156-10.921875 0-15.082031l7.550782-7.550781c4.160156-4.160157 10.921875-4.160157 15.082031 0 4.160156 4.15625 4.160156 10.921875 0 15.082031l-7.550781 7.550781c-2.070313 2.070313-4.800782 3.113281-7.53125 3.113281zm0 0" />
    <path
        d="m51.855469 470.960938c-2.730469 0-5.460938-1.042969-7.550781-3.113282-4.160157-4.160156-4.160157-10.921875 0-15.082031l16.789062-16.769531c4.160156-4.160156 10.921875-4.160156 15.082031 0 4.160157 4.160156 4.160157 10.921875 0 15.082031l-16.789062 16.769531c-2.070313 2.070313-4.800781 3.113282-7.53125 3.113282zm50.347656-50.324219c-2.730469 0-5.460937-1.046875-7.550781-3.113281-4.160156-4.160157-4.160156-10.921876 0-15.082032l16.789062-16.792968c4.160156-4.15625 10.921875-4.15625 15.082032 0 4.160156 4.160156 4.160156 10.925781 0 15.085937l-16.789063 16.765625c-2.089844 2.089844-4.800781 3.136719-7.53125 3.136719zm0 0" />
    <path
        d="m152.527344 370.289062c-2.730469 0-5.460938-1.042968-7.550782-3.113281-4.160156-4.160156-4.160156-10.921875 0-15.082031l7.550782-7.550781c4.160156-4.160157 10.925781-4.160157 15.082031 0 4.160156 4.15625 4.160156 10.921875 0 15.082031l-7.527344 7.53125c-2.09375 2.089844-4.824219 3.132812-7.554687 3.132812zm0 0" />
    <path
        d="m352.082031 512.070312c-.066406 0-.152343 0-.234375 0h-341.101562c-3.625 0-7.019532-1.855468-8.957032-4.882812-1.964843-3.074219-2.242187-6.890625-.75-10.21875l223.917969-490.453125c.574219-1.34375 1.449219-2.582031 2.578125-3.628906.320313-.296875.664063-.574219 1.003906-.832031 2.261719-1.621094 4.972657-2.261719 7.53125-1.898438h.019532c.363281.042969.707031.109375 1.046875.191406v.023438c2.132812.46875 4.097656 1.621094 5.609375 3.371094.152344.167968.277344.339843.429687.511718l266.601563 341.246094c3.304687 4.246094 2.941406 10.285156-.875 14.101562l-149.207032 149.207032c-1.320312 1.386718-3.070312 2.410156-5.054687 2.941406h-.019531c-.023438 0-.023438 0-.042969 0v.023438h-.023437c-.019532 0-.042969.019531-.0625.019531h-.023438s0 0-.019531 0c0 0 0 0-.023438.023437 0 0 0 0-.019531 0-.789062.171875-1.558594.253906-2.324219.253906zm-324.738281-21.332031h311.210938l-106.964844-447.382812zm229.183594-434.792969 101.503906 424.445313 129.175781-129.195313zm0 0" />
</svg>