<svg height="512pt" viewBox="0 0 512 512.07171" width="512pt" xmlns="http://www.w3.org/2000/svg">
    <path
        d="m354.425781 511.644531c-.636719.425781-1.492187.425781-2.34375.425781h-341.335937c-3.625 0-7.039063-1.917968-8.957032-4.90625-1.921874-2.984374-2.347656-6.824218-.855468-10.238281l224-490.667969c1.492187-2.984374 4.265625-5.332031 7.46875-5.972656zm0 0"
        fill="#4caf50" />
    <path
        d="m508.878906 359.539062-149.332031 149.332032c-1.28125 1.492187-3.199219 2.5625-5.121094 2.773437l-122.023437-511.359375c.210937 0 .636718-.2148435 1.066406-.2148435 3.839844-.4257815 7.464844 1.0664065 9.597656 4.0546875l266.667969 341.332031c3.414063 4.269531 2.984375 10.242188-.855469 14.082031zm0 0"
        fill="#43a047" />
    <path
        d="m501.414062 362.738281h-341.332031c-3.222656 0-6.273437-1.449219-8.320312-3.988281-2.027344-2.519531-2.796875-5.804688-2.113281-8.960938l74.667968-341.332031c1.257813-5.78125 6.910156-9.429687 12.691406-8.152343 5.761719 1.261718 9.386719 6.933593 8.128907 12.695312l-71.808594 328.40625h328.085937c5.886719 0 10.667969 4.777344 10.667969 10.664062 0 5.890626-4.78125 10.667969-10.667969 10.667969zm0 0" />
    <path
        d="m10.746094 512.070312c-2.730469 0-5.460938-1.042968-7.550782-3.113281-4.160156-4.160156-4.160156-10.921875 0-15.082031l149.332032-149.332031c4.160156-4.160157 10.925781-4.160157 15.082031 0 4.160156 4.15625 4.160156 10.921875 0 15.082031l-149.332031 149.332031c-2.070313 2.070313-4.800782 3.113281-7.53125 3.113281zm0 0" />
    <path
        d="m352.082031 512.070312c-.066406 0-.152343 0-.234375 0h-341.101562c-3.625 0-7.019532-1.855468-8.957032-4.882812-1.964843-3.074219-2.242187-6.890625-.75-10.21875l223.917969-490.453125c.574219-1.34375 1.449219-2.582031 2.578125-3.628906.320313-.296875.664063-.574219 1.003906-.832031 2.261719-1.621094 4.972657-2.261719 7.53125-1.898438h.019532c.363281.042969.707031.109375 1.046875.191406v.023438c2.132812.46875 4.097656 1.621094 5.609375 3.371094.152344.167968.277344.339843.429687.511718l266.601563 341.246094c3.304687 4.246094 2.941406 10.285156-.875 14.101562l-149.207032 149.207032c-1.320312 1.386718-3.070312 2.410156-5.054687 2.941406h-.019531c-.023438 0-.023438 0-.042969 0v.023438h-.023437c-.019532 0-.042969.019531-.0625.019531h-.023438s0 0-.019531 0c0 0 0 0-.023438.023437 0 0 0 0-.019531 0-.789062.171875-1.558594.253906-2.324219.253906zm-324.738281-21.332031h311.210938l-106.964844-447.382812zm229.183594-434.792969 101.503906 424.445313 129.175781-129.195313zm0 0" />
</svg>