<svg height="512pt" viewBox="0 0 512 512" width="512pt" xmlns="http://www.w3.org/2000/svg">
    <path
        d="m256 0c-141.164062 0-256 114.835938-256 256s114.835938 256 256 256 256-114.835938 256-256-114.835938-256-256-256zm0 0"
        fill="#ffc107" />
    <path
        d="m193.878906 193.878906c-87.917968 5.140625-193.878906 21.84375-193.878906 62.121094s105.960938 56.980469 193.878906 62.121094c-1.324218-22.613282-1.878906-44.007813-1.878906-62.121094s.554688-39.507812 1.878906-62.121094zm124.242188 0c1.324218 22.613282 1.878906 44.007813 1.878906 62.121094s-.554688 39.507812-1.878906 62.121094c87.917968-5.140625 193.878906-21.84375 193.878906-62.121094s-105.960938-56.980469-193.878906-62.121094zm0 0"
        fill="#ffcf00" />
    <path
        d="m193.878906 318.121094c5.140625 87.917968 21.84375 193.878906 62.121094 193.878906s56.960938-105.960938 62.121094-193.878906c-22.613282 1.324218-44.007813 1.878906-62.121094 1.878906s-39.507812-.554688-62.121094-1.878906zm62.121094-318.121094c-40.277344 0-56.980469 105.960938-62.121094 193.878906 22.613282-1.324218 44.007813-1.878906 62.121094-1.878906s39.507812.554688 62.121094 1.878906c-5.140625-87.917968-21.84375-193.878906-62.121094-193.878906zm0 0"
        fill="#ffcf00" />
    <path
        d="m256 192c-18.113281 0-39.507812.554688-62.121094 1.878906-1.324218 22.613282-1.878906 44.007813-1.878906 62.121094s.554688 39.507812 1.878906 62.121094c22.613282 1.324218 44.007813 1.878906 62.121094 1.878906s39.507812-.554688 62.121094-1.878906c1.324218-22.613282 1.878906-44.007813 1.878906-62.121094s-.554688-39.507812-1.878906-62.121094c-22.613282-1.324218-44.007813-1.878906-62.121094-1.878906zm0 0"
        fill="#ffda00" />
    <path
        d="m256 512c-141.164062 0-256-114.835938-256-256s114.835938-256 256-256 256 114.835938 256 256-114.835938 256-256 256zm0-490.667969c-129.386719 0-234.667969 105.28125-234.667969 234.667969s105.28125 234.667969 234.667969 234.667969 234.667969-105.28125 234.667969-234.667969-105.28125-234.667969-234.667969-234.667969zm0 0" />
    <path
        d="m501.332031 266.667969c-5.886719 0-10.664062-4.78125-10.664062-10.667969 0-14.484375-82.839844-42.667969-234.667969-42.667969s-234.667969 28.183594-234.667969 42.667969c0 5.886719-4.777343 10.667969-10.664062 10.667969-5.890625 0-10.667969-4.78125-10.667969-10.667969 0-50.625 167.464844-64 256-64s256 13.375 256 64c0 5.886719-4.777344 10.667969-10.667969 10.667969zm0 0" />
    <path
        d="m256 320c-88.535156 0-256-13.375-256-64 0-5.886719 4.777344-10.667969 10.667969-10.667969 5.886719 0 10.664062 4.78125 10.664062 10.667969 0 14.484375 82.839844 42.667969 234.667969 42.667969s234.667969-28.183594 234.667969-42.667969c0-5.886719 4.777343-10.667969 10.664062-10.667969 5.890625 0 10.667969 4.78125 10.667969 10.667969 0 50.625-167.464844 64-256 64zm0 0" />
    <path
        d="m256 512c-5.886719 0-10.667969-4.777344-10.667969-10.667969 0-5.886719 4.78125-10.664062 10.667969-10.664062 14.484375 0 42.667969-82.839844 42.667969-234.667969s-28.183594-234.667969-42.667969-234.667969c-5.886719 0-10.667969-4.777343-10.667969-10.664062 0-5.890625 4.78125-10.667969 10.667969-10.667969 50.625 0 64 167.464844 64 256s-13.375 256-64 256zm0 0" />
    <path
        d="m256 512c-50.625 0-64-167.464844-64-256s13.375-256 64-256c5.886719 0 10.667969 4.777344 10.667969 10.667969 0 5.886719-4.78125 10.664062-10.667969 10.664062-14.484375 0-42.667969 82.839844-42.667969 234.667969s28.183594 234.667969 42.667969 234.667969c5.886719 0 10.667969 4.777343 10.667969 10.664062 0 5.890625-4.78125 10.667969-10.667969 10.667969zm0 0" />
</svg>