<svg height="512pt" viewBox="0 0 512 512" width="512pt" xmlns="http://www.w3.org/2000/svg">
    <path
        d="m512 256c0 141.386719-114.613281 256-256 256s-256-114.613281-256-256 114.613281-256 256-256 256 114.613281 256 256zm0 0"
        fill="#ffc107" />
    <path
        d="m256 512c-141.164062 0-256-114.835938-256-256s114.835938-256 256-256 256 114.835938 256 256-114.835938 256-256 256zm0-490.667969c-129.386719 0-234.667969 105.28125-234.667969 234.667969s105.28125 234.667969 234.667969 234.667969 234.667969-105.28125 234.667969-234.667969-105.28125-234.667969-234.667969-234.667969zm0 0" />
    <path
        d="m256 362.667969c-143.550781 0-256-46.847657-256-106.667969 0-5.886719 4.777344-10.667969 10.667969-10.667969 5.886719 0 10.664062 4.78125 10.664062 10.667969 0 40.363281 96.386719 85.332031 234.667969 85.332031s234.667969-44.96875 234.667969-85.332031c0-5.886719 4.777343-10.667969 10.664062-10.667969 5.890625 0 10.667969 4.78125 10.667969 10.667969 0 59.820312-112.449219 106.667969-256 106.667969zm0 0" />
    <path
        d="m256 512c-59.820312 0-106.667969-112.449219-106.667969-256s46.847657-256 106.667969-256c5.886719 0 10.667969 4.777344 10.667969 10.667969 0 5.886719-4.78125 10.664062-10.667969 10.664062-40.363281 0-85.332031 96.386719-85.332031 234.667969s44.96875 234.667969 85.332031 234.667969c5.886719 0 10.667969 4.777343 10.667969 10.664062 0 5.890625-4.78125 10.667969-10.667969 10.667969zm0 0" />
</svg>