<svg height="512pt" viewBox="0 0 512.01922 512" width="512pt" xmlns="http://www.w3.org/2000/svg">
    <path
        d="m512 394.410156h-512c0-2.132812.640625-4.054687 1.707031-5.761718l245.332031-384c3.839844-6.183594 14.082032-6.183594 17.921876 0l245.332031 384c1.066406 1.707031 1.707031 3.628906 1.707031 5.761718zm0 0"
        fill="#ffd54f" />
    <path
        d="m512 394.410156c0 1.066406-.214844 2.132813-.425781 3.199219-.855469 2.988281-3.199219 5.332031-5.972657 6.613281l-245.335937 106.667969c-1.277344.640625-2.773437.851563-4.265625.851563s-2.988281-.210938-4.265625-.851563l-245.335937-106.667969c-2.773438-1.28125-5.117188-3.625-5.972657-6.613281-.210937-1.066406-.425781-2.132813-.425781-3.199219zm0 0"
        fill="#ffc107" />
    <path
        d="m256 511.742188c-1.449219 0-2.902344-.296876-4.246094-.875l-245.332031-106.664063c-2.859375-1.261719-5.035156-3.691406-5.953125-6.679687-.917969-2.984376-.46875-6.226563 1.214844-8.875l245.335937-384c3.925781-6.121094 14.058594-6.121094 17.984375 0l245.332032 384c1.683593 2.648437 2.132812 5.867187 1.214843 8.855468-.894531 3.007813-3.09375 5.4375-5.949219 6.675782l-245.335937 106.667968c-1.363281.597656-2.816406.894532-4.265625.894532zm-229.609375-122.132813 229.609375 99.839844 229.609375-99.839844-229.609375-359.382813zm0 0" />
    <path
        d="m501.332031 405.078125h-490.664062c-5.890625 0-10.667969-4.78125-10.667969-10.667969 0-5.886718 4.777344-10.667968 10.667969-10.667968h490.664062c5.890625 0 10.667969 4.78125 10.667969 10.667968 0 5.886719-4.777344 10.667969-10.667969 10.667969zm0 0" />
</svg>