<svg height="512pt" viewBox="-10 0 511 512" width="512pt" xmlns="http://www.w3.org/2000/svg">
    <path
        d="m489.46875 507.09375-3.625 3.414062-240-137.175781v-372.90625c3.839844 0 7.894531 1.921875 9.601562 5.546875l234.664063 490.667969c1.707031 3.414063 1.28125 7.253906-.640625 10.453125zm0 0"
        fill="#ffe082" />
    <path
        d="m245.84375.425781v372.90625l-244.054688 132.90625c-1.472656-2.984375-1.683593-6.398437-.210937-9.597656l234.664063-490.667969c1.707031-3.625 5.761718-5.546875 9.601562-5.546875zm0 0"
        fill="#ffd54f" />
    <path
        d="m485.84375 510.507812-5.332031 1.492188h-469.335938c-3.625 0-7.039062-1.921875-8.957031-4.90625l-.429688-.855469 244.054688-132.90625zm0 0"
        fill="#ffc107" />
    <path
        d="m480.511719 512h-469.335938c-3.667969 0-7.058593-1.878906-9.023437-4.96875-1.960938-3.09375-2.1953128-6.976562-.597656-10.285156l234.667968-490.667969c3.539063-7.421875 15.699219-7.421875 19.242188 0l234.667968 490.667969c1.578126 3.308594 1.34375 7.191406-.597656 10.285156-1.941406 3.089844-5.355468 4.96875-9.023437 4.96875zm-452.417969-21.332031h435.5l-217.75-455.277344zm0 0" />
    <path
        d="m11.175781 512c-3.773437 0-7.421875-2.003906-9.34375-5.566406-2.835937-5.164063-.917969-11.648438 4.246094-14.464844l9.34375-5.097656c5.140625-2.859375 11.628906-.941406 14.464844 4.242187 2.835937 5.164063.917969 11.648438-4.246094 14.464844l-9.34375 5.097656c-1.644531.898438-3.390625 1.324219-5.121094 1.324219zm0 0" />
    <path
        d="m59.796875 485.484375c-3.777344 0-7.425781-2.007813-9.34375-5.570313-2.839844-5.160156-.917969-11.648437 4.242187-14.464843l19.628907-10.707031c5.160156-2.839844 11.625-.941407 14.464843 4.246093 2.835938 5.160157.914063 11.644531-4.246093 14.460938l-19.628907 10.710937c-1.640624.894532-3.390624 1.324219-5.117187 1.324219zm58.898437-32.128906c-3.773437 0-7.421874-2.007813-9.34375-5.570313-2.835937-5.160156-.917968-11.648437 4.246094-14.460937l19.628906-10.710938c5.183594-2.859375 11.625-.960937 14.460938 4.246094 2.839844 5.160156.917969 11.648437-4.242188 14.464844l-19.628906 10.707031c-1.640625.898438-3.390625 1.324219-5.121094 1.324219zm58.902344-32.128907c-3.777344 0-7.421875-2.003906-9.34375-5.566406-2.835937-5.164062-.917968-11.648437 4.246094-14.464844l19.625-10.710937c5.164062-2.878906 11.648438-.960937 14.464844 4.246094 2.835937 5.164062.917968 11.648437-4.246094 14.464843l-19.625 10.707032c-1.644531.917968-3.390625 1.324218-5.121094 1.324218zm0 0" />
    <path
        d="m255.125 389.289062c-1.816406 0-3.628906-.445312-5.292969-1.386718l-4.09375-2.34375-4.117187 2.238281c-5.144532 2.859375-11.628906.9375-14.464844-4.246094-2.839844-5.160156-.917969-11.648437 4.246094-14.460937l9.34375-5.101563c3.242187-1.789062 7.167968-1.75 10.386718.085938l9.28125 5.292969c5.097657 2.941406 6.890626 9.425781 3.988282 14.570312-2.003906 3.410156-5.609375 5.351562-9.277344 5.351562zm0 0" />
    <path
        d="m423.207031 485.375c-1.8125 0-3.625-.445312-5.289062-1.40625l-18.667969-10.6875c-5.117188-2.925781-6.890625-9.429688-3.964844-14.550781 2.898438-5.164063 9.449219-6.867188 14.546875-3.96875l18.667969 10.6875c5.121094 2.925781 6.890625 9.429687 3.96875 14.550781-1.964844 3.457031-5.570312 5.375-9.261719 5.375zm-56.039062-32.042969c-1.816407 0-3.628907-.445312-5.292969-1.386719l-18.667969-10.664062c-5.117187-2.945312-6.890625-9.453125-3.988281-14.570312 2.945312-5.144532 9.472656-6.828126 14.570312-3.992188l18.667969 10.667969c5.121094 2.945312 6.890625 9.449219 3.988281 14.570312-1.984374 3.433594-5.589843 5.375-9.277343 5.375zm-56-32.019531c-1.816407 0-3.628907-.449219-5.292969-1.386719l-18.6875-10.667969c-5.097656-2.941406-6.890625-9.429687-3.988281-14.570312 2.941406-5.121094 9.472656-6.824219 14.570312-3.988281l18.6875 10.667969c5.097657 2.941406 6.890625 9.425781 3.988281 14.570312-2.003906 3.433594-5.609374 5.375-9.277343 5.375zm0 0" />
    <path
        d="m469.84375 512c-1.8125 0-3.625-.449219-5.289062-1.386719l-9.28125-5.289062c-5.097657-2.945313-6.890626-9.429688-3.988282-14.570313 2.941406-5.144531 9.46875-6.828125 14.570313-3.992187l9.277343 5.292969c5.101563 2.941406 6.890626 9.429687 3.992188 14.570312-1.984375 3.433594-5.589844 5.375-9.28125 5.375zm0 0" />
    <path
        d="m245.84375 384c-5.886719 0-10.667969-4.777344-10.667969-10.667969v-10.664062c0-5.890625 4.78125-10.667969 10.667969-10.667969s10.667969 4.777344 10.667969 10.667969v10.664062c0 5.890625-4.78125 10.667969-10.667969 10.667969zm0 0" />
    <path
        d="m245.84375 333.164062c-5.886719 0-10.667969-4.78125-10.667969-10.667968v-20.074219c0-5.886719 4.78125-10.667969 10.667969-10.667969s10.667969 4.78125 10.667969 10.667969v20.074219c0 5.910156-4.78125 10.667968-10.667969 10.667968zm0-60.226562c-5.886719 0-10.667969-4.777344-10.667969-10.664062v-20.074219c0-5.890625 4.78125-10.667969 10.667969-10.667969s10.667969 4.777344 10.667969 10.667969v20.074219c0 5.886718-4.78125 10.664062-10.667969 10.664062zm0-60.246094c-5.886719 0-10.667969-4.777344-10.667969-10.664062v-20.054688c0-5.886718 4.78125-10.664062 10.667969-10.664062s10.667969 4.777344 10.667969 10.664062v20.054688c0 5.886718-4.78125 10.664062-10.667969 10.664062zm0-60.242187c-5.886719 0-10.667969-4.78125-10.667969-10.667969v-20.074219c0-5.886719 4.78125-10.667969 10.667969-10.667969s10.667969 4.78125 10.667969 10.667969v20.074219c0 5.910156-4.78125 10.667969-10.667969 10.667969zm0-60.226563c-5.886719 0-10.667969-4.777344-10.667969-10.664062v-20.074219c0-5.890625 4.78125-10.667969 10.667969-10.667969s10.667969 4.777344 10.667969 10.667969v20.074219c0 5.90625-4.78125 10.664062-10.667969 10.664062zm0 0" />
    <path
        d="m245.84375 32c-5.886719 0-10.667969-4.777344-10.667969-10.667969v-10.664062c0-5.890625 4.78125-10.667969 10.667969-10.667969s10.667969 4.777344 10.667969 10.667969v10.664062c0 5.890625-4.78125 10.667969-10.667969 10.667969zm0 0" />
</svg>