<svg height="512pt" viewBox="-10 0 511 512" width="512pt" xmlns="http://www.w3.org/2000/svg">
    <path
        d="m489.46875 507.09375c-.851562 1.492188-2.132812 2.558594-3.625 3.414062l-240-137.175781v-372.90625c3.839844 0 7.894531 1.921875 9.601562 5.546875l234.664063 490.667969c1.707031 3.414063 1.28125 7.253906-.640625 10.453125zm0 0"
        fill="#ffe082" />
    <path
        d="m245.84375.425781v372.90625l-244.054688 132.90625c-1.492187-2.984375-1.7070308-6.398437-.210937-9.597656l234.664063-490.667969c1.707031-3.625 5.761718-5.546875 9.601562-5.546875zm0 0"
        fill="#ffd54f" />
    <path
        d="m485.84375 510.507812c-1.492188 1.066407-3.414062 1.492188-5.332031 1.492188h-469.335938c-3.625 0-7.039062-1.921875-8.957031-4.90625-.214844-.214844-.214844-.640625-.429688-.855469l244.054688-132.90625zm0 0"
        fill="#ffc107" />
    <path
        d="m480.511719 512h-469.335938c-3.667969 0-7.082031-1.878906-9.023437-4.96875-1.960938-3.117188-2.1953128-6.976562-.597656-10.285156l234.667968-490.667969c3.539063-7.421875 15.699219-7.421875 19.242188 0l234.667968 490.667969c1.578126 3.308594 1.34375 7.191406-.597656 10.285156-1.941406 3.089844-5.355468 4.96875-9.023437 4.96875zm-452.417969-21.332031h435.476562l-217.726562-455.277344zm0 0" />
    <path
        d="m11.175781 512c-3.773437 0-7.445312-2.003906-9.363281-5.566406-2.816406-5.164063-.917969-11.648438 4.265625-14.464844l234.667969-128c3.242187-1.792969 7.167968-1.707031 10.386718.085938l224 128c5.121094 2.941406 6.890626 9.449218 3.96875 14.570312-2.921874 5.117188-9.449218 6.847656-14.546874 3.988281l-218.839844-125.054687-229.4375 125.117187c-1.601563.898438-3.351563 1.324219-5.101563 1.324219zm0 0" />
    <path
        d="m245.84375 384c-5.886719 0-10.667969-4.777344-10.667969-10.667969v-362.664062c0-5.890625 4.78125-10.667969 10.667969-10.667969s10.667969 4.777344 10.667969 10.667969v362.664062c0 5.890625-4.78125 10.667969-10.667969 10.667969zm0 0" />
</svg>