<svg height="512pt" viewBox="0 0 512 512" width="512pt" xmlns="http://www.w3.org/2000/svg">
    <path
        d="m512 256c0 141.386719-114.613281 256-256 256s-256-114.613281-256-256 114.613281-256 256-256 256 114.613281 256 256zm0 0"
        fill="#64b5f6" />
    <path
        d="m429.332031 72h-346.664062c-5.890625 0-10.667969 4.777344-10.667969 10.667969v346.664062c0 5.890625 4.777344 10.667969 10.667969 10.667969h346.664062c5.890625 0 10.667969-4.777344 10.667969-10.667969v-346.664062c0-5.890625-4.777344-10.667969-10.667969-10.667969zm0 0"
        fill="#2196f3" />
    <path
        d="m438.871094 424.554688-173.335938-346.667969c-3.625-7.210938-15.464844-7.210938-19.09375 0l-173.332031 346.667969c-1.644531 3.328124-1.472656 7.230468.492187 10.390624 1.960938 3.15625 5.375 5.054688 9.066407 5.054688h346.664062c3.691407 0 7.125-1.921875 9.066407-5.054688 1.941406-3.136718 2.136718-7.0625.472656-10.390624zm0 0"
        fill="#1976d2" />
    <path
        d="m256 512c-141.164062 0-256-114.835938-256-256s114.835938-256 256-256 256 114.835938 256 256-114.835938 256-256 256zm0-490.667969c-129.386719 0-234.667969 105.28125-234.667969 234.667969s105.28125 234.667969 234.667969 234.667969 234.667969-105.28125 234.667969-234.667969-105.28125-234.667969-234.667969-234.667969zm0 0" />
    <path
        d="m420.84375 448h-329.6875c-2.664062 0-5.226562-.980469-7.167969-2.773438-6.015625-5.460937-11.753906-11.199218-17.214843-17.214843-1.792969-1.964844-2.773438-4.523438-2.773438-7.167969v-329.6875c0-2.664062.980469-5.226562 2.773438-7.167969 5.460937-6.015625 11.199218-11.753906 17.214843-17.214843 1.964844-1.792969 4.523438-2.773438 7.167969-2.773438h329.664062c2.667969 0 5.226563.980469 7.167969 2.773438 6.015625 5.460937 11.753907 11.199218 17.21875 17.214843 1.8125 1.964844 2.792969 4.523438 2.792969 7.167969v329.664062c0 2.667969-.980469 5.226563-2.773438 7.167969-5.460937 6.015625-11.199218 11.753907-17.214843 17.21875-1.964844 1.8125-4.523438 2.792969-7.167969 2.792969zm-325.503906-21.332031h321.320312c3.4375-3.242188 6.765625-6.570313 10.007813-10.007813v-321.320312c-3.242188-3.4375-6.570313-6.765625-10.007813-10.007813h-321.320312c-3.4375 3.242188-6.765625 6.570313-10.007813 10.007813v321.320312c3.242188 3.4375 6.570313 6.765625 10.007813 10.007813zm341.992187-5.824219h.214844zm0 0" />
    <path
        d="m426.667969 437.332031c-3.96875 0-7.765625-2.21875-9.601563-6.015625l-161.066406-332.203125-161.066406 332.203125c-2.582032 5.292969-8.960938 7.511719-14.25 4.949219-5.292969-2.558594-7.511719-8.957031-4.949219-14.25l170.664063-352c3.5625-7.359375 15.617187-7.359375 19.179687 0l170.667969 352c2.582031 5.3125.363281 11.691406-4.929688 14.25-1.492187.726563-3.070312 1.066406-4.648437 1.066406zm0 0" />
</svg>